<svg width="128" height="128" viewBox="0 0 128 128" fill="none" xmlns="http://www.w3.org/2000/svg">
  <style>
    .clip072072-color-blue,
    .clip072072-color-white {
      animation: 7s both infinite;
    }

    .clip072072-color-blue {
      fill: #0047FF;
      animation-name: clip072072-change-color-blue;
    }

    .clip072072-color-white {
      fill: #ffffff;
      animation-name: clip072072-change-color-white;
    }

    @keyframes clip072072-change-color-blue {
      0%, 100% {
        fill: #0047FF;
      }
      50% {
        fill: #ffffff;
      }
    }

    @keyframes clip072072-change-color-white {
      0%, 100% {
        fill: #ffffff;
      }
      50% {
        fill: #0047FF;
      }
    }
  </style>

  <g clip-path="url(#clip0_720_72)">
    <path d="M128 0H0V128H128V0Z" fill="#0047FF" class="clip072072-color-blue" />
    <path
      d="M80.1 79.6476V86.1615C80.73 86.3716 83.46 86.1615 86.54 85.9513C92.028 84.9988 92.9333 79.6242 92.7 77.0561C92.84 74.4879 93.12 68.9873 93.12 67.5304C94.016 63.6081 97.3666 63.0011 98.93 63.1879V56.604C94.842 56.8841 93.3533 53.5455 93.12 51.8412C93.0033 49.2262 92.77 43.7304 92.77 42.6657C92.77 41.3349 92.28 38.3232 91.86 37.5527C90.852 34.1907 85.9333 33.1167 83.6 33H79.96V39.5839C84.496 39.5279 85.63 41.3349 85.63 42.2455C85.63 43.7864 85.7 47.8628 85.98 51.8412C85.98 57.0242 89.48 58.9854 90.67 59.8959C87.254 61.4088 86.12 65.6159 85.98 67.5304C85.8166 70.0519 85.49 75.4872 85.49 77.0561C85.49 78.625 83.6233 79.4375 82.69 79.6476H80.1Z"
      fill="#ffffff" class="clip072072-color-white" />
    <path
      d="M47.83 39.951V33.4371C47.2 33.227 44.47 33.4371 41.39 33.6473C35.902 34.5998 34.9967 39.9743 35.23 42.5425C35.09 45.1107 34.81 50.6113 34.81 52.0681C33.914 55.9904 30.5633 56.5976 29 56.4107V62.9946C33.088 62.7144 34.5767 66.0532 34.81 67.7574C34.9267 70.3723 35.16 75.8682 35.16 76.9328C35.16 78.2636 35.65 81.2754 36.07 82.0459C37.078 85.4079 41.9967 86.4819 44.33 86.5986H47.97V80.0147C43.434 80.0707 42.3 78.2636 42.3 77.3531C42.3 75.8122 42.23 71.7358 41.95 67.7574C41.95 62.5743 38.45 60.6132 37.26 59.7026C40.676 58.1897 41.81 53.9826 41.95 52.0681C42.1133 49.5466 42.44 44.1115 42.44 42.5425C42.44 40.9736 44.3066 40.1611 45.24 39.951H47.83Z"
      fill="#ffffff" class="clip072072-color-white" />
    <path
      d="M55.67 86.3716L54.76 88.9631H71.56L72.26 89.7336V91.5547L71.56 92.115H48.04V94.9867H79.96V92.115H77.23L74.78 86.3716H55.67Z"
      fill="#ffffff" class="clip072072-color-white" />
    <path
      d="M61.2 64.7288L53.78 74.0444L69.67 61.9972L69.32 60.9466L65.4 61.1567L72.05 55.6935L71.77 54.7129H68.13L74.01 45.8877L60.5 57.2344L60.85 58.215H63.37L56.09 64.3086L56.51 65.2892L61.2 64.7288Z"
      fill="#ffffff" class="clip072072-color-white" />
  </g>
  <defs>
    <clipPath id="clip0_720_72">
      <rect width="128" height="128" fill="white" />
    </clipPath>
  </defs>
</svg>
