<svg width="505" height="448" viewBox="0 0 505 448" fill="none" xmlns="http://www.w3.org/2000/svg">
<path d="M368 336V382.5C372.5 384 392 382.5 414 381C453.2 374.2 459.667 335.833 458 317.5C459 299.167 461 259.9 461 249.5C467.4 221.5 491.333 217.167 502.5 218.5V171.5C473.3 173.5 462.667 149.667 461 137.5C460.167 118.833 458.5 79.6 458.5 72C458.5 62.5 455 41 452 35.5C444.8 11.5 409.667 3.83333 393 3H367V50C399.4 49.6 407.5 62.5 407.5 69C407.5 80 408 109.1 410 137.5C410 174.5 435 188.5 443.5 195C419.1 205.8 411 235.833 410 249.5C408.833 267.5 406.5 306.3 406.5 317.5C406.5 328.7 393.167 334.5 386.5 336H368Z" stroke="url(#paint0_linear_330_79)" stroke-width="5"/>
<path d="M137.5 52.6213V6.12134C133 4.62134 113.5 6.12134 91.5 7.62134C52.3 14.4213 45.8333 52.788 47.5 71.1213C46.5 89.4547 44.5 128.721 44.5 139.121C38.1 167.121 14.1667 171.455 3 170.121V217.121C32.2 215.121 42.8333 238.955 44.5 251.121C45.3333 269.788 47 309.021 47 316.621C47 326.121 50.5 347.621 53.5 353.121C60.7 377.121 95.8333 384.788 112.5 385.621H138.5V338.621C106.1 339.021 98 326.121 98 319.621C98 308.621 97.5 279.521 95.5 251.121C95.5 214.121 70.5 200.121 62 193.621C86.4 182.821 94.5 152.788 95.5 139.121C96.6667 121.121 99 82.3214 99 71.1213C99 59.9213 112.333 54.1213 119 52.6213H137.5Z" stroke="url(#paint1_linear_330_79)" stroke-width="5"/>
<path d="M193.5 384L187 402.5H307L312 408V421L307 425H139V445.5H367V425H347.5L330 384H193.5Z" stroke="url(#paint2_linear_330_79)" stroke-width="5"/>
<defs>
<linearGradient id="paint0_linear_330_79" x1="-10" y1="195" x2="503" y2="197" gradientUnits="userSpaceOnUse">
<stop stop-color="#F3F2F2"/>
<stop offset="0.515625" stop-color="#F3F2F2" stop-opacity="0.2"/>
<stop offset="0.770833" stop-color="#F3F2F2" stop-opacity="0.05"/>
<stop offset="0.9375" stop-color="#F3F2F2" stop-opacity="0"/>
</linearGradient>
<linearGradient id="paint1_linear_330_79" x1="-10" y1="195" x2="503" y2="197" gradientUnits="userSpaceOnUse">
<stop stop-color="#F3F2F2"/>
<stop offset="0.515625" stop-color="#F3F2F2" stop-opacity="0.2"/>
<stop offset="0.770833" stop-color="#F3F2F2" stop-opacity="0.05"/>
<stop offset="0.9375" stop-color="#F3F2F2" stop-opacity="0"/>
</linearGradient>
<linearGradient id="paint2_linear_330_79" x1="-10" y1="195" x2="503" y2="197" gradientUnits="userSpaceOnUse">
<stop stop-color="#F3F2F2"/>
<stop offset="0.515625" stop-color="#F3F2F2" stop-opacity="0.2"/>
<stop offset="0.770833" stop-color="#F3F2F2" stop-opacity="0.05"/>
<stop offset="0.9375" stop-color="#F3F2F2" stop-opacity="0"/>
</linearGradient>
</defs>
</svg>
