<svg version="1.1" id="Layer_1" xmlns="http://www.w3.org/2000/svg" xmlns:xlink="http://www.w3.org/1999/xlink" x="0px" y="0px"
	 width="100%" viewBox="0 0 512 512" enable-background="new 0 0 512 512" xml:space="preserve">
<path  opacity="000000" stroke="none" 
	d="
M312.000000,513.000000 
	C208.025253,513.000000 104.550499,513.000000 1.037875,513.000000 
	C1.037875,342.400238 1.037875,171.800446 1.037875,1.100329 
	C171.558090,1.100329 342.116272,1.100329 512.837219,1.100329 
	C512.837219,171.666534 512.837219,342.333252 512.837219,513.000000 
	C446.133759,513.000000 379.316864,513.000000 312.000000,513.000000 
M502.836029,376.080292 
	C503.845093,370.773590 501.631073,367.201477 497.057831,364.592010 
	C481.234436,355.563385 465.475800,346.421204 449.691437,337.324219 
	C430.882141,326.483887 412.071075,315.646759 393.261932,304.806244 
	C373.029388,293.145325 352.773926,281.523743 332.578827,269.798279 
	C325.010620,265.404083 317.584167,260.765839 310.661530,255.832779 
	C313.546417,251.827805 316.431335,247.822830 319.638031,243.371063 
	C313.976532,243.007980 309.249390,242.704819 303.374237,242.328033 
	C305.126251,241.074326 305.604431,240.552490 306.191345,240.356827 
	C306.954712,240.102325 307.825165,240.188370 308.613831,239.987564 
	C317.217072,237.796921 325.145477,234.477402 328.773682,225.530945 
	C333.079956,214.912628 337.285492,204.240952 341.076233,193.431625 
	C342.840179,188.401657 343.522552,182.992371 344.900055,176.839920 
	C339.187195,179.597885 334.886780,181.790741 330.488647,183.766022 
	C325.608185,185.957916 321.117981,185.312759 317.312866,181.721024 
	C323.587341,177.427902 329.901581,173.455750 335.825836,168.968674 
	C343.785217,162.940201 350.040375,155.593811 352.037415,145.344254 
	C354.610260,132.139496 357.668579,119.018562 359.845459,105.751198 
	C361.313019,96.806801 361.618652,87.671753 362.444061,78.621986 
	C362.064667,78.542542 361.685242,78.463097 361.305847,78.383652 
	C355.210144,86.222275 349.114410,94.060898 343.018707,101.899529 
	C342.663544,101.668243 342.308411,101.436958 341.953247,101.205673 
	C342.144012,100.466858 342.153809,99.608330 342.551849,99.006622 
	C354.427979,81.052582 362.726257,61.424263 369.347992,41.065666 
	C371.498749,34.453129 374.040558,27.715979 372.639069,20.275818 
	C368.066193,24.000740 363.847198,27.437412 359.628204,30.874084 
	C359.257996,30.489931 358.887817,30.105776 358.517609,29.721621 
	C362.208588,23.557531 365.899567,17.393442 370.318970,10.012826 
	C363.795166,11.909770 358.160614,12.929624 353.053070,15.157617 
	C341.161926,20.344719 330.974060,27.402243 326.892548,40.875137 
	C323.933105,50.644093 320.222778,60.185555 316.847260,69.828461 
	C316.534851,69.877670 316.222443,69.926872 315.910004,69.976082 
	C315.470612,63.813755 315.031219,57.651428 314.524475,50.544769 
	C309.744598,56.261585 305.110504,61.125042 301.291718,66.561249 
	C297.428345,72.060982 292.591919,77.769791 291.335236,84.020988 
	C288.769653,96.782539 288.244720,109.962837 287.077393,122.988411 
	C286.888428,125.097054 287.719055,127.297058 288.197205,130.168350 
	C282.779907,126.527313 283.128265,121.186638 282.461609,116.629845 
	C281.752594,111.783409 282.302155,106.752846 282.302155,101.802689 
	C281.799835,101.791046 281.297516,101.779411 280.795197,101.767776 
	C269.035065,131.274078 260.819275,161.304398 268.071533,194.509369 
	C261.226685,187.956955 259.542114,180.049881 257.399872,171.080765 
	C251.662735,187.994904 250.047928,204.429062 248.157593,220.890579 
	C239.543442,215.964279 230.670776,211.433914 222.375977,206.018463 
	C210.073441,197.986465 198.282471,198.711914 186.004318,205.947418 
	C161.316345,220.496048 136.450256,234.742065 111.693344,249.174149 
	C80.214966,267.524506 48.802570,285.988342 17.280848,304.263702 
	C12.556813,307.002502 9.923555,310.305420 11.092425,316.860718 
	C11.061907,320.858795 11.267724,324.876495 10.938228,328.849792 
	C10.565928,333.339172 12.720800,336.059021 16.299089,338.119507 
	C18.170195,339.196899 20.000362,340.345398 21.871254,341.423157 
	C48.347160,356.674622 74.848976,371.881226 101.299934,387.175812 
	C132.351624,405.130585 163.347549,423.181824 194.390427,441.151886 
	C226.437561,459.703278 258.596375,478.063721 290.532227,496.804352 
	C302.926483,504.077576 314.822388,505.477631 327.590424,497.750854 
	C346.622498,486.233215 365.909973,475.135101 385.153259,463.969543 
	C421.486176,442.888000 457.833527,421.830841 494.255280,400.903503 
	C500.437531,397.351318 504.323242,393.048492 503.058655,385.393036 
	C502.601807,382.627258 502.831024,379.748169 502.836029,376.080292 
z"/>
<path fill="#373F51" opacity="1.000000" stroke="none" 
	d="
M310.093079,256.238831 
	C317.584167,260.765839 325.010620,265.404083 332.578827,269.798279 
	C352.773926,281.523743 373.029388,293.145325 393.261932,304.806244 
	C412.071075,315.646759 430.882141,326.483887 449.691437,337.324219 
	C465.475800,346.421204 481.234436,355.563385 497.057831,364.592010 
	C501.631073,367.201477 503.845093,370.773590 502.475464,376.591644 
	C499.493073,378.855377 496.957581,380.756348 494.235992,382.337006 
	C468.189056,397.464600 442.084045,412.492218 416.048279,427.638885 
	C385.122681,445.630280 354.325989,463.844940 323.302032,481.664459 
	C314.828735,486.531372 305.471100,486.499207 296.925293,481.784576 
	C281.193268,473.105377 265.795288,463.821625 250.238602,454.823517 
	C225.750656,440.659607 201.256409,426.506531 176.746674,412.380402 
	C149.497055,396.675110 122.157494,381.124573 94.985298,365.286682 
	C66.991425,348.969818 39.152004,332.387970 11.244995,315.922058 
	C9.923555,310.305420 12.556813,307.002502 17.280848,304.263702 
	C48.802570,285.988342 80.214966,267.524506 111.693344,249.174149 
	C136.450256,234.742065 161.316345,220.496048 186.004318,205.947418 
	C198.282471,198.711914 210.073441,197.986465 222.375977,206.018463 
	C230.670776,211.433914 239.543442,215.964279 248.662781,221.299377 
	C249.426620,222.978271 250.033890,224.290604 249.885956,225.511444 
	C249.080887,232.155563 253.035736,235.537018 258.226257,238.155991 
	C259.122711,238.608307 260.027374,239.044464 260.928223,239.488098 
	C260.884308,239.792389 260.840393,240.096680 260.796448,240.400970 
	C258.542938,240.560867 256.289429,240.720779 253.946777,240.557755 
	C253.288452,239.646683 252.816635,238.891144 252.135742,238.495041 
	C237.032181,229.709122 221.932129,220.915863 206.725159,212.311829 
	C205.677460,211.719055 203.548492,212.159576 202.343735,212.852356 
	C180.414658,225.462189 158.545334,238.176056 136.673187,250.884781 
	C104.729614,269.445465 72.789673,288.012451 40.861259,306.599213 
	C37.675488,308.453766 34.580147,310.463684 30.940016,312.712067 
	C32.787868,313.995758 33.686230,314.722565 34.675186,315.292023 
	C70.585945,335.969849 106.528053,356.593292 142.417191,377.308563 
	C184.358871,401.517303 226.259415,425.797363 268.160645,450.076111 
	C270.494415,451.428375 272.362274,451.716553 274.989655,450.169312 
	C294.922424,438.431213 315.003235,426.944946 335.007446,415.327667 
	C367.100006,396.690155 399.171295,378.015930 431.245880,359.347382 
	C436.028687,356.563629 440.780518,353.726562 446.176514,350.542511 
	C444.976776,349.718292 444.588135,349.410095 444.163086,349.165131 
	C402.058228,324.903198 359.932922,300.676666 317.861237,276.357422 
	C311.125549,272.463928 304.628876,268.157043 298.290894,263.830078 
	C302.404449,261.158844 306.248749,258.698822 310.093079,256.238831 
M466.983276,379.265747 
	C466.395111,378.135132 466.101624,376.517303 465.170349,375.953979 
	C459.660339,372.621246 454.174744,369.149872 448.324097,366.518524 
	C445.217010,365.121063 441.270660,365.036987 440.004089,370.696503 
	C440.585632,372.501007 440.612335,375.186493 441.842438,375.961182 
	C447.966003,379.817719 454.300140,383.391266 460.816071,386.533875 
	C462.281616,387.240662 465.229980,386.369720 466.626984,385.193420 
	C467.552582,384.414062 466.930664,381.796753 466.983276,379.265747 
M335.579010,431.509186 
	C336.329315,433.466003 336.509766,436.247223 337.932770,437.230988 
	C342.973145,440.715363 348.326721,443.799927 353.772705,446.629822 
	C359.499237,449.605469 362.812103,447.365570 362.936462,440.115784 
	C360.897125,435.930450 343.720215,425.549774 339.727539,426.632965 
	C338.212860,427.043854 337.242523,429.461273 335.579010,431.509186 
M429.935486,401.074768 
	C429.566925,400.183838 429.453400,398.858551 428.790375,398.469238 
	C422.265015,394.638214 415.813599,390.610931 408.983002,387.401825 
	C405.889679,385.948547 403.190674,387.803955 403.004425,392.615356 
	C404.194153,394.760712 404.870483,397.632233 406.674988,398.907990 
	C411.139099,402.063995 416.032410,404.659790 420.915924,407.163361 
	C426.414642,409.982330 429.823486,407.839569 429.935486,401.074768 
M325.847382,461.259399 
	C318.519226,456.858765 311.337830,452.177673 303.777252,448.221130 
	C301.375061,446.964050 298.646423,448.667023 298.003906,452.749481 
	C299.283936,455.014282 300.040985,457.982452 301.949738,459.401550 
	C306.301788,462.637085 311.141022,465.255188 315.925171,467.861969 
	C321.853516,471.092194 325.743988,468.713593 325.847382,461.259399 
M343.962433,451.025574 
	C343.782379,450.236298 343.862732,449.009094 343.382965,448.723816 
	C336.746857,444.778259 330.232513,440.534729 323.257263,437.291290 
	C319.677521,435.626740 317.530670,438.061859 317.567322,442.506226 
	C318.094391,444.348114 318.033966,447.051666 319.251068,447.881470 
	C324.292725,451.319000 329.610687,454.402527 335.037476,457.209564 
	C340.478363,460.023834 343.857483,457.796478 343.962433,451.025574 
M448.235229,390.371582 
	C448.317108,389.735168 448.658478,388.651978 448.443329,388.527008 
	C441.210693,384.325897 434.076721,379.896576 426.540131,376.318146 
	C424.660156,375.425507 420.436554,376.350983 421.575653,381.516541 
	C421.836731,383.173706 421.522369,385.765900 422.451416,386.337677 
	C428.911102,390.313141 435.540894,394.047241 442.339447,397.406860 
	C443.670288,398.064514 446.560913,397.310974 447.651672,396.172821 
	C448.571472,395.213135 447.923248,392.750702 448.235229,390.371582 
M400.230255,411.621490 
	C394.665466,402.271729 372.847412,400.836212 364.363007,412.087219 
	C357.791534,416.608826 357.483124,422.987122 363.592896,428.012665 
	C372.904938,435.672180 393.127472,435.655884 402.430695,427.981293 
	C408.431854,423.030792 407.574799,414.889526 400.230255,411.621490 
z"/>
<path fill="#7BB1FF" opacity="1.000000" stroke="none" 
	d="
M310.377319,256.035797 
	C306.248749,258.698822 302.404449,261.158844 297.923767,263.887115 
	C292.299377,265.379425 287.277557,266.485321 282.343781,267.898651 
	C280.841888,268.328888 278.787079,269.312408 278.333160,270.540588 
	C272.563507,286.151184 267.039795,301.852661 261.258545,317.826508 
	C257.405884,326.996216 253.710648,329.296570 243.876938,328.468689 
	C246.019669,324.258423 248.080460,320.209167 250.402435,315.932556 
	C256.871552,300.880371 263.066895,286.050171 269.299805,271.235809 
	C270.341003,268.761078 270.407990,267.136932 267.353180,265.812683 
	C258.192322,261.841553 253.836182,254.022217 251.360855,244.809814 
	C250.666824,242.226852 251.451965,241.039612 254.035919,240.880707 
	C256.289429,240.720779 258.542938,240.560867 260.796448,240.400970 
	C260.840393,240.096680 260.884308,239.792389 260.928223,239.488098 
	C260.027374,239.044464 259.122711,238.608307 258.226257,238.155991 
	C253.035736,235.537018 249.080887,232.155563 249.885956,225.511444 
	C250.033890,224.290604 249.426620,222.978271 249.009247,221.322815 
	C250.047928,204.429062 251.662735,187.994904 257.399872,171.080765 
	C259.542114,180.049881 261.226685,187.956955 268.071533,194.509369 
	C260.819275,161.304398 269.035065,131.274078 280.795197,101.767776 
	C281.297516,101.779411 281.799835,101.791046 282.302155,101.802689 
	C282.302155,106.752846 281.752594,111.783409 282.461609,116.629845 
	C283.128265,121.186638 282.779907,126.527313 288.197205,130.168350 
	C287.719055,127.297058 286.888428,125.097054 287.077393,122.988411 
	C288.244720,109.962837 288.769653,96.782539 291.335236,84.020988 
	C292.591919,77.769791 297.428345,72.060982 301.291718,66.561249 
	C305.110504,61.125042 309.744598,56.261585 314.524475,50.544769 
	C315.031219,57.651428 315.470612,63.813755 315.910004,69.976082 
	C316.222443,69.926872 316.534851,69.877670 316.847260,69.828461 
	C320.222778,60.185555 323.933105,50.644093 326.892548,40.875137 
	C330.974060,27.402243 341.161926,20.344719 353.053070,15.157617 
	C358.160614,12.929624 363.795166,11.909770 370.318970,10.012826 
	C365.899567,17.393442 362.208588,23.557531 358.517609,29.721621 
	C358.887817,30.105776 359.257996,30.489931 359.628204,30.874084 
	C363.847198,27.437412 368.066193,24.000740 372.639069,20.275818 
	C374.040558,27.715979 371.498749,34.453129 369.347992,41.065666 
	C362.726257,61.424263 354.427979,81.052582 342.551849,99.006622 
	C342.153809,99.608330 342.144012,100.466858 341.953247,101.205673 
	C342.308411,101.436958 342.663544,101.668243 343.018707,101.899529 
	C349.114410,94.060898 355.210144,86.222275 361.305847,78.383652 
	C361.685242,78.463097 362.064667,78.542542 362.444061,78.621986 
	C361.618652,87.671753 361.313019,96.806801 359.845459,105.751198 
	C357.668579,119.018562 354.610260,132.139496 352.037415,145.344254 
	C350.040375,155.593811 343.785217,162.940201 335.825836,168.968674 
	C329.901581,173.455750 323.587341,177.427902 317.312866,181.721024 
	C321.117981,185.312759 325.608185,185.957916 330.488647,183.766022 
	C334.886780,181.790741 339.187195,179.597885 344.900055,176.839920 
	C343.522552,182.992371 342.840179,188.401657 341.076233,193.431625 
	C337.285492,204.240952 333.079956,214.912628 328.773682,225.530945 
	C325.145477,234.477402 317.217072,237.796921 308.613831,239.987564 
	C307.825165,240.188370 306.954712,240.102325 306.191345,240.356827 
	C305.604431,240.552490 305.126251,241.074326 303.374237,242.328033 
	C309.249390,242.704819 313.976532,243.007980 319.638031,243.371063 
	C316.431335,247.822830 313.546417,251.827805 310.377319,256.035797 
M341.456726,102.311623 
	C341.008240,102.489632 340.559784,102.667641 340.111298,102.845650 
	C340.497101,102.919495 340.882874,102.993340 341.456726,102.311623 
M357.168488,31.397135 
	C357.437561,31.730963 357.706635,32.064789 357.975677,32.398628 
	C357.929535,31.918596 357.883362,31.438566 357.168488,31.397135 
z"/>
<path fill="#272E3A" opacity="1.000000" stroke="none" 
	d="
M11.168709,316.391388 
	C39.152004,332.387970 66.991425,348.969818 94.985298,365.286682 
	C122.157494,381.124573 149.497055,396.675110 176.746674,412.380402 
	C201.256409,426.506531 225.750656,440.659607 250.238602,454.823517 
	C265.795288,463.821625 281.193268,473.105377 296.925293,481.784576 
	C305.471100,486.499207 314.828735,486.531372 323.302032,481.664459 
	C354.325989,463.844940 385.122681,445.630280 416.048279,427.638885 
	C442.084045,412.492218 468.189056,397.464600 494.235992,382.337006 
	C496.957581,380.756348 499.493073,378.855377 502.431030,377.011902 
	C502.831024,379.748169 502.601807,382.627258 503.058655,385.393036 
	C504.323242,393.048492 500.437531,397.351318 494.255280,400.903503 
	C457.833527,421.830841 421.486176,442.888000 385.153259,463.969543 
	C365.909973,475.135101 346.622498,486.233215 327.590424,497.750854 
	C314.822388,505.477631 302.926483,504.077576 290.532227,496.804352 
	C258.596375,478.063721 226.437561,459.703278 194.390427,441.151886 
	C163.347549,423.181824 132.351624,405.130585 101.299934,387.175812 
	C74.848976,371.881226 48.347160,356.674622 21.871254,341.423157 
	C20.000362,340.345398 18.170195,339.196899 16.299089,338.119507 
	C12.720800,336.059021 10.565928,333.339172 10.938228,328.849792 
	C11.267724,324.876495 11.061907,320.858795 11.168709,316.391388 
z"/>
<path fill="#4C5671" opacity="1.000000" stroke="none" 
	d="
M253.946777,240.557770 
	C251.451965,241.039612 250.666824,242.226852 251.360855,244.809814 
	C253.836182,254.022217 258.192322,261.841553 267.353180,265.812683 
	C270.407990,267.136932 270.341003,268.761078 269.299805,271.235809 
	C263.066895,286.050171 256.871552,300.880371 250.067413,315.668945 
	C241.099365,314.153107 232.923798,314.777832 225.206177,318.464478 
	C219.691772,321.098694 218.970444,327.307159 224.157883,330.265839 
	C238.194672,338.271790 253.006744,339.775421 268.085297,333.352936 
	C273.140533,331.199707 273.505890,325.513458 269.107880,322.174103 
	C266.744080,320.379242 264.016754,319.063141 261.453461,317.531006 
	C267.039795,301.852661 272.563507,286.151184 278.333160,270.540588 
	C278.787079,269.312408 280.841888,268.328888 282.343781,267.898651 
	C287.277557,266.485321 292.299377,265.379425 297.654541,264.098328 
	C304.628876,268.157043 311.125549,272.463928 317.861237,276.357422 
	C359.932922,300.676666 402.058228,324.903198 444.163086,349.165131 
	C444.588135,349.410095 444.976776,349.718292 446.176514,350.542511 
	C440.780518,353.726562 436.028687,356.563629 431.245880,359.347382 
	C399.171295,378.015930 367.100006,396.690155 335.007446,415.327667 
	C315.003235,426.944946 294.922424,438.431213 274.989655,450.169312 
	C272.362274,451.716553 270.494415,451.428375 268.160645,450.076111 
	C226.259415,425.797363 184.358871,401.517303 142.417191,377.308563 
	C106.528053,356.593292 70.585945,335.969849 34.675186,315.292023 
	C33.686230,314.722565 32.787868,313.995758 30.940016,312.712067 
	C34.580147,310.463684 37.675488,308.453766 40.861259,306.599213 
	C72.789673,288.012451 104.729614,269.445465 136.673187,250.884781 
	C158.545334,238.176056 180.414658,225.462189 202.343735,212.852356 
	C203.548492,212.159576 205.677460,211.719055 206.725159,212.311829 
	C221.932129,220.915863 237.032181,229.709122 252.135742,238.495041 
	C252.816635,238.891144 253.288452,239.646683 253.946777,240.557770 
M66.948586,319.582306 
	C69.256134,320.797241 71.376892,323.353912 74.747894,320.476685 
	C70.975853,318.003326 67.488884,315.716919 63.382599,313.024384 
	C67.616142,310.271790 71.081589,308.018585 74.547043,305.765381 
	C74.252869,305.242767 73.958702,304.720123 73.664536,304.197510 
	C67.256676,305.067749 62.574486,309.567993 56.022995,313.114685 
	C60.137066,315.543091 63.228622,317.367950 66.948586,319.582306 
M199.854630,233.385117 
	C203.590775,230.185928 207.314529,229.545593 211.355713,233.027069 
	C212.834778,234.301285 214.708313,235.235168 216.550323,235.931976 
	C217.933899,236.455399 219.554581,236.351990 221.069717,236.527649 
	C221.202652,236.021133 221.335587,235.514633 221.468521,235.008118 
	C216.792923,232.279861 212.135651,229.519089 207.420197,226.861542 
	C206.779022,226.500198 205.657410,226.309372 205.078934,226.625809 
	C200.121552,229.337708 195.238052,232.184692 190.332489,234.991287 
	C190.663345,235.683563 190.994217,236.375839 191.325089,237.068115 
	C193.959976,235.970093 196.594849,234.872070 199.854630,233.385117 
M412.097656,349.170563 
	C411.328644,350.326233 410.792480,351.796539 409.743042,352.573334 
	C407.427704,354.287262 404.853668,355.651672 402.000732,357.393463 
	C405.991852,359.175110 416.168030,354.272614 419.390350,349.722534 
	C409.355164,342.289795 405.685608,340.730469 402.193604,342.947479 
	C405.454407,344.963867 408.508606,346.852509 412.097656,349.170563 
M279.703339,428.218109 
	C273.861359,433.357635 267.995880,433.411469 262.038818,428.378723 
	C261.163940,427.639679 260.108276,426.944946 259.024750,426.671234 
	C257.980255,426.407379 256.791351,426.715027 255.665894,426.771606 
	C255.554840,427.223236 255.443787,427.674835 255.332733,428.126434 
	C259.984619,430.885529 264.625458,433.663574 269.303589,436.377411 
	C269.832397,436.684174 270.737091,436.937408 271.186920,436.694977 
	C276.179260,434.004089 281.116241,431.210449 286.068176,428.444580 
	C285.791351,427.770966 285.514526,427.097321 285.237732,426.423706 
	C283.603729,426.905212 281.969696,427.386719 279.703339,428.218109 
z"/>
<path fill="#4C5670" opacity="1.000000" stroke="none" 
	d="
M365.066101,411.929565 
	C372.847412,400.836212 394.665466,402.271729 400.557068,412.245911 
	C400.856354,414.856995 400.828827,416.843658 400.477234,418.939453 
	C396.751770,420.707397 393.492279,422.820282 389.921265,423.936127 
	C380.848328,426.771362 372.699188,424.065735 365.141724,418.423157 
	C365.099976,415.972321 365.083038,413.950928 365.066101,411.929565 
z"/>
<path fill="#282F3B" opacity="1.000000" stroke="none" 
	d="
M400.801331,418.830353 
	C400.828827,416.843658 400.856354,414.856995 400.817383,412.447449 
	C407.574799,414.889526 408.431854,423.030792 402.430695,427.981293 
	C393.127472,435.655884 372.904938,435.672180 363.592896,428.012665 
	C357.483124,422.987122 357.791534,416.608826 364.714539,412.008392 
	C365.083038,413.950928 365.099976,415.972321 365.093872,418.816071 
	C365.831116,421.383026 366.178070,423.529785 367.419830,424.805786 
	C374.581970,432.165680 383.414093,430.735046 392.069946,428.741089 
	C397.050201,427.593903 400.791290,424.684418 400.801331,418.830353 
z"/>
<path fill="#4B5570" opacity="1.000000" stroke="none" 
	d="
M422.033905,380.948151 
	C420.436554,376.350983 424.660156,375.425507 426.540131,376.318146 
	C434.076721,379.896576 441.210693,384.325897 448.443329,388.527008 
	C448.658478,388.651978 448.317108,389.735168 447.754272,390.831268 
	C444.446136,391.008087 441.283142,391.439514 438.858673,390.299866 
	C433.065247,387.576538 427.619843,384.112885 422.033905,380.948151 
z"/>
<path fill="#4B5570" opacity="1.000000" stroke="none" 
	d="
M318.037079,441.942841 
	C317.530670,438.061859 319.677521,435.626740 323.257263,437.291290 
	C330.232513,440.534729 336.746857,444.778259 343.382965,448.723816 
	C343.862732,449.009094 343.782379,450.236298 343.594421,451.513947 
	C340.406769,451.818146 337.227295,452.407379 334.838959,451.296204 
	C329.042419,448.599487 323.613892,445.111816 318.037079,441.942841 
z"/>
<path fill="#4B5570" opacity="1.000000" stroke="none" 
	d="
M298.004547,451.939331 
	C298.646423,448.667023 301.375061,446.964050 303.777252,448.221130 
	C311.337830,452.177673 318.519226,456.858765 325.593475,461.756866 
	C322.047913,464.542053 318.840729,463.962769 315.599091,462.070892 
	C309.754059,458.659760 303.871460,455.312988 298.004547,451.939331 
z"/>
<path fill="#4B5570" opacity="1.000000" stroke="none" 
	d="
M403.027039,391.772308 
	C403.190674,387.803955 405.889679,385.948547 408.983002,387.401825 
	C415.813599,390.610931 422.265015,394.638214 428.790375,398.469238 
	C429.453400,398.858551 429.566925,400.183838 429.574982,401.547913 
	C425.949738,401.662140 422.353302,402.052826 419.490295,400.786011 
	C413.789276,398.263458 408.491425,394.829681 403.027039,391.772308 
z"/>
<path fill="#4B5570" opacity="1.000000" stroke="none" 
	d="
M336.024078,430.964142 
	C337.242523,429.461273 338.212860,427.043854 339.727539,426.632965 
	C343.720215,425.549774 360.897125,435.930450 362.576294,440.585632 
	C358.927521,440.772766 355.284424,441.295502 352.425262,440.037140 
	C346.730286,437.530640 341.466187,434.045197 336.024078,430.964142 
z"/>
<path fill="#4B5570" opacity="1.000000" stroke="none" 
	d="
M440.012299,369.873505 
	C441.270660,365.036987 445.217010,365.121063 448.324097,366.518524 
	C454.174744,369.149872 459.660339,372.621246 465.170349,375.953979 
	C466.101624,376.517303 466.395111,378.135132 466.636353,379.808960 
	C463.127991,380.045776 459.611572,380.518219 456.878510,379.272278 
	C451.041351,376.611206 445.609924,373.060028 440.012299,369.873505 
z"/>
<path fill="#28303C" opacity="1.000000" stroke="none" 
	d="
M440.008179,370.285004 
	C445.609924,373.060028 451.041351,376.611206 456.878510,379.272278 
	C459.611572,380.518219 463.127991,380.045776 466.645447,380.177185 
	C466.930664,381.796753 467.552582,384.414062 466.626984,385.193420 
	C465.229980,386.369720 462.281616,387.240662 460.816071,386.533875 
	C454.300140,383.391266 447.966003,379.817719 441.842438,375.961182 
	C440.612335,375.186493 440.585632,372.501007 440.008179,370.285004 
z"/>
<path fill="#28303C" opacity="1.000000" stroke="none" 
	d="
M421.804779,381.232361 
	C427.619843,384.112885 433.065247,387.576538 438.858673,390.299866 
	C441.283142,391.439514 444.446136,391.008087 447.621216,391.122192 
	C447.923248,392.750702 448.571472,395.213135 447.651672,396.172821 
	C446.560913,397.310974 443.670288,398.064514 442.339447,397.406860 
	C435.540894,394.047241 428.911102,390.313141 422.451416,386.337677 
	C421.522369,385.765900 421.836731,383.173706 421.804779,381.232361 
z"/>
<path fill="#28303C" opacity="1.000000" stroke="none" 
	d="
M335.801544,431.236664 
	C341.466187,434.045197 346.730286,437.530640 352.425262,440.037140 
	C355.284424,441.295502 358.927521,440.772766 362.598083,440.939392 
	C362.812103,447.365570 359.499237,449.605469 353.772705,446.629822 
	C348.326721,443.799927 342.973145,440.715363 337.932770,437.230988 
	C336.509766,436.247223 336.329315,433.466003 335.801544,431.236664 
z"/>
<path fill="#28303C" opacity="1.000000" stroke="none" 
	d="
M298.004211,452.344421 
	C303.871460,455.312988 309.754059,458.659760 315.599091,462.070892 
	C318.840729,463.962769 322.047913,464.542053 325.667175,462.092468 
	C325.743988,468.713593 321.853516,471.092194 315.925171,467.861969 
	C311.141022,465.255188 306.301788,462.637085 301.949738,459.401550 
	C300.040985,457.982452 299.283936,455.014282 298.004211,452.344421 
z"/>
<path fill="#282F3B" opacity="1.000000" stroke="none" 
	d="
M317.802185,442.224548 
	C323.613892,445.111816 329.042419,448.599487 334.838959,451.296204 
	C337.227295,452.407379 340.406769,451.818146 343.597443,451.873535 
	C343.857483,457.796478 340.478363,460.023834 335.037476,457.209564 
	C329.610687,454.402527 324.292725,451.319000 319.251068,447.881470 
	C318.033966,447.051666 318.094391,444.348114 317.802185,442.224548 
z"/>
<path fill="#282F3B" opacity="1.000000" stroke="none" 
	d="
M403.015747,392.193848 
	C408.491425,394.829681 413.789276,398.263458 419.490295,400.786011 
	C422.353302,402.052826 425.949738,401.662140 429.594421,401.900208 
	C429.823486,407.839569 426.414642,409.982330 420.915924,407.163361 
	C416.032410,404.659790 411.139099,402.063995 406.674988,398.907990 
	C404.870483,397.632233 404.194153,394.760712 403.015747,392.193848 
z"/>
<path fill="#384053" opacity="1.000000" stroke="none" 
	d="
M261.258545,317.826508 
	C264.016754,319.063141 266.744080,320.379242 269.107880,322.174103 
	C273.505890,325.513458 273.140533,331.199707 268.085297,333.352936 
	C253.006744,339.775421 238.194672,338.271790 224.157883,330.265839 
	C218.970444,327.307159 219.691772,321.098694 225.206177,318.464478 
	C232.923798,314.777832 241.099365,314.153107 249.806213,315.896301 
	C248.080460,320.209167 246.019669,324.258423 243.876938,328.468689 
	C253.710648,329.296570 257.405884,326.996216 261.258545,317.826508 
z"/>
<path fill="#000000" opacity="1.000000" stroke="none" 
	d="
M341.362701,102.689407 
	C340.882874,102.993340 340.497101,102.919495 340.111298,102.845657 
	C340.559784,102.667641 341.008240,102.489632 341.362701,102.689407 
z"/>
<path fill="#000000" opacity="1.000000" stroke="none" 
	d="
M357.502838,31.177835 
	C357.883362,31.438566 357.929535,31.918596 357.975677,32.398621 
	C357.706635,32.064789 357.437561,31.730963 357.502838,31.177835 
z"/>
<path fill="#2A313E" opacity="1.000000" stroke="none" 
	d="
M66.634384,319.387573 
	C63.228622,317.367950 60.137066,315.543091 56.022995,313.114685 
	C62.574486,309.567993 67.256676,305.067749 73.664536,304.197510 
	C73.958702,304.720123 74.252869,305.242767 74.547043,305.765381 
	C71.081589,308.018585 67.616142,310.271790 63.382599,313.024384 
	C67.488884,315.716919 70.975853,318.003326 74.747894,320.476685 
	C71.376892,323.353912 69.256134,320.797241 66.634384,319.387573 
z"/>
<path fill="#2A313E" opacity="1.000000" stroke="none" 
	d="
M199.542175,233.579590 
	C196.594849,234.872070 193.959976,235.970093 191.325089,237.068115 
	C190.994217,236.375839 190.663345,235.683563 190.332489,234.991287 
	C195.238052,232.184692 200.121552,229.337708 205.078934,226.625809 
	C205.657410,226.309372 206.779022,226.500198 207.420197,226.861542 
	C212.135651,229.519089 216.792923,232.279861 221.468521,235.008118 
	C221.335587,235.514633 221.202652,236.021133 221.069717,236.527649 
	C219.554581,236.351990 217.933899,236.455399 216.550323,235.931976 
	C214.708313,235.235168 212.834778,234.301285 211.355713,233.027069 
	C207.314529,229.545593 203.590775,230.185928 199.542175,233.579590 
z"/>
<path fill="#2A313E" opacity="1.000000" stroke="none" 
	d="
M411.830200,348.955841 
	C408.508606,346.852509 405.454407,344.963867 402.193604,342.947479 
	C405.685608,340.730469 409.355164,342.289795 419.390350,349.722534 
	C416.168030,354.272614 405.991852,359.175110 402.000732,357.393463 
	C404.853668,355.651672 407.427704,354.287262 409.743042,352.573334 
	C410.792480,351.796539 411.328644,350.326233 411.830200,348.955841 
z"/>
<path fill="#2A313E" opacity="1.000000" stroke="none" 
	d="
M280.019531,428.043152 
	C281.969696,427.386719 283.603729,426.905212 285.237732,426.423706 
	C285.514526,427.097321 285.791351,427.770966 286.068176,428.444580 
	C281.116241,431.210449 276.179260,434.004089 271.186920,436.694977 
	C270.737091,436.937408 269.832397,436.684174 269.303589,436.377411 
	C264.625458,433.663574 259.984619,430.885529 255.332733,428.126434 
	C255.443787,427.674835 255.554840,427.223236 255.665894,426.771606 
	C256.791351,426.715027 257.980255,426.407379 259.024750,426.671234 
	C260.108276,426.944946 261.163940,427.639679 262.038818,428.378723 
	C267.995880,433.411469 273.861359,433.357635 280.019531,428.043152 
z"/>
<path fill="#373F51" opacity="1.000000" stroke="none" 
	d="
M400.477234,418.939453 
	C400.791290,424.684418 397.050201,427.593903 392.069946,428.741089 
	C383.414093,430.735046 374.581970,432.165680 367.419830,424.805786 
	C366.178070,423.529785 365.831116,421.383026 365.118683,419.245544 
	C372.699188,424.065735 380.848328,426.771362 389.921265,423.936127 
	C393.492279,422.820282 396.751770,420.707397 400.477234,418.939453 
z"/>
</svg>