<svg version="1.1" id="Layer_1" xmlns="http://www.w3.org/2000/svg" xmlns:xlink="http://www.w3.org/1999/xlink" x="0px" y="0px"
	 width="100%" viewBox="0 0 512 512" enable-background="new 0 0 512 512" xml:space="preserve">
<path fill="#000000" opacity="000000" stroke="none" 
	d="
M1.000000,199.000000 
	C1.000000,134.000000 1.034669,69.499931 0.903313,5.000197 
	C0.896339,1.575462 1.576367,0.903139 5.000061,0.905342 
	C172.999985,1.013444 341.000000,1.013444 508.999939,0.905342 
	C512.423645,0.903139 513.096802,1.576367 513.094604,5.000061 
	C512.986511,172.999985 512.986511,341.000000 513.094604,508.999939 
	C513.096802,512.423645 512.423645,513.096802 508.999939,513.094604 
	C341.000000,512.986511 172.999985,512.986511 5.000061,513.094604 
	C1.576367,513.096802 0.900625,512.423950 0.904518,508.999878 
	C1.021816,405.833374 1.000000,302.666656 1.000000,199.000000 
z"/>
<path fill="#FE91AB" opacity="1.000000" stroke="none" 
	d="
M236.902985,314.150879 
	C240.395325,320.578766 245.303802,325.777222 248.734756,332.083649 
	C254.361481,342.425995 258.415314,353.247681 259.953247,364.877289 
	C264.216034,397.111420 261.774475,429.524536 261.740387,461.840973 
	C261.718201,482.879211 246.631638,495.985870 227.022736,501.005127 
	C217.469406,503.450439 207.686523,503.625000 198.037842,502.842896 
	C185.117432,501.795654 172.432968,499.011414 159.906677,495.497101 
	C130.445786,487.231689 103.320816,474.160339 79.162537,455.447113 
	C65.410133,444.794342 52.069469,433.360352 43.401939,417.817841 
	C36.333950,405.143585 33.496460,391.607697 35.781200,376.962036 
	C36.607014,371.668396 36.468563,366.139221 36.959358,360.719971 
	C38.441750,344.351685 39.658558,327.906494 45.364948,312.330261 
	C51.502842,295.576172 62.455830,282.482147 77.629013,273.137390 
	C87.491821,267.063110 98.138725,262.837769 109.869904,262.031952 
	C111.680679,261.907593 113.176163,260.444885 115.509560,260.963104 
	C118.472939,260.233490 120.397873,261.747253 122.434380,262.779541 
	C135.888535,269.599396 149.480362,276.085114 164.362167,279.238037 
	C170.829361,280.608185 177.350281,281.865570 183.984879,281.871735 
	C186.736572,281.874268 189.075912,283.206085 192.074982,283.468994 
	C194.736725,283.399017 196.605148,284.538116 198.412003,285.671295 
	C210.872589,293.486053 222.680771,302.259583 235.095398,310.763367 
	C235.860992,311.471588 236.274216,312.016693 236.757965,312.913971 
	C236.943130,313.420074 236.980240,313.633453 236.902985,314.150879 
z"/>
<path fill="#885E4B" opacity="1.000000" stroke="none" 
	d="
M119.445389,247.230087 
	C118.443169,243.452927 115.000664,242.028305 113.076889,239.381470 
	C103.350998,226.000046 97.875275,210.780212 94.193520,194.907639 
	C91.594635,183.703430 89.755005,172.248642 90.113831,160.713409 
	C90.482536,148.860672 91.830833,136.996002 98.753136,126.787964 
	C107.465073,113.940819 120.099014,107.063461 135.020050,104.057182 
	C139.670486,103.120224 144.414261,102.646545 149.534485,101.896309 
	C153.269592,100.225929 156.742065,100.937714 160.607834,101.153412 
	C165.747025,100.486702 170.299927,101.734947 174.871506,102.444633 
	C182.598221,103.644096 190.326126,104.558777 198.540344,104.112831 
	C203.961563,103.660881 208.693863,102.143112 213.642151,100.051491 
	C217.120117,97.003822 219.993118,97.879990 222.747925,100.519119 
	C224.196686,101.907051 225.367722,103.531410 226.944336,105.314377 
	C227.364288,105.798927 227.520599,106.003708 227.873749,106.542206 
	C228.163651,107.116264 228.256729,107.356606 228.466690,107.964111 
	C231.425110,113.024063 233.559143,117.960617 233.770782,123.932617 
	C234.358292,129.538574 233.435394,134.469162 230.843857,139.470367 
	C229.194702,143.327438 226.933151,146.305984 224.167511,149.390396 
	C221.491577,151.690567 219.449921,154.131378 216.727997,156.391937 
	C213.576706,158.222580 213.366196,160.745148 214.119797,163.528381 
	C216.805664,173.448029 215.638016,182.853226 211.019669,192.056213 
	C205.262863,203.527802 206.707977,215.676453 208.461548,227.756989 
	C208.749557,229.741150 209.147903,231.697357 208.905609,233.698288 
	C208.568741,236.480011 207.252441,238.456833 204.199280,238.542175 
	C201.192810,238.626221 199.498688,236.840134 199.164474,234.049973 
	C198.808853,231.080963 198.483414,228.112427 198.005447,225.158310 
	C197.792542,223.842468 197.590744,222.543961 197.173264,221.266647 
	C195.234222,215.333786 192.029877,214.381729 187.243713,218.417007 
	C179.846420,224.653732 175.057159,232.832169 170.344559,241.087936 
	C167.167847,246.653046 163.306763,251.612518 156.710083,254.276016 
	C150.238403,257.892426 143.869095,256.912781 137.085571,255.504715 
	C136.436829,255.491852 136.179382,255.488586 135.538971,255.484497 
	C134.400787,255.447662 133.677444,255.252182 132.608978,254.944611 
	C127.918243,252.653214 123.338005,250.861649 119.445389,247.230087 
z"/>
<path fill="#394153" opacity="1.000000" stroke="none" 
	d="
M161.451080,102.596878 
	C157.690033,102.754974 154.122574,103.602402 150.328079,102.017334 
	C151.943253,76.451454 150.697250,51.026009 150.940399,25.621990 
	C150.974365,22.074883 151.831436,19.492512 155.569580,18.033794 
	C159.463074,15.746023 162.670547,17.198298 165.774063,18.960215 
	C177.495743,25.614824 189.097107,32.479401 200.787125,39.187805 
	C232.394302,57.325825 263.937653,75.574318 295.496948,93.794975 
	C322.157043,109.187088 348.811554,124.589043 375.473969,139.977081 
	C400.550293,154.449722 425.592255,168.982056 450.706116,183.389542 
	C456.821747,186.897995 462.717590,190.551361 466.021515,197.202682 
	C467.984222,201.153915 469.123566,205.195541 469.122772,209.656113 
	C469.109833,282.618713 469.111115,355.581329 469.131714,428.543945 
	C469.132782,432.409607 468.326965,435.781464 465.285675,438.868958 
	C461.705688,441.913666 458.290222,441.384186 454.878632,439.413361 
	C439.106140,430.301941 423.344543,421.171814 407.576691,412.052338 
	C389.223907,401.437836 370.870209,390.824890 352.514160,380.216034 
	C332.151520,368.447388 311.812469,356.637482 291.413391,344.932281 
	C273.474976,334.639069 255.467865,324.465637 237.139862,314.347107 
	C236.788605,314.454926 236.784866,314.343811 236.837372,314.325562 
	C236.686905,313.576141 236.047211,313.529236 235.209061,313.222198 
	C221.103897,303.839142 208.073898,293.411865 193.255798,285.021790 
	C189.323608,283.710968 188.122864,280.663849 187.125244,277.443970 
	C186.257202,274.642242 185.878143,271.591736 183.059219,269.299042 
	C182.225204,266.807312 180.758881,264.774536 182.224243,262.020142 
	C186.144623,259.049225 190.682785,259.652466 195.140778,258.403076 
	C205.195633,261.454407 213.410385,267.284698 222.011078,272.269135 
	C255.428833,291.636078 288.933441,310.852234 322.358124,330.206848 
	C364.425812,354.566193 406.560120,378.810272 448.632904,403.160828 
	C453.252197,405.834320 453.986420,405.495178 453.881775,400.093262 
	C453.265442,368.280975 455.304749,336.504333 454.983154,304.690430 
	C454.664886,273.201355 454.822968,241.706024 455.004028,210.214798 
	C455.034119,204.980713 453.537750,201.866486 448.749512,199.092133 
	C392.282410,166.374313 335.667114,133.912903 279.209198,101.179115 
	C242.340393,79.802917 205.376724,58.588253 168.471268,37.273956 
	C163.707855,34.522907 163.104355,34.896488 163.095581,40.646233 
	C163.067596,58.975040 163.108673,77.303947 163.061707,95.632698 
	C163.055847,97.919640 163.495895,100.353058 161.451080,102.596878 
z"/>
<path fill="#4C5671" opacity="1.000000" stroke="none" 
	d="
M465.389557,439.123199 
	C466.999084,433.769775 467.007111,428.143738 467.004181,422.465607 
	C466.967804,351.850159 466.976288,281.234680 467.026398,210.619202 
	C467.033539,200.551102 462.800842,193.036789 454.126282,188.027863 
	C410.913910,163.075668 367.676727,138.166412 324.475250,113.195389 
	C287.178528,91.637405 249.921829,70.010239 212.639694,48.427013 
	C197.237015,39.510147 181.843781,30.576021 166.374680,21.775543 
	C163.383316,20.073738 160.439896,17.969175 156.326263,17.994368 
	C165.023254,9.506061 168.880371,9.364271 179.010162,15.336913 
	C197.610245,26.303738 216.472885,36.824364 235.183395,47.605068 
	C252.594040,57.636818 269.938507,67.783356 287.331757,77.845436 
	C303.736115,87.335449 320.170074,96.774231 336.583588,106.248398 
	C354.853058,116.793861 373.106049,127.367912 391.381165,137.903610 
	C410.372620,148.852341 429.399933,159.739090 448.373810,170.718170 
	C455.066101,174.590591 461.657837,178.637543 468.275543,182.637772 
	C475.444672,186.971283 478.806763,193.940033 478.857574,201.732224 
	C479.143005,245.529541 479.782013,289.349457 478.701172,333.122162 
	C477.957733,363.232208 478.395172,393.319550 478.155365,423.414154 
	C478.106262,429.575378 476.240784,433.540802 470.794067,436.070770 
	C469.030273,436.890045 467.424744,438.050110 465.389557,439.123199 
z"/>
<path fill="#ED5E72" opacity="1.000000" stroke="none" 
	d="
M183.815369,268.406647 
	C186.420715,268.681030 187.576691,269.733093 188.000259,272.095367 
	C188.776291,276.423401 190.003128,280.644379 192.786301,284.594910 
	C165.269135,284.065887 139.796799,276.100647 116.149551,261.200562 
	C116.964027,256.574493 117.994217,252.215485 119.090675,247.446991 
	C124.525505,246.835403 127.766449,251.393143 132.706482,253.006165 
	C133.479340,253.508392 134.077469,253.483154 134.825470,253.827240 
	C135.056992,253.985291 134.995941,254.008728 134.987762,253.977066 
	C149.868286,258.047607 164.135529,264.445801 179.700424,266.049805 
	C181.269562,266.211487 182.470917,267.032562 183.815369,268.406647 
z"/>
<path fill="#000000" opacity="1.000000" stroke="none" 
	d="
M235.079239,313.382263 
	C235.536819,313.261871 236.117981,313.475555 236.794525,313.998260 
	C236.000916,315.042694 235.749893,313.956940 235.079239,313.382263 
z"/>
<path fill="#FEFEFE" opacity="1.000000" stroke="none" 
	d="
M161.613464,102.931839 
	C161.193008,79.127251 161.193008,55.363739 161.193008,30.698999 
	C164.611053,32.628235 167.177231,34.047749 169.716400,35.513996 
	C264.085297,90.007454 358.440369,144.524902 452.866913,198.918198 
	C456.077942,200.767868 457.043976,202.729919 457.026611,206.315948 
	C456.705750,272.477783 456.512726,338.640320 456.359894,404.802826 
	C456.351807,408.295624 456.427094,410.280975 452.046570,407.744476 
	C366.958771,358.475677 281.811707,309.309235 196.363953,259.965149 
	C195.540634,258.067139 196.624023,256.889862 197.719269,255.958405 
	C203.037811,251.435226 206.299393,245.559814 208.990402,239.280731 
	C209.651291,237.738602 210.477997,236.323898 212.390900,235.405472 
	C215.986740,235.109604 218.271957,237.316422 220.917099,238.622162 
	C224.565292,240.423096 224.981888,240.081131 224.983185,235.923630 
	C224.984070,233.071411 223.748688,231.263428 221.313751,229.960419 
	C218.530411,228.470993 215.814285,226.841202 213.915009,223.713409 
	C213.448608,218.503830 214.319092,213.799530 215.743423,208.807892 
	C218.813736,205.907578 221.273178,208.012466 223.624008,209.338364 
	C240.875214,219.068192 257.944336,229.115616 275.111816,238.991928 
	C275.544708,239.240982 275.936554,239.609512 276.400269,239.747589 
	C278.127136,240.261719 280.043396,243.024734 281.471161,240.876358 
	C282.726807,238.987015 282.475372,236.005081 280.561462,233.910568 
	C279.313263,232.544571 277.670715,231.679214 276.090424,230.755035 
	C259.281525,220.924911 242.324936,211.350418 225.508072,201.534073 
	C222.355133,199.693665 219.054550,198.047043 216.603790,194.670883 
	C216.049255,189.356384 214.703781,184.456146 215.597290,179.053986 
	C218.356140,175.308731 221.165421,177.198914 223.722107,178.589264 
	C234.238281,184.308014 244.498108,190.480606 254.871307,196.452576 
	C262.650574,200.931168 270.415375,205.434753 278.205963,209.894165 
	C280.957886,211.469376 281.940002,210.936401 282.002716,207.675659 
	C282.070740,204.138428 280.254669,202.238098 277.465454,200.627869 
	C259.900177,190.487457 242.328659,180.357697 224.740326,170.257568 
	C221.705109,168.514587 218.839005,166.551529 215.680466,164.294922 
	C213.377625,161.225586 214.068207,158.486725 215.700378,155.359924 
	C217.963837,153.019058 220.034180,151.075607 222.401001,149.002869 
	C225.041595,148.299088 226.898453,149.499207 228.767334,150.580154 
	C244.611115,159.744095 260.466766,168.887604 276.316498,178.041138 
	C277.883362,178.946030 280.035339,181.337738 281.392059,179.301910 
	C282.747589,177.267792 282.655640,174.068756 280.473206,171.931976 
	C278.933380,170.424362 276.956635,169.435837 275.082245,168.348618 
	C261.552673,160.500946 247.931046,152.812653 234.445663,144.889008 
	C232.463120,143.724106 230.245529,142.777390 229.088165,140.143494 
	C230.332596,134.939499 232.472504,130.235489 232.110718,124.578751 
	C235.106415,122.538124 237.257050,124.585892 239.472427,125.867889 
	C251.712006,132.950699 263.926971,140.076767 276.251831,147.009933 
	C277.837616,147.901978 279.424561,150.018341 281.510803,148.436615 
	C282.995117,147.311234 281.677155,141.820526 279.770660,140.346024 
	C278.849243,139.633408 277.793488,139.117493 276.792389,138.523300 
	C263.057617,130.371185 249.118149,122.572716 235.301498,114.561821 
	C232.382828,112.869576 229.726990,110.968185 227.206299,108.255905 
	C226.946579,108.021416 226.994919,107.995285 226.990967,108.022476 
	C226.793976,107.779739 226.565018,107.544815 226.096313,107.205841 
	C224.061768,104.991478 222.113159,103.006508 220.433960,100.815086 
	C218.801773,98.685028 217.342484,98.945129 215.393524,100.745865 
	C212.580612,101.412537 210.571259,100.198196 208.555801,99.037491 
	C200.808426,94.575768 193.160400,89.938087 185.295273,85.687447 
	C183.791016,84.874489 182.173569,82.487488 180.219971,84.621323 
	C178.406845,86.601738 179.365067,90.840233 181.808929,92.424118 
	C185.421158,94.765228 189.301498,96.670853 192.942429,98.958313 
	C195.667145,100.670151 199.142380,101.622345 200.143723,105.591187 
	C189.183578,107.490898 178.605957,105.028862 167.949524,103.698486 
	C165.978180,103.452377 164.005829,103.214561 161.613464,102.931839 
z"/>
<path fill="#F8D4B3" opacity="1.000000" stroke="none" 
	d="
M215.572723,155.087875 
	C216.131958,157.718185 215.587891,160.545074 216.808929,163.592758 
	C220.137665,168.188126 219.754333,172.652664 217.548294,177.619873 
	C217.474976,183.373688 217.706436,188.725677 217.965332,194.535736 
	C221.152466,199.182846 220.077133,203.332092 217.515594,207.782837 
	C216.507614,213.131393 215.859680,218.167877 215.184204,223.606659 
	C217.430191,228.185776 216.456665,231.943497 213.277573,235.659851 
	C209.195465,242.576157 207.343567,250.398849 201.041550,255.552170 
	C199.514206,256.801117 198.013763,258.082916 196.276031,259.579041 
	C192.235352,261.043915 188.478424,262.544769 183.959137,262.312653 
	C180.643738,264.160431 177.555161,264.298950 174.172409,263.575165 
	C168.962250,262.460419 164.252762,260.134399 159.448288,258.022766 
	C157.600250,257.210541 156.050735,255.985611 155.834595,253.351868 
	C162.406921,249.277512 166.799026,243.815445 170.167450,237.302231 
	C174.086456,229.724411 178.762070,222.629013 185.355865,217.049896 
	C192.820602,210.733902 198.268951,212.729553 199.837326,222.410507 
	C200.393494,225.843552 200.595123,229.372696 200.550888,232.852798 
	C200.511475,235.953979 201.710190,236.955841 204.702454,236.787491 
	C208.043350,236.599487 207.299042,234.480392 207.006760,232.547821 
	C205.861389,224.974594 204.896805,217.404282 204.935486,209.706436 
	C204.969696,202.902481 206.304535,196.463303 209.385849,190.440933 
	C214.090988,181.244873 215.633331,171.857529 211.371796,162.102295 
	C209.530182,157.886597 213.307663,157.135376 215.572723,155.087875 
z"/>
<path fill="#98D798" opacity="1.000000" stroke="none" 
	d="
M228.710571,140.020508 
	C242.992844,147.769791 257.001678,155.730576 271.008545,163.694809 
	C272.887390,164.763107 274.643158,166.179657 276.650452,166.866119 
	C283.378387,169.166977 284.765045,173.952682 284.131958,180.446014 
	C283.764404,184.216217 282.742432,184.162781 280.023285,182.574142 
	C261.078064,171.505463 242.098526,160.495514 222.913727,149.170166 
	C224.610489,145.993423 226.523514,143.113251 228.710571,140.020508 
z"/>
<path fill="#98D798" opacity="1.000000" stroke="none" 
	d="
M226.953430,108.389954 
	C233.441238,110.251427 238.905609,114.399818 244.810242,117.713554 
	C256.833344,124.461052 268.721344,131.449417 280.657867,138.350922 
	C283.431488,139.954605 285.681274,149.717453 283.704498,152.119766 
	C282.307922,153.816986 280.978546,152.087006 279.877594,151.462280 
	C269.764069,145.723633 259.711212,139.878098 249.635208,134.073227 
	C244.022141,130.839493 238.398666,127.623817 232.471375,124.278107 
	C231.514191,118.656868 229.424652,113.644356 226.953430,108.389954 
z"/>
<path fill="#98D698" opacity="1.000000" stroke="none" 
	d="
M200.439667,105.971191 
	C194.089767,101.413803 187.300186,98.287460 180.956329,94.422203 
	C177.878143,92.546684 175.907944,83.575165 178.143402,80.821632 
	C179.556015,79.081627 180.851669,80.752365 181.974014,81.397034 
	C192.885300,87.664421 203.753448,94.006958 214.856445,100.582642 
	C211.019684,104.454300 205.898010,105.148430 200.439667,105.971191 
z"/>
<path fill="#F5C5A2" opacity="1.000000" stroke="none" 
	d="
M155.563126,252.976517 
	C163.849091,258.851227 172.685196,262.030365 183.076599,262.161804 
	C182.045120,264.260101 183.736038,266.043152 184.074982,268.289459 
	C166.977097,267.092651 150.751068,262.327850 135.198608,254.217712 
	C141.742920,254.369278 148.563232,256.040161 155.563126,252.976517 
z"/>
<path fill="#F5C5A2" opacity="1.000000" stroke="none" 
	d="
M134.964996,253.684540 
	C134.516586,253.825745 133.976196,253.666199 133.247040,253.291107 
	C133.663193,253.178299 134.268097,253.281036 134.964996,253.684540 
z"/>
<path fill="#98D798" opacity="1.000000" stroke="none" 
	d="
M225.985367,107.321686 
	C226.209473,107.220314 226.526474,107.373848 226.915237,107.788513 
	C226.684097,107.891968 226.381165,107.734276 225.985367,107.321686 
z"/>
<path fill="#95A1B9" opacity="1.000000" stroke="none" 
	d="
M356.585205,371.256378 
	C353.066986,369.321960 349.952606,367.378174 346.682892,365.745361 
	C343.620880,364.216309 342.648285,362.050934 343.842743,358.516479 
	C348.613220,360.167023 352.660004,363.063721 356.767426,365.693451 
	C358.786438,366.986115 358.857178,369.421783 356.585205,371.256378 
z"/>
<path fill="#96A1B9" opacity="1.000000" stroke="none" 
	d="
M409.268555,400.607117 
	C408.947021,397.325439 409.274200,395.475983 412.761261,397.799744 
	C415.226868,399.442780 417.813904,400.953766 420.492279,402.214508 
	C423.742706,403.744537 424.818451,405.962952 423.400085,409.802734 
	C418.596497,406.886047 413.264984,405.108246 409.268555,400.607117 
z"/>
<path fill="#96A1B9" opacity="1.000000" stroke="none" 
	d="
M402.007660,394.763580 
	C401.967682,396.909027 401.088013,397.044983 399.774475,396.288666 
	C396.199432,394.230164 392.641052,392.142487 389.054291,390.104675 
	C386.848206,388.851288 386.627899,386.614899 387.603943,384.975861 
	C388.912933,382.777710 390.445709,385.089783 391.692749,385.706665 
	C394.349091,387.020752 396.823944,388.696259 399.439148,390.100830 
	C401.205231,391.049347 402.333588,392.244385 402.007660,394.763580 
z"/>
<path fill="#96A1B9" opacity="1.000000" stroke="none" 
	d="
M431.416168,409.870575 
	C436.567169,410.541504 440.282715,414.021667 444.601746,416.323730 
	C446.588135,417.382477 446.450653,419.715576 445.635406,421.185181 
	C444.527374,423.182587 443.069275,421.155457 441.960876,420.610413 
	C439.441711,419.371613 437.152466,417.654144 434.609467,416.477814 
	C431.772186,415.165344 430.555878,413.263184 431.416168,409.870575 
z"/>
<path fill="#95A1B9" opacity="1.000000" stroke="none" 
	d="
M380.025391,381.946838 
	C379.819458,384.693481 378.511841,384.002686 377.280365,383.303802 
	C373.950134,381.413910 370.654388,379.463043 367.318237,377.583801 
	C364.917328,376.231506 364.551239,373.785736 365.735992,372.040344 
	C366.996796,370.182831 368.588989,372.492981 369.899719,373.125580 
	C372.442047,374.352600 374.821136,375.914581 377.289734,377.298798 
	C378.971771,378.241943 380.374573,379.323883 380.025391,381.946838 
z"/>
<path fill="#5994FB" opacity="1.000000" stroke="none" 
	d="
M392.772339,263.027252 
	C404.224762,272.248932 415.775848,281.318939 424.475220,293.228699 
	C430.225342,301.100800 432.850403,310.136780 432.739746,319.958740 
	C432.617859,330.781982 432.662445,341.607056 432.601135,352.431152 
	C432.590790,354.258209 432.541779,356.102631 432.288025,357.907715 
	C431.259552,365.223175 426.437531,367.928375 419.744324,364.647644 
	C414.972015,362.308411 410.449188,359.455902 405.838593,356.791718 
	C376.732147,339.973267 347.656281,323.101715 318.517487,306.339539 
	C308.076996,300.333679 302.584106,291.360168 302.387756,279.451813 
	C302.179199,266.802246 302.317108,254.138123 302.671692,241.490662 
	C303.009399,229.445740 308.995209,225.028214 320.612366,227.742401 
	C328.869751,229.671631 337.118378,231.638382 345.707489,233.768127 
	C346.464050,237.293503 343.450073,237.786896 341.603058,239.167801 
	C337.544495,242.202148 337.432556,242.793304 340.854126,246.407867 
	C342.111237,247.735840 343.504211,248.942032 344.620941,250.394699 
	C347.351654,253.946869 347.032013,255.723160 342.790039,256.780701 
	C339.400970,257.625610 340.039734,259.285553 340.794098,261.504639 
	C345.240906,274.585449 350.799347,287.219269 356.323486,299.859375 
	C359.305756,306.683167 361.550446,313.842926 365.674622,320.491028 
	C366.734772,321.672852 367.210114,322.818024 367.882507,324.129669 
	C368.232086,324.336304 368.398285,324.368958 368.830902,324.384827 
	C369.279419,324.313263 369.461548,324.258453 369.913574,324.071289 
	C378.438110,315.033936 386.448059,305.930298 393.460846,295.984955 
	C395.619049,292.924225 395.576569,290.194977 392.997711,287.484314 
	C392.310120,286.761536 391.649597,286.006592 391.056335,285.203186 
	C389.776398,283.469849 387.977997,281.681335 388.886688,279.411713 
	C389.821960,277.075958 392.227356,277.779388 394.173950,277.901642 
	C396.447266,278.044464 396.776886,277.067291 395.872162,275.208282 
	C394.925079,273.262360 393.863892,271.370667 393.008911,269.382477 
	C392.157501,267.402435 391.117035,265.409973 392.772339,263.027252 
z"/>
<path fill="#3A4253" opacity="1.000000" stroke="none" 
	d="
M343.494965,208.060471 
	C340.876343,204.085846 339.309540,199.732941 339.212250,195.306625 
	C339.079559,189.268127 336.993774,184.074554 334.587769,178.744919 
	C330.846222,170.457062 327.745728,161.921173 327.698669,152.595810 
	C329.466370,152.371368 330.119659,153.534821 330.877777,154.276657 
	C337.462250,160.719513 345.479065,163.573669 354.488617,164.945557 
	C371.159698,167.484070 383.307404,176.454407 389.603180,192.355133 
	C390.739197,195.224274 393.873596,195.880463 394.665741,198.822693 
	C397.720947,210.170547 398.070251,221.397720 393.426819,232.679947 
	C390.656036,231.562683 390.674957,229.053665 390.218872,226.845322 
	C389.747986,224.564896 389.953613,222.218124 389.932495,219.898743 
	C389.877686,213.884460 389.881775,213.804016 384.145386,214.037628 
	C377.225311,214.319427 371.216553,211.550690 365.239288,208.637817 
	C358.531647,205.369034 352.588776,200.902588 346.659454,196.136520 
	C344.962708,200.252502 347.842804,204.976944 343.494965,208.060471 
z"/>
<path fill="#F7D4B4" opacity="1.000000" stroke="none" 
	d="
M343.218262,208.376251 
	C344.877960,202.546524 343.420441,196.971176 343.370789,191.066483 
	C358.126617,201.177704 370.877625,215.449265 391.687714,210.700531 
	C391.778534,217.593735 391.729095,224.849472 393.087494,232.414764 
	C391.157074,239.554001 386.971680,244.556442 381.002899,248.618591 
	C380.294922,249.984055 379.341919,250.395981 377.843384,250.565613 
	C369.574158,252.130402 364.356628,247.894897 359.415405,242.192154 
	C358.937286,241.798080 358.744781,241.643356 358.247742,241.277771 
	C357.580322,240.737579 357.241272,240.385574 356.702759,239.726334 
	C355.438416,237.624008 353.791809,236.064362 354.038269,233.354599 
	C349.800415,225.209793 346.544708,216.963333 343.218262,208.376251 
z"/>
<path fill="#E4E7F0" opacity="1.000000" stroke="none" 
	d="
M217.588196,178.037018 
	C217.141266,173.647079 217.039032,169.272461 216.954544,164.428574 
	C225.121078,167.380936 232.404114,172.376266 240.048981,176.708664 
	C252.629303,183.838028 265.094391,191.170670 277.670502,198.307602 
	C283.738403,201.751175 285.620178,205.886566 283.967194,212.662704 
	C283.244781,215.624146 281.659576,214.308334 280.283813,213.514511 
	C265.023499,204.709290 249.817261,195.809906 234.523239,187.063904 
	C229.062866,183.941345 223.848068,180.344772 217.588196,178.037018 
z"/>
<path fill="#E4E7F0" opacity="1.000000" stroke="none" 
	d="
M217.455078,208.232758 
	C217.421097,204.021179 217.686630,199.947449 217.972458,195.433777 
	C238.722275,206.919037 259.465179,218.821152 280.167633,230.793106 
	C283.452789,232.692856 285.637665,241.505280 283.747589,244.520203 
	C282.542389,246.442673 281.434174,244.829330 280.448425,244.268997 
	C269.763977,238.195480 259.108521,232.070938 248.445374,225.960007 
	C238.215012,220.097061 227.984848,214.233734 217.455078,208.232758 
z"/>
<path fill="#7EB2FE" opacity="1.000000" stroke="none" 
	d="
M365.309753,321.995270 
	C360.052429,315.108154 357.197266,306.894287 353.719879,299.039825 
	C348.271606,286.733856 342.918884,274.362274 338.611084,261.574524 
	C336.471466,255.223007 336.292877,255.277145 342.818237,254.986786 
	C343.471802,254.957703 344.121674,254.845291 345.211334,254.722000 
	C343.390717,250.993088 340.258636,248.774490 337.639099,246.206085 
	C334.905151,243.525482 334.367371,241.657501 337.975464,239.171936 
	C340.453186,237.465057 343.138977,236.164169 345.821045,234.209564 
	C346.447327,233.970856 346.850616,233.993866 347.554688,234.062286 
	C348.695190,234.870102 349.687164,235.490250 350.276581,236.999985 
	C351.674957,249.633255 354.458893,261.603973 356.563599,273.684540 
	C357.841095,281.016907 358.409912,288.498779 360.817139,296.043640 
	C362.227722,302.874237 363.843536,309.224274 365.673859,315.524841 
	C366.266632,317.565369 366.895874,319.663574 365.309753,321.995270 
z"/>
<path fill="#7DB2FE" opacity="1.000000" stroke="none" 
	d="
M393.033417,262.863159 
	C393.002563,267.102417 396.069946,270.126038 397.462555,273.820251 
	C398.206024,275.792603 399.889160,277.435211 399.632935,279.914062 
	C396.452698,280.499969 393.404968,279.780304 389.917267,279.150269 
	C390.515808,282.571136 393.018890,284.292694 394.862427,286.434784 
	C397.278107,289.241760 398.880493,291.946777 396.179901,295.708588 
	C388.694366,306.135590 380.687439,316.095978 371.400146,324.982910 
	C370.943268,325.420105 370.245880,325.605957 369.316711,325.947510 
	C367.314697,324.127136 368.195587,322.199677 368.957092,320.384460 
	C370.825043,315.931763 372.432709,311.386200 374.229431,306.487671 
	C377.606506,295.305023 379.872070,284.252289 381.842194,273.156189 
	C382.567230,269.072662 384.436646,265.272858 384.535522,260.656555 
	C384.679596,259.038940 385.264038,258.112457 386.637573,257.263367 
	C388.273560,258.056274 389.511292,259.005585 390.893677,260.210266 
	C391.231171,261.382263 391.669769,262.130554 392.789795,262.784668 
	C393.074829,262.961823 393.005219,262.900116 393.033417,262.863159 
z"/>
<path fill="#E4E7EF" opacity="1.000000" stroke="none" 
	d="
M386.878418,256.801697 
	C386.843933,257.859650 386.652039,258.612305 386.296753,259.609436 
	C384.605713,263.323608 383.399384,266.969971 379.974091,269.235443 
	C377.496399,270.874146 375.053345,272.095825 371.821564,270.190247 
	C370.250458,268.650208 369.493805,266.993530 369.056091,265.308502 
	C368.005768,261.265045 366.100983,260.977692 362.891815,263.753967 
	C359.795135,263.842865 358.493561,261.829712 357.130127,259.947968 
	C352.302521,253.285034 350.691132,245.506088 349.198608,237.302856 
	C348.640533,236.239120 348.316742,235.481430 347.924194,234.415741 
	C349.684113,233.838104 351.512726,233.568481 353.708252,233.151428 
	C355.341949,234.736694 356.608765,236.469391 357.937866,238.523331 
	C358.204834,239.125748 358.422028,239.396851 358.842804,239.835693 
	C359.032074,240.014954 358.983032,240.011642 358.990662,239.988281 
	C360.972443,243.448822 363.975220,246.217133 365.874664,249.739304 
	C367.470459,252.698410 369.483765,253.441238 372.295227,251.384445 
	C373.528534,250.482193 375.187622,250.580780 376.691284,249.451141 
	C377.992554,249.147003 379.013275,249.040588 380.413330,248.909180 
	C382.768768,251.421585 384.744873,253.958984 386.878418,256.801697 
z"/>
<path fill="#E4E7F0" opacity="1.000000" stroke="none" 
	d="
M213.112762,236.118652 
	C213.599411,232.172897 214.321289,228.494293 215.099915,224.412308 
	C216.703156,224.954498 218.136292,226.285461 219.815613,226.779343 
	C227.330338,228.989288 227.520081,234.709259 227.000626,240.925858 
	C226.816284,243.131989 226.243805,244.054626 223.985092,242.658295 
	C220.484619,240.494308 216.898041,238.469559 213.112762,236.118652 
z"/>
<path fill="#5994FB" opacity="1.000000" stroke="none" 
	d="
M393.019409,262.633759 
	C392.024841,262.813293 391.306183,262.304657 391.092773,260.826782 
	C391.680237,261.079010 392.322113,261.692352 393.019409,262.633759 
z"/>
<path fill="#ED6074" opacity="1.000000" stroke="none" 
	d="
M362.651031,263.387085 
	C364.011627,260.842468 365.279053,258.748108 367.823547,256.957672 
	C369.263641,260.856232 370.613403,264.510162 371.936646,268.537476 
	C374.209320,281.332916 377.433502,293.664307 375.720032,306.906006 
	C374.192322,313.532318 371.709106,319.430176 369.007477,325.622192 
	C368.972900,325.986115 369.000305,326.001526 368.996887,325.986450 
	C368.735565,326.218445 368.505707,326.489563 368.191742,327.025574 
	C365.850372,326.548889 366.400635,324.164948 365.180450,322.500122 
	C363.044250,314.123627 361.096558,305.973114 359.126007,297.422913 
	C358.145966,285.728180 361.334320,274.853912 362.651031,263.387085 
z"/>
<path fill="#7DB2FE" opacity="1.000000" stroke="none" 
	d="
M368.289612,327.091675 
	C368.216217,326.919128 368.348907,326.568359 368.737518,326.094482 
	C368.827515,326.285400 368.661560,326.599457 368.289612,327.091675 
z"/>
<path fill="#FEFDFC" opacity="1.000000" stroke="none" 
	d="
M376.548584,249.211243 
	C375.614105,252.956467 371.999573,253.767990 369.032410,255.367462 
	C367.790436,256.036926 366.770569,255.303085 366.172211,254.179688 
	C363.782532,249.693054 360.563721,245.645157 359.011719,240.336395 
	C361.975616,242.006638 364.122681,244.986206 367.226471,246.947815 
	C370.034851,248.722717 372.969421,249.194717 376.548584,249.211243 
z"/>
<path fill="#FEFDFC" opacity="1.000000" stroke="none" 
	d="
M358.902039,239.786133 
	C358.773438,239.780228 358.514801,239.545486 358.128174,239.077667 
	C358.257446,239.082169 358.514709,239.319748 358.902039,239.786133 
z"/>
<path fill="#FCFBFD" opacity="1.000000" stroke="none" 
	d="
M362.508423,262.909027 
	C364.565094,265.334900 364.328979,267.949097 363.883667,270.583466 
	C362.430756,279.179230 360.967072,287.773163 359.305359,296.695526 
	C354.312378,277.548981 351.276581,257.772736 348.945251,237.437683 
	C351.080444,242.197708 353.070801,247.454636 355.354431,252.580902 
	C357.034058,256.351318 359.016754,260.005157 362.508423,262.909027 
z"/>
<path fill="#FCFBFD" opacity="1.000000" stroke="none" 
	d="
M375.994629,306.944153 
	C373.893005,294.727692 371.330688,282.209991 371.556519,269.152527 
	C374.959320,270.810272 377.268463,269.231689 379.307526,267.161621 
	C381.484497,264.951447 383.470673,262.553345 385.836761,260.045532 
	C384.237366,275.732056 380.844177,291.290070 375.994629,306.944153 
z"/>
</svg>