<svg width="826" height="592" viewBox="0 0 826 592" fill="none" xmlns="http://www.w3.org/2000/svg">
<g clip-path="url(#clip0_329_125)">
<path d="M484.419 117.912C485.831 118.3 487.141 118.993 488.255 119.943C489.37 120.892 490.264 122.074 490.872 123.406C491.481 124.738 491.79 126.187 491.778 127.651C491.766 129.115 491.433 130.559 490.803 131.881L506.109 148.898L498.036 160.722L476.758 136.387C474.608 135.18 472.975 133.228 472.169 130.898C471.362 128.568 471.438 126.024 472.383 123.746C473.327 121.469 475.074 119.617 477.292 118.542C479.511 117.467 482.047 117.242 484.419 117.912Z" fill="#A0616A"/>
<path d="M627.715 159.698C626.335 157.452 624.526 155.501 622.39 153.956C620.254 152.411 617.834 151.303 615.27 150.695C612.705 150.087 610.045 149.992 607.443 150.414C604.841 150.836 602.348 151.768 600.107 153.156L549.768 184.333L495.467 138.176L481.957 150.754L541.944 228.584L619.909 187.94C618.09 188.888 629.914 163.277 627.715 159.698Z" fill="#CCCCCC"/>
<path d="M527.992 263.364C527.997 288.226 523.104 312.845 513.592 335.815C504.08 358.785 490.136 379.657 472.556 397.236C454.976 414.816 434.105 428.76 411.135 438.272C388.165 447.784 363.546 452.677 338.684 452.672C234.133 452.672 149.376 367.915 149.376 263.364C149.358 243.028 152.618 222.821 159.031 203.522C171.621 165.831 195.741 133.051 227.98 109.819C260.219 86.5857 298.946 74.0753 338.684 74.0564C372.956 74.0445 406.587 83.3395 435.989 100.949C465.39 118.559 489.458 143.822 505.622 174.042C509.63 181.499 513.126 189.218 516.087 197.149C516.497 198.253 516.897 199.357 517.286 200.472V200.483C519.021 205.383 520.55 210.376 521.871 215.459C525.948 231.101 528.005 247.2 527.992 263.364Z" fill="#1484C1"/>
<path d="M317.972 135.641C309.465 131.04 300.019 128.443 290.355 128.048C280.692 127.652 271.066 129.469 262.211 133.359C254.414 136.752 246.205 142.839 243.604 153.83C254.123 147.623 267.74 157.431 270.447 173.166L269.815 173.34C268.385 184.239 271.576 196.105 277.755 202.863C278.567 195.843 283.182 191.065 287.722 188.081C292.262 185.097 297.284 182.929 300.749 177.799C304.857 171.718 305.9 162.83 307.532 154.722C309.164 146.614 312.26 137.9 317.972 135.641Z" fill="white"/>
<path d="M259.09 228.384C256.177 232.759 252.286 235.505 248.794 238.923C245.313 242.351 242 246.979 241.306 252.921C240.864 256.728 241.548 260.598 241.453 264.448C241.359 268.297 240.076 272.63 237.457 273.587C233.324 275.08 230.168 267.403 225.92 266.866C222.543 266.446 219.504 271.757 220.482 276.363C221.46 280.97 226.056 283.01 228.696 280.002C231.084 284.009 229.401 291.277 225.814 292.507C225.436 295.031 225.057 297.545 224.689 300.069C215.623 293.727 206.463 287.28 198.754 277.994C190.18 267.753 184.862 255.184 183.483 241.899C182.484 231.224 183.967 219.014 179.066 210.8C175.143 204.227 168.412 202.775 162.354 203.186C161.25 203.259 160.135 203.385 159.031 203.522C162.603 192.792 167.141 182.408 172.587 172.497C173.82 171.967 174.965 171.255 175.984 170.383C181.621 165.597 184.125 155.911 188.699 149.212C188.994 148.78 189.299 148.36 189.614 147.95C194.295 141.839 200.563 138.694 206.621 135.771C220.03 129.261 233.828 122.666 247.984 123.571L243.956 123.96C239.255 137.127 234.551 150.295 229.842 163.462C229.127 165.482 228.405 167.504 227.676 169.531C225.005 177.019 222.249 184.991 222.659 193.373C222.901 198.337 224.626 203.638 227.907 205.341C230.968 206.919 234.312 204.984 237.267 203.07C238.519 202.27 239.76 201.471 241.012 200.661C245.502 197.769 250.477 194.803 255.22 196.738C259.564 198.505 262.771 204.405 263.382 210.768C263.941 216.953 262.432 223.149 259.09 228.384Z" fill="white"/>
<path d="M285.799 318.282C272.683 310.206 259.568 302.131 246.452 294.055L246.674 293.482C238.519 296.588 235.134 311.083 236.482 322.938C237.829 334.792 242.399 345.389 244.708 356.94C247.82 372.746 246.645 389.098 241.305 404.297C258.551 384.946 273.815 363.914 286.865 341.517C288.688 338.694 290.077 335.614 290.986 332.379C291.82 328.937 291.691 324.799 290.023 322.039C288.949 320.455 287.498 319.164 285.799 318.282Z" fill="white"/>
<path d="M234.036 171.363C232.643 174.494 232.107 178.67 233.371 181.91C234.662 185.219 237.391 186.714 239.903 187.959L247.15 191.551C249.561 192.746 252.16 193.953 254.617 192.97C257.582 191.784 259.637 187.137 259.106 182.822C258.54 178.231 255.646 175.073 252.969 172.384C249.224 168.62 245.478 164.857 241.733 161.093L239.622 163.678C237.338 165.905 235.45 168.504 234.036 171.363Z" fill="white"/>
<path d="M489.142 220.444C492.402 221.212 495.663 221.979 498.923 222.747C498.355 233.759 492.896 243.95 485.577 247.641C482.527 249.177 479.13 249.745 476.605 252.616C474.323 255.224 473.166 259.284 472.104 263.164C470.243 269.938 468.381 276.71 466.52 283.483C464.521 290.782 461.955 298.891 456.76 301.52C452.3 303.782 447.2 301.016 443.771 296.377C440.342 291.739 438.25 285.503 436.22 279.424C436.346 286.05 433.265 292.549 428.9 294.852C424.525 297.156 419.203 295.073 416.279 289.931C414.176 286.239 413.303 281.369 411.242 277.625C409.18 273.881 404.858 271.736 402.607 275.249C401.124 277.583 401.313 281.159 400.577 284.125C399.431 288.731 395.96 291.624 392.521 291.876C389.093 292.129 385.748 290.151 382.877 287.469C376.956 281.916 372.591 273.103 370.898 263.312C370.151 258.947 369.941 254.193 371.235 250.102C372.528 246.011 375.652 242.856 378.754 243.634C380.795 239.322 376.767 233.601 373.138 234.106C369.499 234.61 366.649 238.512 363.662 241.51C360.686 244.507 356.521 246.684 353.524 243.708C353.545 246.474 351.294 248.304 349.348 248.072C347.413 247.852 345.689 246.295 343.911 245.191C337.044 240.91 328.325 243.75 323.445 251.848C326.495 238.87 330.965 223.978 340.335 220.928C344.164 219.676 348.339 220.707 351.957 218.54C358.362 214.702 359.655 200.198 354.123 194.214C354.828 199.872 354.691 206.477 351.704 210.347C348.717 214.218 342.449 211.694 342.828 205.972C341.965 209.916 337.675 210.516 335.697 207.487C333.71 204.458 333.878 199.504 335.287 195.886C336.696 192.268 339.094 189.671 341.418 187.178C346.414 181.825 351.483 176.409 357.268 173.043C363.063 169.678 369.752 168.542 375.557 171.886C378.618 173.653 381.31 176.598 384.434 178.155C387.557 179.722 391.522 179.522 393.594 175.862C395.918 171.781 394.824 165.723 395.687 160.623C397.233 151.609 406.246 147.392 411.242 153.345C407.508 152.388 403.648 156.805 403.185 162.158C402.712 167.511 405.415 172.917 409.033 174.537C415.112 177.229 421.065 170.456 425.661 164.188C430.456 157.625 435.259 151.066 440.069 144.51C440.837 143.394 441.699 142.346 442.646 141.376C444.152 139.908 446.16 139.067 448.264 139.024C450.367 138.981 452.408 139.739 453.973 141.145C458.832 145.11 461.114 153.24 465.1 158.835C470.884 166.964 479.54 168.942 487.596 170.519C493.601 171.687 499.61 172.861 505.622 174.042C509.63 181.498 513.126 189.218 516.087 197.149C505.906 201.471 496.514 209.559 489.142 220.444Z" fill="white"/>
<path d="M508.556 346.986C504.05 356.135 498.81 364.904 492.886 373.205C489.1 371.585 485.029 374.478 481.485 377.191C477.783 380.031 473.334 382.797 469.538 380.21C465.657 377.559 464.405 370.145 465.636 364.266C466.866 358.397 469.937 353.727 472.914 349.289C476.069 344.578 479.445 339.687 483.831 337.857C488.227 336.027 493.874 338.614 495.157 344.862L498.271 344.756C496.525 342.358 497.44 337.394 499.785 336.521C502.488 335.501 504.833 339.214 506.432 342.495C507.147 343.978 507.873 345.472 508.556 346.986Z" fill="white"/>
<path d="M389.328 302.563C382.637 302.983 377.337 294.746 373.815 286.642C370.292 278.539 367.079 269.271 361.041 265.147C357.591 262.79 353.658 262.466 349.916 261.324C346.174 260.182 342.258 257.819 340.469 253.006L336.224 251.292C330.619 254.444 324.939 257.653 320.109 262.782C314.691 268.537 311.317 275.914 310.506 283.776C309.695 292.272 312.689 301.746 318.284 304.937C322.705 307.459 327.851 305.869 332.329 308.178C337.924 311.063 341.245 319.442 342.502 327.715C343.76 335.988 343.441 344.586 344.341 352.953C345.24 361.32 347.719 370.027 352.85 374.315C359.27 379.68 368.691 375.222 371.572 365.454C372.985 360.663 372.936 355.257 373.993 350.283C375.854 341.525 380.876 335.027 384.859 327.843C388.842 320.658 391.977 310.9 389.328 302.563Z" fill="white"/>
<path d="M323.208 216.5C323.832 217.074 324.415 217.692 324.951 218.349C325.506 219.306 325.789 220.396 325.77 221.502C325.751 222.608 325.431 223.688 324.844 224.625C325.65 224.579 326.437 224.367 327.157 224.001C327.877 223.635 328.513 223.124 329.025 222.5C330.246 221.109 331.321 219.596 332.231 217.984C332.913 216.871 333.639 215.367 333.176 214.045C332.86 213.143 332.112 212.758 331.588 212.079C330.758 211.004 330.552 209.296 330.122 207.82C329.194 204.632 326.969 202.288 324.555 201.953L324.89 202.017C323.882 202.363 323.177 203.964 323.4 205.406C323.603 206.718 324.447 207.808 324.363 209.146C324.242 211.071 322.319 211.974 322.2 213.899C322.181 214.865 322.543 215.799 323.208 216.5Z" fill="white"/>
<path d="M311.744 183.791C311.754 183.788 311.764 183.788 311.774 183.785C311.979 183.598 312.17 183.394 312.344 183.177L311.744 183.791Z" fill="#E6E6E6"/>
<path d="M313.75 192.826C315.23 191.874 316.056 189.243 315.567 187.041C315.081 184.852 313.36 183.381 311.774 183.785C311.313 184.252 310.742 184.594 310.113 184.779C309.484 184.964 308.818 184.986 308.179 184.843C307.197 184.591 306.12 183.94 305.269 184.68C304.783 185.232 304.442 185.897 304.279 186.614C303.964 187.581 303.649 188.548 303.334 189.515C303.184 189.861 303.145 190.245 303.222 190.614C303.282 190.762 303.38 190.892 303.505 190.991C303.63 191.09 303.778 191.156 303.936 191.181C305.826 191.739 307.715 192.296 309.605 192.853C310.982 193.259 312.469 193.65 313.75 192.826Z" fill="white"/>
<path d="M456.406 317.557C455.533 316.127 454.659 314.697 453.786 313.267C452.928 311.611 451.755 310.138 450.333 308.931C450.02 308.669 449.658 308.473 449.268 308.353C448.878 308.233 448.469 308.192 448.063 308.232C447.657 308.273 447.263 308.394 446.905 308.589C446.547 308.784 446.231 309.049 445.977 309.368L446.083 310.185C448.074 312.683 450.18 315.457 450.685 319.165C450.885 320.626 450.815 322.139 450.99 323.607C451.165 325.075 451.661 326.597 452.608 327.23C453.984 328.149 455.599 326.794 456.578 325.141C457.453 323.783 457.846 322.17 457.692 320.562C457.474 319.483 457.036 318.46 456.406 317.557Z" fill="white"/>
<path d="M495.282 262.94C495.534 261.283 495.787 259.627 496.04 257.97C496.45 256.151 496.501 254.268 496.19 252.429C496.119 252.028 495.969 251.644 495.748 251.301C495.527 250.958 495.24 250.663 494.903 250.433C494.567 250.203 494.187 250.042 493.788 249.96C493.388 249.879 492.976 249.878 492.576 249.958L492.132 250.652C492.046 253.845 491.871 257.324 489.87 260.486C489.081 261.732 488.054 262.845 487.242 264.08C486.431 265.316 485.83 266.8 486.147 267.894C486.608 269.483 488.716 269.486 490.529 268.852C492.073 268.377 493.412 267.396 494.331 266.067C494.859 265.101 495.182 264.036 495.282 262.94Z" fill="#E6E6E6"/>
<path d="M470.109 319.419C470.536 318.191 469.919 316.783 469.789 315.426C469.727 313.673 470.191 311.942 471.123 310.457C472.048 309.055 472.75 307.518 473.201 305.9C473.392 305.163 473.357 304.386 473.102 303.669C472.812 303.02 472.112 302.723 471.71 303.238L472.57 303.791C471.409 303.584 470.217 303.642 469.081 303.96C468.434 304.208 467.855 304.608 467.395 305.127C466.935 305.646 466.606 306.268 466.437 306.941C466.295 307.99 466.063 309.024 465.744 310.033C465.231 311.087 464.239 311.438 463.615 312.363C463.189 313.183 462.975 314.096 462.99 315.02C463.005 315.944 463.25 316.849 463.703 317.655C464.486 318.972 465.731 319.952 467.196 320.402C468.246 320.779 469.629 320.799 470.109 319.419Z" fill="white"/>
<path d="M494.511 326.781C494.89 327.769 495.399 328.702 496.023 329.556C497.191 330.733 498.779 330.01 500.196 329.724C501.482 329.521 502.799 329.669 504.008 330.154C505.216 330.639 506.271 331.441 507.06 332.477C506.511 329.736 505.311 327.167 503.563 324.985C501.814 322.804 499.568 321.074 497.012 319.94C493.671 318.578 490.152 318.447 486.678 318.324L486.078 318.478C487.607 322.93 492.409 322.83 494.511 326.781Z" fill="white"/>
<path d="M391.159 335.886L391.168 335.906C391.226 335.794 391.284 335.681 391.342 335.569L391.159 335.886Z" fill="#E6E6E6"/>
<path d="M387.457 343.052C386.649 344.517 385.955 346.042 385.38 347.614C384.618 350.159 384.114 352.774 383.875 355.42C383.687 356.925 383.629 358.846 384.571 359.579C384.842 359.759 385.169 359.834 385.491 359.79C385.812 359.746 386.107 359.587 386.32 359.342C386.844 358.788 387.272 358.151 387.588 357.457C389.441 354.266 390.879 350.853 391.869 347.298C392.771 343.554 392.762 339.147 391.168 335.906C389.931 338.288 388.694 340.67 387.457 343.052Z" fill="white"/>
<path d="M351.744 152.149C352.332 152.724 353.076 153.114 353.883 153.272C354.69 153.429 355.525 153.347 356.287 153.036C357.862 152.347 359.308 151.392 360.56 150.213C361.597 149.446 362.477 148.486 363.151 147.387C363.522 146.73 363.761 146.006 363.851 145.256C363.942 144.507 363.884 143.747 363.681 143.02C363.096 141.308 361.611 140.735 360.3 140.346C358.203 139.724 356.106 139.102 354.008 138.48L355.525 137.113C353.964 136.275 352.237 137.83 351.262 139.755C350.636 141.012 350.2 142.354 349.967 143.739C349.445 146.761 349.956 150.359 351.744 152.149Z" fill="#E6E6E6"/>
<path d="M388.775 139.718C389.366 140.37 390.183 140.772 391.06 140.843C391.937 140.915 392.809 140.65 393.497 140.102C394.09 139.657 394.583 139.092 394.942 138.444C395.302 137.795 395.522 137.079 395.586 136.34C395.734 134.69 394.919 132.856 393.754 132.714L394.02 131.169C391.776 130.764 389.014 130.683 387.811 133.408C387.406 134.452 387.281 135.585 387.45 136.692C387.619 137.799 388.076 138.843 388.775 139.718Z" fill="#E6E6E6"/>
<path d="M383.828 57.5741C370.67 56.0899 357.462 59.8934 347.109 68.1477C336.755 76.4021 330.105 88.4313 328.621 101.589C325.53 128.988 339.965 188.487 366.283 213.117C378.674 165.928 422.097 137.938 427.843 112.781C433.982 85.9003 411.227 60.6648 383.828 57.5741Z" fill="#0066FF"/>
<path d="M374.728 118.486C383.721 118.486 391.011 111.196 391.011 102.203C391.011 93.2108 383.721 85.9209 374.728 85.9209C365.736 85.9209 358.446 93.2108 358.446 102.203C358.446 111.196 365.736 118.486 374.728 118.486Z" fill="white"/>
<path d="M357.608 236.594C363.498 236.594 368.273 231.819 368.273 225.929C368.273 220.039 363.498 215.265 357.608 215.265C351.718 215.265 346.943 220.039 346.943 225.929C346.943 231.819 351.718 236.594 357.608 236.594Z" fill="#0066FF"/>
<path opacity="0.2" d="M388.2 90.538C390.033 91.6393 391.631 93.0908 392.903 94.8096C394.175 96.5285 395.095 98.481 395.613 100.556C396.13 102.63 396.233 104.787 395.917 106.901C395.601 109.016 394.872 111.048 393.77 112.881C392.669 114.713 391.217 116.311 389.499 117.583C387.78 118.855 385.827 119.776 383.753 120.293C379.563 121.337 375.129 120.675 371.428 118.451C375.202 119.29 379.151 118.759 382.57 116.953C385.988 115.146 388.652 112.182 390.084 108.591C391.517 105 391.624 101.017 390.388 97.3535C389.152 93.6903 386.652 90.5866 383.337 88.5979C385.052 88.978 386.694 89.6332 388.2 90.538Z" fill="#202020"/>
<path opacity="0.2" d="M427.907 112.834C422.161 137.991 378.738 165.981 366.347 213.17C363.872 210.831 361.573 208.313 359.469 205.635C373.394 161.279 414.114 134.326 419.666 110.02C424.634 88.2656 410.677 67.591 390.651 58.8574C414.893 64.9514 433.533 88.2 427.907 112.834Z" fill="#202020"/>
<path d="M231.245 121.106C221.364 119.991 211.445 122.847 203.67 129.046C195.895 135.245 190.901 144.278 189.787 154.159C187.466 174.735 198.306 219.417 218.069 237.913C227.375 202.476 259.984 181.456 264.299 162.564C268.909 142.378 251.821 123.427 231.245 121.106Z" fill="#0066FF"/>
<path d="M224.412 166.848C231.165 166.848 236.639 161.374 236.639 154.621C236.639 147.868 231.165 142.393 224.412 142.393C217.659 142.393 212.184 147.868 212.184 154.621C212.184 161.374 217.659 166.848 224.412 166.848Z" fill="white"/>
<path d="M211.555 255.543C215.978 255.543 219.563 251.958 219.563 247.535C219.563 243.112 215.978 239.526 211.555 239.526C207.132 239.526 203.546 243.112 203.546 247.535C203.546 251.958 207.132 255.543 211.555 255.543Z" fill="#0066FF"/>
<path opacity="0.2" d="M234.529 145.86C235.905 146.687 237.105 147.777 238.06 149.068C239.015 150.359 239.707 151.825 240.095 153.383C240.483 154.941 240.561 156.561 240.324 158.149C240.086 159.737 239.539 161.262 238.712 162.639C237.885 164.015 236.795 165.215 235.504 166.17C234.213 167.125 232.747 167.817 231.189 168.205C229.631 168.594 228.011 168.671 226.423 168.434C224.835 168.197 223.309 167.649 221.933 166.822C224.767 167.452 227.733 167.053 230.3 165.697C232.867 164.34 234.867 162.114 235.943 159.418C237.019 156.721 237.1 153.729 236.172 150.979C235.243 148.228 233.366 145.897 230.876 144.403C232.165 144.689 233.398 145.181 234.529 145.86Z" fill="#202020"/>
<path opacity="0.2" d="M264.347 162.604C260.032 181.496 227.423 202.515 218.117 237.952C216.259 236.196 214.532 234.305 212.953 232.294C223.41 198.984 253.989 178.744 258.158 160.491C261.889 144.154 251.408 128.628 236.369 122.069C254.574 126.646 268.572 144.105 264.347 162.604Z" fill="#202020"/>
<path d="M614.063 564.054H600.638L594.251 512.27L614.066 512.271L614.063 564.054Z" fill="#A0616A"/>
<path d="M621.286 589.546H611.759L610.059 580.552L605.704 589.546H580.437C579.226 589.546 578.047 589.159 577.071 588.441C576.096 587.723 575.375 586.712 575.015 585.556C574.654 584.4 574.673 583.159 575.068 582.014C575.463 580.869 576.213 579.88 577.21 579.192L597.387 565.257V556.165L618.61 557.431L621.286 589.546Z" fill="#F3F2F2"/>
<path d="M562.063 564.054H548.638L542.251 512.27L562.066 512.271L562.063 564.054Z" fill="#A0616A"/>
<path d="M569.286 589.546H559.759L558.059 580.552L553.704 589.546H528.437C527.226 589.546 526.047 589.159 525.071 588.441C524.096 587.723 523.375 586.712 523.015 585.556C522.654 584.4 522.673 583.159 523.068 582.014C523.463 580.869 524.213 579.88 525.21 579.192L545.387 565.257V556.165L566.61 557.431L569.286 589.546Z" fill="#F3F2F2"/>
<path d="M511.059 427.333C513.628 431.187 541.578 537.126 541.578 537.126L566.36 539.953L563.419 513.297L558.923 466.127L551.96 434.642C551.96 434.642 576.547 378.686 578.102 374.228L579.206 371.03L586.888 440.744C587.801 443.233 588.199 445.881 588.057 448.529C587.826 452.883 592.193 518.397 592.193 518.397L594.293 541.892L615.527 544.842L624.141 504.19C631.335 490.984 627.211 444.058 624.27 439.69C621.328 435.323 622.497 404.904 622.497 404.904C626.253 403.582 648.653 327.198 637.449 327.649C638.169 323.577 638.734 319.941 638.734 319.941L619.285 304.256L570.612 291.604L558.333 285.707C558.333 285.707 536.401 326.262 536.619 328.278C536.922 330.833 536.336 333.413 534.962 335.588L512.819 409.695C512.819 409.695 508.464 423.441 511.059 427.333Z" fill="#202020"/>
<path d="M633.341 162.147L625.598 145.707L599.244 146.72L590.647 163.824C590.647 163.824 566.08 193.166 565.285 202.707C564.285 214.707 572.597 273.52 564.285 269.707C564.285 269.707 544.691 292.707 556.285 292.707C567.88 292.707 620.328 325.631 623.769 329.334C627.211 333.036 642.574 335.437 641.285 327.707C639.997 319.978 633.341 278.173 633.341 278.173L651.36 212.44C656.545 198.249 658.159 182.33 646.437 172.797L633.341 162.147Z" fill="#CCCCCC"/>
<path d="M535.722 113.76C532.197 112.361 528.431 111.669 524.639 111.726C520.847 111.782 517.103 112.584 513.621 114.088C510.139 115.591 506.987 117.765 504.345 120.486C501.703 123.208 499.623 126.423 498.224 129.948C492.339 144.773 491.364 180.176 502.315 197.919C516.396 173.46 544.884 164.428 551.91 151.258C559.418 137.185 550.547 119.645 535.722 113.76Z" fill="#0066FF"/>
<path d="M523.867 146.709C529.069 146.709 533.286 142.492 533.286 137.29C533.286 132.088 529.069 127.871 523.867 127.871C518.665 127.871 514.448 132.088 514.448 137.29C514.448 142.492 518.665 146.709 523.867 146.709Z" fill="white"/>
<path d="M495.528 209.923C498.935 209.923 501.697 207.161 501.697 203.754C501.697 200.347 498.935 197.585 495.528 197.585C492.12 197.585 489.358 200.347 489.358 203.754C489.358 207.161 492.12 209.923 495.528 209.923Z" fill="#0066FF"/>
<path opacity="0.2" d="M533.158 132.824C534.884 134.628 535.823 137.043 535.768 139.539C535.714 142.034 534.671 144.407 532.869 146.134C531.067 147.861 528.653 148.802 526.157 148.751C523.661 148.699 521.288 147.659 519.559 145.858C521.538 146.9 523.823 147.203 526.005 146.713C528.187 146.224 530.124 144.974 531.469 143.187C532.814 141.4 533.479 139.193 533.345 136.96C533.211 134.728 532.287 132.616 530.738 131.002C531.638 131.475 532.455 132.09 533.158 132.824Z" fill="#202020"/>
<path opacity="0.2" d="M551.937 151.297C544.911 164.467 516.423 173.499 502.343 197.958C501.316 196.277 500.415 194.522 499.647 192.708C514.154 170.063 540.975 161.2 547.764 148.475C553.84 137.086 549.188 123.427 539.336 115.512C551.942 122.594 558.818 138.401 551.937 151.297Z" fill="#202020"/>
<path d="M492.747 201.63C494.181 201.334 495.663 201.357 497.087 201.696C498.512 202.034 499.845 202.682 500.992 203.591C502.14 204.501 503.073 205.651 503.728 206.961C504.383 208.271 504.743 209.708 504.782 211.172L526.15 219.374L524.333 233.575L494.319 221.568C491.856 221.471 489.514 220.474 487.737 218.765C485.96 217.056 484.871 214.755 484.677 212.297C484.483 209.84 485.198 207.396 486.685 205.43C488.173 203.464 490.329 202.112 492.747 201.63Z" fill="#A0616A"/>
<path d="M642.053 172.365C639.803 170.991 637.304 170.076 634.7 169.67C632.095 169.264 629.436 169.377 626.875 170.001C624.314 170.625 621.902 171.749 619.776 173.308C617.65 174.866 615.853 176.829 614.488 179.084L583.816 229.733L514.47 213.296L508.152 230.64L596.958 272.706L641.935 201.069C648.669 191.605 651.966 178.417 642.053 172.365Z" fill="#CCCCCC"/>
<path d="M643.198 110.293C643.2 115.175 642.004 119.982 639.714 124.293C637.424 128.605 634.111 132.288 630.065 135.02C626.019 137.751 621.365 139.448 616.51 139.962C611.656 140.475 606.749 139.788 602.222 137.963C597.695 136.137 593.685 133.228 590.544 129.49C587.403 125.753 585.228 121.302 584.209 116.528C583.191 111.754 583.359 106.803 584.701 102.109C586.042 97.4151 588.515 93.1224 591.903 89.6076L592.046 89.4646C592.285 89.214 592.524 88.9636 592.774 88.7249C592.776 88.7249 592.777 88.7246 592.779 88.724C592.78 88.7234 592.781 88.7226 592.783 88.7215C592.784 88.7203 592.784 88.719 592.785 88.7176C592.786 88.7161 592.786 88.7145 592.786 88.713C593.096 88.4267 593.406 88.1404 593.728 87.866C598.038 84.0879 603.345 81.6319 609.014 80.7919C614.683 79.952 620.474 80.7638 625.694 83.1301C630.914 85.4964 635.341 89.317 638.445 94.1344C641.55 98.9518 643.2 104.562 643.198 110.293Z" fill="#202020"/>
<path d="M606.028 142.201C619.84 142.201 631.036 131.004 631.036 117.193C631.036 103.382 619.84 92.1853 606.028 92.1853C592.217 92.1853 581.021 103.382 581.021 117.193C581.021 131.004 592.217 142.201 606.028 142.201Z" fill="#9E616A"/>
<path d="M632.584 124.325L628.441 123.593C626.126 123.172 623.994 122.055 622.331 120.39C620.669 118.724 619.554 116.591 619.136 114.276L615.093 121.052L614.916 121.11C605.284 124.308 595.261 123.352 584.283 118.19C581.144 116.701 578.099 115.022 575.164 113.162L574.948 113.027L574.93 112.773C574.371 104.637 576.196 97.8411 580.072 93.6355C581.56 92.0532 583.365 90.8033 585.37 89.9675C587.375 89.1318 589.534 88.7291 591.705 88.7859C591.86 88.7456 592.002 88.6672 592.119 88.5579C592.174 88.5169 592.23 88.4764 592.286 88.4378V88.3958L592.573 88.2605C593.19 87.9705 593.819 87.6927 594.448 87.4388C599.396 85.5232 604.784 85.0427 609.994 86.0524C615.203 87.0621 620.022 89.5211 623.896 93.1468C631.599 100.501 635.132 112.842 632.688 123.858L632.584 124.325Z" fill="#202020"/>
<path d="M685.331 145.632C676.821 141.239 687.765 125.297 685.566 115.976C683.367 106.656 667.529 103.658 666.52 94.1341C665.511 84.6106 663.138 74.7881 656.853 67.5616C652.838 62.9439 646.921 59.5349 640.828 60.1133C638.767 60.309 636.772 60.9467 634.98 61.9829C633.187 63.019 631.639 64.4294 630.44 66.1178C629.242 67.8063 628.422 69.7332 628.035 71.7674C627.648 73.8015 627.705 75.895 628.2 77.9054C626.466 75.4477 621.977 75.9803 620.866 78.7759C619.878 81.2612 622.06 84.2716 624.628 84.4915C627.989 88.6415 631.837 93.0458 637.101 93.8829C637.94 94.0756 638.812 94.0751 639.651 93.8815C640.489 93.6879 641.273 93.3064 641.942 92.7656C643.181 91.5762 643.277 89.1982 641.808 88.3093C648.424 90.9375 652.303 98.0909 653.285 105.142C654.266 112.193 652.908 119.327 652.013 126.39C651.118 133.452 650.733 140.882 653.502 147.44C656.774 155.189 664.306 160.743 672.527 162.524C680.748 164.305 689.503 162.564 696.944 158.642C704.385 154.72 710.59 148.733 715.659 142.021C706.927 148.221 694.847 150.543 685.331 145.632Z" fill="#202020"/>
<path d="M631.52 123.63C631.52 123.63 624.112 95.978 592.357 89.5958C592.321 89.584 592.202 89.5363 592.046 89.4648C591.951 89.4051 591.832 89.3454 591.712 89.2858C592.07 89.083 592.416 88.9042 592.774 88.725L592.779 88.7242L592.783 88.7216L592.785 88.7177L592.786 88.7131C593.096 88.4268 593.406 88.1405 593.728 87.8662L594.635 87.902C594.635 87.902 626.498 82.856 631.52 123.63Z" fill="#0066FF"/>
<path opacity="0.2" d="M614.934 212.357L596.999 233.136L567.364 224.385L599.671 239.273L614.934 212.357Z" fill="black"/>
<path d="M734.69 406.072C721.777 406.072 707.625 405.584 692.233 404.608C612.619 399.552 509.495 381.975 401.857 355.116C294.219 328.257 194.927 295.322 122.272 262.382C86.879 246.335 59.7154 231.145 41.5362 217.234C22.2891 202.507 13.8702 189.67 16.5123 179.081C21.6603 158.452 67.2433 153.939 104.576 153.786L104.589 156.786C53.3209 156.996 23.0753 165.173 19.4235 179.808C14.7716 198.448 52.7101 227.549 123.51 259.649C196.006 292.517 295.116 325.388 402.584 352.206C510.051 379.022 612.985 396.569 692.423 401.614C770.002 406.542 817.167 398.677 821.818 380.036C825.68 364.559 800.22 341.76 750.129 315.838L751.507 313.174C787.904 332.01 830.153 359.025 824.729 380.762C822.087 391.351 808.624 398.727 784.714 402.685C771.085 404.941 754.344 406.072 734.69 406.072Z" fill="#0066FF"/>
</g>
<defs>
<clipPath id="clip0_329_125">
<rect width="825.202" height="591.419" fill="white"/>
</clipPath>
</defs>
</svg>
