<svg width="624" height="500" viewBox="0 0 624 500" fill="none" xmlns="http://www.w3.org/2000/svg">
<g clip-path="url(#clip0_329_56)">
<path d="M248.959 233.029C242.632 238.995 234.429 240.564 230.636 236.535C226.842 232.505 228.896 224.403 235.223 218.437C237.992 215.826 241.122 214.057 244.083 213.232L271.208 188.291L282.631 201.279L254.679 224.488C253.679 227.397 251.729 230.418 248.959 233.029Z" fill="#FFB6B6"/>
<path d="M391.662 489.693L378.586 489.692L372.366 439.214L391.665 439.215L391.662 489.693Z" fill="#FFB6B6"/>
<path d="M346.862 489.396C346.455 490.083 346.24 492.297 346.24 493.095C346.24 495.549 348.227 497.537 350.678 497.537H391.173C392.845 497.537 394.201 496.181 394.201 494.507V492.82C394.201 492.82 396.204 487.749 392.08 481.498C392.08 481.498 386.954 486.392 379.294 478.726L377.035 474.631L360.685 486.599L351.623 487.715C349.64 487.959 347.882 487.677 346.862 489.396Z" fill="#F3F2F2"/>
<path d="M483.397 482.26L470.54 484.648L455.215 436.156L474.19 432.63L483.397 482.26Z" fill="#FFB6B6"/>
<path d="M439.296 490.155C439.021 490.904 439.214 493.121 439.359 493.906C439.807 496.318 442.123 497.91 444.533 497.462L484.347 490.061C485.991 489.756 487.076 488.174 486.771 486.529L486.463 484.87C486.463 484.87 487.507 479.518 482.312 474.126C482.312 474.126 478.165 479.875 469.236 473.738L466.268 470.124L452.376 484.878L443.67 487.632C441.765 488.235 439.985 488.279 439.296 490.155Z" fill="#F3F2F2"/>
<path d="M451.355 240.231L483.564 456.054L453.581 459.968L401.436 289.056L394.918 465.187H366.972C366.972 465.187 342.835 270.79 349.974 247.306C357.113 223.822 451.355 240.231 451.355 240.231Z" fill="#202020"/>
<path d="M381.882 67.2607H413.169L417.731 78.3505C417.731 78.3505 435.982 88.7879 435.982 92.7019C435.982 96.616 447.062 195.119 447.062 195.119L452.929 249.263C452.929 249.263 384.489 283.837 350.595 248.611L357.113 188.596C357.113 188.596 351.899 94.6589 354.506 90.7449C357.113 86.8309 376.667 77.6982 376.667 77.6982L381.882 67.2607Z" fill="#0066FF"/>
<path d="M372.096 84.091C372.096 84.091 381.631 98.5118 378.623 104.444C375.614 110.376 328.663 167.308 328.663 167.308L272.015 213.997L255.41 199.25L308.769 148.307L343.245 97.4204C348.732 86.946 360.572 81.4756 372.096 84.091Z" fill="#0066FF"/>
<path d="M479.677 271.529C481.039 280.121 477.714 287.789 472.251 288.656C466.788 289.524 461.255 283.262 459.893 274.67C459.297 270.909 459.599 267.325 460.585 264.411L455.271 227.931L472.428 225.8L475.846 261.988C477.685 264.453 479.081 267.768 479.677 271.529Z" fill="#FFB6B6"/>
<path d="M412.945 85.5178C412.945 85.5178 439.923 79.4749 444.825 94.4481C449.726 109.421 479.178 251.447 479.178 251.447L456.742 253.934L439.893 156.631L412.945 85.5178Z" fill="#0066FF"/>
<path d="M398.598 59.998C413.453 59.998 425.497 47.9451 425.497 33.0771C425.497 18.2091 413.453 6.15625 398.598 6.15625C383.742 6.15625 371.699 18.2091 371.699 33.0771C371.699 47.9451 383.742 59.998 398.598 59.998Z" fill="#FFB6B6"/>
<path d="M414.336 55.9355C412.611 56.0195 410.335 55.6906 410.046 53.9868C409.842 52.7849 410.855 51.7488 411.808 50.9898C413.137 49.9315 414.539 48.9449 415.681 47.6868C416.823 46.4287 417.703 44.8376 417.724 43.138C417.746 41.4384 416.734 39.6651 415.109 39.1704C413.485 38.6757 411.458 39.8849 411.433 41.5845C409.867 39.2036 409.659 36.2037 409.577 33.3543C409.529 31.6869 409.507 30.0187 409.513 28.3506C409.52 26.0717 409.578 23.7933 409.636 21.5151C408.516 21.4561 399.481 24.8588 398.177 24.8588C397.056 24.8588 388.049 23.0693 388.648 20.5013C388.472 22.1426 379.879 25.099 379.704 24.2399C379.528 23.3808 378.888 22.4741 378.013 22.5254C377.091 22.5795 376.59 23.6023 376.28 24.473C375.587 26.4171 373.906 29.777 372.105 28.7728C358.47 21.1729 369.464 18.8059 371.079 15.7152C373.064 11.9159 375.183 7.96328 378.716 5.53953C382.25 3.11578 385.039 0.221761 387.823 3.48082C394.806 -1.61347 401.734 -0.384652 409.873 2.52029C418.012 5.42523 424.523 12.5329 426.709 20.8997C427.711 24.7348 430.396 26.4176 428.396 29.8391C430.6 32.7982 429.406 31.124 429.841 34.7894C430.185 37.6812 429.897 40.7337 428.464 43.2685C426.934 45.9763 424.225 47.8602 421.328 48.9893C418.431 50.1183 417.93 55.7891 414.854 56.2331" fill="#202020"/>
<path d="M140.124 357.284L139.947 354.679C145.033 354.334 150.132 353.637 155.103 352.606L155.631 355.162C150.545 356.216 145.328 356.929 140.124 357.284ZM124.455 357.052C119.194 356.578 113.994 355.823 108.999 354.811L109.517 352.252C114.419 353.247 119.524 353.988 124.69 354.453L124.455 357.052ZM170.706 350.937L169.832 348.478C174.623 346.772 179.342 344.716 183.858 342.368L185.06 344.684C180.439 347.087 175.609 349.191 170.706 350.937ZM93.895 350.773C88.9007 349.096 84.0319 347.095 79.4241 344.82L80.5762 342.481C85.0803 344.702 89.8396 346.66 94.7237 348.299L93.895 350.773ZM65.9074 336.915C61.6032 333.961 57.4868 330.669 53.6733 327.128L55.4467 325.215C59.1665 328.669 63.1824 331.881 67.3816 334.761L65.9074 336.915ZM198.419 336.532L196.913 334.402C201.066 331.461 205.056 328.207 208.772 324.732L210.552 326.638C206.75 330.194 202.668 333.523 198.419 336.532ZM42.9993 315.636C39.7556 311.584 36.7652 307.238 34.1121 302.72L36.3603 301.398C38.9497 305.809 41.8682 310.05 45.0337 314.005L42.9993 315.636ZM221.238 315.191L219.216 313.543C222.432 309.589 225.405 305.381 228.05 301.036L230.276 302.394C227.57 306.84 224.529 311.145 221.238 315.191ZM27.1396 288.689C25.1606 283.903 23.4783 278.909 22.1397 273.843L24.6603 273.175C25.969 278.129 27.6138 283.013 29.5482 287.69L27.1396 288.689ZM237.49 288.485L235.099 287.443C237.129 282.774 238.854 277.917 240.225 273.007L242.735 273.71C241.332 278.734 239.568 283.706 237.49 288.485ZM19.1321 258.471C18.4656 253.315 18.1251 248.056 18.1206 242.844L20.7278 242.842C20.7323 247.944 21.0652 253.09 21.7176 258.137L19.1321 258.471ZM245.904 258.368L243.321 258.016C244.004 252.987 244.351 247.847 244.351 242.74L244.35 242.504H246.957L246.958 242.729C246.958 247.965 246.603 253.223 245.904 258.368ZM21.6915 227.545L19.1047 227.213C19.766 222.029 20.7686 216.856 22.0849 211.838L24.6068 212.501C23.3191 217.409 22.3383 222.471 21.6915 227.545ZM243.29 227.233C242.593 222.185 241.54 217.142 240.162 212.247L242.672 211.54C244.082 216.549 245.158 221.709 245.873 226.876L243.29 227.233ZM29.468 197.979L27.0569 196.985C29.0511 192.139 31.3872 187.416 33.9995 182.947L36.2502 184.265C33.6978 188.63 31.4158 193.244 29.468 197.979ZM235.011 197.831C232.977 193.176 230.599 188.612 227.942 184.266L230.166 182.904C232.885 187.351 235.318 192.022 237.4 196.787L235.011 197.831ZM219.091 171.784C215.872 167.843 212.352 164.084 208.628 160.613L210.405 158.703C214.216 162.256 217.817 166.101 221.11 170.133L219.091 171.784ZM44.895 171.647L42.8568 170.02C46.1139 165.933 49.6938 162.062 53.4957 158.515L55.2742 160.423C51.5645 163.884 48.0725 167.66 44.895 171.647ZM196.749 150.961C192.583 148.024 188.182 145.349 183.667 143.012L184.865 140.695C189.485 143.086 193.989 145.823 198.251 148.828L196.749 150.961ZM67.1869 150.85L65.7076 148.7C69.9666 145.765 74.5082 143.095 79.2064 140.764L80.3649 143.102C75.7768 145.378 71.3434 147.984 67.1869 150.85ZM94.4997 137.253L93.6658 134.781C98.5073 133.146 103.587 131.778 108.763 130.717L109.286 133.273C104.215 134.313 99.2399 135.652 94.4997 137.253ZM169.622 136.926C164.826 135.228 159.864 133.849 154.873 132.824L155.396 130.269C160.504 131.317 165.583 132.728 170.492 134.466L169.622 136.926ZM124.453 131.048L124.215 128.45C126.825 128.21 129.508 128.035 132.19 127.929C134.727 127.899 137.357 128.012 139.884 128.178L139.713 130.783C137.242 130.62 134.728 130.537 132.241 130.537C129.656 130.641 127.019 130.813 124.453 131.048Z" fill="white"/>
<path d="M45.4627 349.491C64.9017 349.491 80.6602 333.72 80.6602 314.265C80.6602 294.81 64.9017 279.039 45.4627 279.039C26.0236 279.039 10.2651 294.81 10.2651 314.265C10.2651 333.72 26.0236 349.491 45.4627 349.491Z" fill="#0066FF"/>
<path d="M31.6875 302.453C31.6875 301.363 32.5932 300.479 33.7107 300.479H57.2148C58.3323 300.479 59.2381 301.363 59.2381 302.453V326.077C59.2381 327.168 58.3323 328.052 57.2148 328.052H33.7107C32.5932 328.052 31.6875 327.167 31.6875 326.077V302.453ZM40.1989 323.561V311.11H36.0646V323.561H40.1989ZM38.1326 309.409C39.5738 309.409 40.471 308.454 40.471 307.258C40.4451 306.036 39.5756 305.107 38.1602 305.107C36.7447 305.107 35.8201 306.038 35.8201 307.258C35.8201 308.454 36.7172 309.409 38.1051 309.409H38.1326ZM46.5837 323.561V316.607C46.5837 316.235 46.6113 315.863 46.7215 315.597C47.0194 314.854 47.6995 314.084 48.8429 314.084C50.3392 314.084 50.9367 315.225 50.9367 316.9V323.561H55.071V316.419C55.071 312.593 53.0323 310.815 50.3117 310.815C48.118 310.815 47.1348 312.021 46.5837 312.871V312.914H46.5562L46.5837 312.871V311.11H42.4512C42.5028 312.278 42.4512 323.561 42.4512 323.561H46.5837Z" fill="white"/>
<path d="M149.403 165.061C168.842 165.061 184.6 149.29 184.6 129.835C184.6 110.38 168.842 94.6086 149.403 94.6086C129.964 94.6086 114.205 110.38 114.205 129.835C114.205 149.29 129.964 165.061 149.403 165.061Z" fill="#0066FF"/>
<path fill-rule="evenodd" clip-rule="evenodd" d="M149.852 123.453C151.777 120.847 153.906 118.795 156.629 118.795C161.768 118.795 166.001 125.343 166.003 133.139C166.003 137.894 163.957 140.874 160.283 140.874C157.081 140.874 155.313 139.076 152.14 133.764L150.756 131.432L150.512 131.023C150.151 130.412 149.784 129.805 149.412 129.202L146.968 133.521C143.496 139.595 141.541 140.874 138.827 140.874C135.055 140.874 132.802 137.936 132.802 133.276C132.802 125.831 136.941 118.795 142.342 118.795C143.004 118.795 143.639 118.876 144.26 119.049C144.903 119.227 145.528 119.506 146.154 119.894C147.351 120.639 148.549 121.794 149.852 123.453ZM152.997 128.072C152.474 127.22 151.972 126.438 151.489 125.719L151.476 125.702C153.23 122.992 154.678 121.645 156.398 121.645C159.973 121.645 162.835 126.913 162.835 133.384C162.835 135.851 162.026 137.282 160.355 137.282C158.751 137.282 157.986 136.223 154.94 131.322L152.995 128.072H152.997ZM142.857 122.442C144.361 122.65 145.731 123.759 147.712 126.597C146.569 128.35 145.438 130.11 144.32 131.878C141.504 136.293 140.531 137.284 138.964 137.284C137.352 137.284 136.391 135.868 136.391 133.338C136.391 127.935 139.085 122.407 142.297 122.407C142.486 122.407 142.672 122.419 142.857 122.444V122.442Z" fill="white"/>
<path d="M36.1355 220.781C55.5746 220.781 71.333 205.009 71.333 185.554C71.333 166.099 55.5746 150.328 36.1355 150.328C16.6965 150.328 0.937988 166.099 0.937988 185.554C0.937988 205.009 16.6965 220.781 36.1355 220.781Z" fill="#0066FF"/>
<path d="M30.455 197.981C41.9879 197.981 48.2968 188.417 48.2968 180.137C48.2968 179.87 48.2968 179.598 48.2854 179.331C49.5137 178.441 50.5737 177.339 51.416 176.077C50.2686 176.584 49.0528 176.917 47.8079 177.067C49.1192 176.283 50.1013 175.049 50.5717 173.594C49.3397 174.325 47.9913 174.837 46.5854 175.11C44.2126 172.581 40.2406 172.456 37.7136 174.831C36.0817 176.364 35.3894 178.651 35.8967 180.833C30.8548 180.58 26.1569 178.198 22.9713 174.278C21.3118 177.147 22.1626 180.812 24.9158 182.655C23.9217 182.621 22.9494 182.354 22.0774 181.875V181.961C22.0809 184.946 24.1819 187.517 27.1047 188.113C26.5666 188.261 26.0107 188.335 25.4525 188.333C25.059 188.334 24.6663 188.297 24.2797 188.224C25.1012 190.779 27.4559 192.529 30.1379 192.576C27.9156 194.323 25.1706 195.271 22.3448 195.266C21.8469 195.268 21.3493 195.239 20.855 195.18C23.723 197.01 27.0537 197.982 30.455 197.981Z" fill="white"/>
<path d="M162.855 388.188C182.294 388.188 198.052 372.417 198.052 352.962C198.052 333.507 182.294 317.735 162.855 317.735C143.416 317.735 127.657 333.507 127.657 352.962C127.657 372.417 143.416 388.188 162.855 388.188Z" fill="#0066FF"/>
<path d="M162.855 337.938C158.781 337.938 158.269 337.956 156.668 338.028C155.068 338.103 153.977 338.354 153.022 338.726C152.02 339.103 151.113 339.695 150.363 340.46C149.6 341.21 149.009 342.118 148.631 343.121C148.26 344.075 148.007 345.168 147.933 346.764C147.862 348.37 147.843 348.881 147.843 352.963C147.843 357.042 147.862 357.553 147.933 359.155C148.008 360.755 148.26 361.846 148.631 362.802C149.016 363.79 149.528 364.628 150.363 365.463C151.197 366.299 152.033 366.814 153.02 367.197C153.977 367.569 155.066 367.822 156.665 367.895C158.267 367.967 158.777 367.985 162.855 367.985C166.933 367.985 167.441 367.967 169.044 367.895C170.64 367.82 171.734 367.569 172.689 367.197C173.691 366.819 174.598 366.228 175.347 365.463C176.182 364.628 176.694 363.79 177.079 362.802C177.448 361.846 177.702 360.755 177.777 359.155C177.848 357.553 177.867 357.042 177.867 352.961C177.867 348.881 177.848 348.37 177.777 346.766C177.702 345.168 177.448 344.075 177.079 343.121C176.701 342.118 176.11 341.21 175.347 340.46C174.597 339.695 173.69 339.103 172.688 338.726C171.731 338.354 170.639 338.101 169.042 338.028C167.439 337.956 166.931 337.938 162.851 337.938H162.855ZM161.51 340.646H162.857C166.865 340.646 167.34 340.659 168.922 340.732C170.385 340.798 171.181 341.044 171.71 341.248C172.41 341.521 172.911 341.847 173.436 342.373C173.962 342.899 174.286 343.399 174.558 344.101C174.765 344.629 175.009 345.425 175.074 346.89C175.148 348.473 175.163 348.948 175.163 352.958C175.163 356.967 175.148 357.444 175.074 359.027C175.009 360.492 174.763 361.287 174.558 361.816C174.318 362.469 173.934 363.058 173.434 363.542C172.909 364.068 172.41 364.393 171.708 364.665C171.183 364.872 170.387 365.116 168.922 365.183C167.34 365.255 166.865 365.272 162.857 365.272C158.849 365.272 158.372 365.255 156.79 365.183C155.327 365.116 154.533 364.872 154.004 364.665C153.352 364.425 152.762 364.041 152.277 363.542C151.778 363.058 151.393 362.467 151.151 361.814C150.947 361.287 150.701 360.49 150.635 359.025C150.564 357.442 150.549 356.967 150.549 352.954C150.549 348.943 150.564 348.469 150.635 346.886C150.703 345.421 150.947 344.625 151.153 344.095C151.425 343.395 151.752 342.893 152.277 342.368C152.803 341.842 153.302 341.517 154.004 341.245C154.533 341.038 155.327 340.794 156.79 340.726C158.175 340.662 158.712 340.644 161.51 340.642L161.51 340.646ZM170.869 343.14C169.874 343.14 169.068 343.947 169.068 344.942C169.068 345.938 169.874 346.745 170.869 346.745C171.864 346.745 172.671 345.938 172.671 344.942C172.671 343.947 171.864 343.14 170.869 343.14ZM162.857 345.247C158.599 345.18 155.094 348.581 155.027 352.842C154.961 357.103 158.358 360.612 162.616 360.678C162.696 360.679 162.777 360.679 162.857 360.678C167.115 360.612 170.512 357.103 170.446 352.842C170.381 348.674 167.021 345.312 162.857 345.247ZM162.857 347.953C165.621 347.952 167.862 350.193 167.863 352.959C167.865 355.726 165.625 357.969 162.861 357.97H162.857C160.093 357.97 157.852 355.728 157.852 352.961C157.852 350.195 160.093 347.953 162.857 347.953Z" fill="white"/>
</g>
<defs>
<clipPath id="clip0_329_56">
<rect width="624" height="500" fill="white"/>
</clipPath>
</defs>
</svg>
