<svg version="1.1" id="Layer_1" xmlns="http://www.w3.org/2000/svg" xmlns:xlink="http://www.w3.org/1999/xlink" x="0px" y="0px"
	 width="100%" viewBox="0 0 512 512" enable-background="new 0 0 512 512" xml:space="preserve">
<path fill="#000000" opacity="000000" stroke="none" 
	d="
M380.768982,1.315731 
	C423.812592,1.000000 466.625275,1.029792 509.437653,0.931821 
	C512.240601,0.925407 513.096558,1.273342 513.094543,4.434487 
	C512.987671,172.852859 512.982910,341.271332 513.117554,509.689697 
	C513.120361,513.208435 511.777924,513.035461 509.313568,513.034302 
	C424.188171,512.993164 339.062744,513.000000 253.468658,513.000000 
	C251.443924,510.140320 253.663589,509.191742 255.519562,508.139191 
	C280.787262,493.809601 305.776276,478.999908 330.869019,464.369324 
	C334.452026,462.280182 338.116211,460.333252 341.625305,458.107697 
	C347.785858,454.200470 350.623718,446.385956 348.270935,438.786438 
	C348.578278,433.201660 345.043060,430.646423 341.233093,428.393951 
	C330.064453,421.790955 318.713501,415.501404 307.544220,408.899231 
	C304.570587,407.141541 301.189209,405.868195 299.218750,402.196503 
	C298.404480,387.162903 298.218353,372.518585 299.257996,357.450989 
	C299.544769,352.653046 303.308441,351.507935 306.197876,349.843689 
	C319.735321,342.046448 333.320221,334.327698 346.771545,326.385315 
	C360.070984,318.532654 374.092163,311.836792 386.560699,302.657715 
	C395.717102,295.916992 400.417419,286.338806 401.670044,275.065948 
	C403.678497,256.990753 402.193207,238.851212 402.694244,220.749054 
	C402.845215,215.294724 401.957458,209.780640 403.708710,204.049927 
	C405.009308,202.208038 406.634583,201.934784 408.324829,201.826874 
	C423.263855,200.873154 431.683472,191.236115 438.064911,179.162308 
	C440.308136,174.918121 441.733215,170.253433 441.794037,164.903870 
	C444.311188,149.655197 443.937042,134.767654 442.691528,119.453560 
	C441.487640,113.782745 438.453644,109.366165 435.940460,104.714645 
	C425.503967,85.398346 415.011078,66.112465 404.732666,46.711189 
	C404.033691,45.391804 403.370880,44.038651 403.115692,42.150391 
	C403.320862,35.150631 402.840332,28.572809 401.906342,22.035488 
	C401.440369,18.774023 399.847870,16.110849 396.512939,14.275629 
	C392.752258,10.344982 387.523987,9.607745 383.665161,6.576705 
	C382.007629,5.274749 379.874939,4.363537 380.768982,1.315731 
z"/>
<path fill="#000000" opacity="000000" stroke="none" 
	d="
M229.227814,512.667358 
	C154.529449,513.000000 80.058861,512.972351 5.588477,513.084717 
	C2.007681,513.090088 0.889896,512.543396 0.892833,508.591827 
	C1.017542,340.824921 1.012655,173.057938 0.912645,5.290991 
	C0.910565,1.802106 1.483360,0.889741 5.205814,0.893732 
	C125.491341,1.022684 245.777023,1.000000 366.531342,1.000000 
	C368.868225,4.469234 366.264984,5.773275 363.964813,7.151219 
	C349.546967,15.788366 334.902557,24.036430 320.351532,32.443989 
	C291.099609,49.345722 261.837646,66.230141 232.578491,83.119400 
	C203.027847,100.176926 173.459198,117.203690 143.910721,134.265015 
	C126.617287,144.250275 109.239944,154.093460 92.067032,164.284103 
	C78.140297,172.548416 71.367767,185.065964 71.357697,201.162567 
	C71.307182,281.933075 71.395813,362.703766 71.226944,443.473907 
	C71.211670,450.777557 73.745522,455.635315 80.309471,458.490906 
	C83.983009,460.089050 86.445175,463.672974 90.876678,464.700562 
	C96.932999,468.920380 102.356346,467.668030 107.967033,464.371368 
	C126.032768,453.756409 144.176529,443.273682 162.388062,432.909912 
	C164.790558,431.542664 167.045197,429.521545 170.521912,430.708466 
	C172.719437,433.025330 172.255066,435.635193 172.283417,438.071381 
	C172.401489,448.215607 172.408859,458.362427 172.305313,468.505920 
	C172.244659,474.447693 174.640457,478.389191 179.898422,481.371826 
	C195.363708,490.144562 210.683884,499.174957 226.146957,507.955658 
	C227.840424,508.917328 229.891373,509.716187 229.227814,512.667358 
z"/>
<path fill="#8493A6" opacity="1.000000" stroke="none" 
	d="
M91.246048,466.729431 
	C84.433296,463.471466 77.389557,460.710205 71.891411,455.389221 
	C69.877754,453.440399 68.966644,451.217102 68.968140,448.363800 
	C69.012047,364.417877 68.753746,280.470459 69.235657,196.527267 
	C69.322151,181.460297 77.692551,169.696442 90.941811,162.041367 
	C119.896118,145.312241 148.947144,128.750397 177.890030,112.001648 
	C204.144821,96.808456 230.269150,81.389793 256.525208,66.198792 
	C277.431641,54.102936 298.453156,42.205944 319.417633,30.210283 
	C334.704498,21.463287 349.990082,12.713877 365.243317,3.908518 
	C366.198792,3.356935 366.867554,2.308710 367.334869,1.245773 
	C371.356903,1.000000 375.713806,1.000000 380.535339,1.000000 
	C380.055084,1.495973 380.526337,2.142279 381.042389,2.403436 
	C386.415710,5.122600 391.111084,9.045554 396.919830,11.572783 
	C396.802429,12.736587 396.251587,13.565072 395.455902,13.665323 
	C383.858459,15.126520 375.251312,22.804832 365.657776,28.252478 
	C331.776703,47.491726 298.087250,67.070007 264.361816,86.582413 
	C229.481812,106.762802 194.546555,126.847557 159.687286,147.063873 
	C143.699966,156.335587 127.681938,165.554749 111.681641,174.804337 
	C97.815842,182.820023 90.391411,194.680847 90.374695,210.723618 
	C90.290329,291.705902 90.371475,372.688324 90.234772,453.670410 
	C90.227417,458.027710 91.904327,462.090485 91.246048,466.729431 
z"/>
<path fill="#8493A5" opacity="1.000000" stroke="none" 
	d="
M229.468628,513.000000 
	C230.266769,512.087830 229.001633,511.446899 228.575790,511.256775 
	C210.064331,502.990265 193.516724,491.190674 175.634216,481.784943 
	C171.717621,479.724945 169.950806,475.617096 169.976822,470.920898 
	C170.048767,457.937286 169.999298,444.953003 169.987930,431.502686 
	C170.772690,426.329498 174.414307,423.904694 180.924011,424.233368 
	C183.714828,426.433105 183.272659,429.243042 183.305344,431.807800 
	C183.458847,443.851837 183.366913,455.897491 183.382385,468.351196 
	C183.884293,470.261719 184.890549,471.236877 186.273895,472.017700 
	C199.019119,479.212006 211.572464,486.752380 224.366684,493.846191 
	C235.303970,499.910400 246.909897,499.910278 257.810089,493.757599 
	C278.080627,482.315796 298.078583,470.390625 318.178925,458.647827 
	C325.500275,454.370605 332.825378,450.088593 340.209259,445.932922 
	C344.075775,443.756836 346.553406,440.226410 350.414734,437.836945 
	C350.837250,441.543701 351.117096,445.215363 350.901886,448.857788 
	C350.489197,455.842651 345.307556,458.971069 339.961487,462.071960 
	C317.818329,474.915741 295.770721,487.924347 273.627014,500.767273 
	C266.628601,504.826202 259.440094,508.557404 252.669296,512.719238 
	C245.312424,513.000000 237.624832,513.000000 229.468628,513.000000 
z"/>
<path fill="#E7ECEE" opacity="1.000000" stroke="none" 
	d="
M180.355316,424.686279 
	C176.774139,426.617157 173.559647,428.539154 170.161591,430.748779 
	C155.557999,439.341248 141.134933,447.640900 126.719269,455.953339 
	C120.143196,459.745300 113.510635,463.446320 107.035912,467.404846 
	C101.783043,470.616333 96.668282,470.978973 91.192383,467.355377 
	C88.248558,463.222260 87.673996,458.941711 87.678627,454.302216 
	C87.758293,374.477600 87.885933,294.652405 87.630409,214.828522 
	C87.566925,194.997772 95.755569,181.011368 112.882561,171.163193 
	C203.576630,119.013214 294.130890,66.620033 384.697418,14.248570 
	C388.362091,12.129422 392.077057,11.360239 396.621582,11.893738 
	C403.109100,14.298112 404.584076,19.485134 404.835754,25.172825 
	C405.070618,30.480858 404.876984,35.807846 404.804016,41.594555 
	C402.503418,42.696194 401.350372,41.260754 400.320404,39.695301 
	C399.592438,38.588791 399.051025,37.366169 398.336761,36.246204 
	C393.555267,28.748775 395.537689,27.590364 385.716431,33.351357 
	C370.708923,42.154514 355.572784,50.737774 340.660706,59.704155 
	C339.515656,60.392651 338.271545,60.849129 336.678619,61.387161 
	C316.603333,72.867348 296.992065,84.447563 277.035400,96.145134 
	C257.543365,108.148285 238.037415,119.416916 218.023544,130.528351 
	C197.692291,141.715973 178.268723,153.758133 158.021027,165.090057 
	C146.842773,172.966415 134.952454,178.961456 123.565742,185.792572 
	C117.155334,189.638306 110.645866,193.328308 104.169197,197.067703 
	C102.479622,198.043213 101.372871,199.367996 100.501373,201.500992 
	C99.111465,205.488907 100.489891,209.086655 100.452011,212.710297 
	C100.286720,228.521988 100.395927,244.336411 100.318802,260.625122 
	C100.425613,274.901703 100.244217,288.705719 100.459587,302.504059 
	C100.534508,307.304352 98.639488,312.055115 100.370270,317.278656 
	C100.110718,352.444336 100.456749,387.193268 100.346931,421.941345 
	C100.345879,422.273956 100.345154,422.606628 100.350250,422.939209 
	C100.445175,429.124176 101.635330,429.842987 106.969421,426.707886 
	C129.178802,413.654388 151.593201,400.955963 174.249207,387.923523 
	C182.455490,383.240814 190.206985,378.528839 198.100296,374.050385 
	C210.635696,366.938110 223.015228,359.552063 235.966705,352.443909 
	C246.947067,345.555511 258.028748,339.543915 268.939789,333.246246 
	C294.558563,318.459625 320.167755,303.656036 345.814880,288.918304 
	C357.629608,282.129181 369.496735,275.427612 381.574646,268.354248 
	C388.326691,265.470276 392.829742,261.533112 391.707031,253.626602 
	C391.057404,249.051956 393.401764,244.462112 391.817474,239.409851 
	C391.818146,226.171661 391.039154,213.342896 392.352600,200.112244 
	C396.454529,197.127701 400.868622,198.384979 404.873047,203.644501 
	C404.899048,224.719330 405.172516,245.345139 404.731842,265.955688 
	C404.581818,272.973480 404.044128,280.041962 401.163635,286.927521 
	C397.135681,296.555969 390.775238,303.764709 382.028839,308.873444 
	C360.876007,321.228638 339.359039,332.954468 318.496918,345.817688 
	C312.880005,349.280975 306.902130,352.158844 300.913452,355.626404 
	C298.383514,360.444916 293.672180,361.896484 289.715179,364.165070 
	C255.651733,383.694122 221.774963,403.546417 187.695694,423.047668 
	C185.501892,424.303070 183.421844,425.730408 180.355316,424.686279 
z"/>
<path fill="#E7ECEF" opacity="1.000000" stroke="none" 
	d="
M350.832062,437.504272 
	C349.210388,442.564728 345.843323,445.398621 341.630737,447.825134 
	C314.660431,463.360504 287.787231,479.064606 260.894806,494.735077 
	C247.445908,502.571869 234.106842,502.432068 220.708542,494.530304 
	C209.525070,487.934784 198.225876,481.535736 187.003418,475.005920 
	C185.295853,474.012390 183.726303,472.781616 181.987366,471.326233 
	C182.634186,468.601318 184.425949,467.289917 186.518509,466.071564 
	C219.673279,446.768402 253.037613,427.827271 286.130890,408.417786 
	C288.851166,406.822327 291.611053,405.284576 294.376526,403.767761 
	C296.223480,402.754761 298.116394,401.401794 300.758881,402.778625 
	C308.109863,405.894073 314.296631,410.332306 320.869781,414.076355 
	C328.846649,418.619934 336.673828,423.426300 344.652557,427.966492 
	C348.312103,430.048950 350.459564,432.945312 350.832062,437.504272 
z"/>
<path fill="#F43835" opacity="1.000000" stroke="none" 
	d="
M335.473206,60.292908 
	C354.475861,48.968380 373.301788,37.999779 392.053955,26.906443 
	C394.386627,25.526474 395.440704,25.941790 396.632172,28.223381 
	C399.012329,32.781143 401.652710,37.203011 404.460815,41.871803 
	C409.562408,50.908234 414.431519,59.730865 419.205841,68.604477 
	C427.755066,84.494102 436.247192,100.414452 444.804199,116.674774 
	C444.654755,117.473381 444.449982,117.912437 444.014343,118.638992 
	C439.931488,124.073112 433.891327,126.074318 428.666809,129.177002 
	C417.234283,135.966446 405.694183,142.578018 394.231903,149.320724 
	C391.814331,150.742874 389.445251,152.408447 386.038574,152.066925 
	C380.000458,148.499008 378.400330,142.146164 375.447815,136.893219 
	C362.405365,113.688820 349.550781,90.377380 336.604156,67.117981 
	C335.483795,65.105156 334.027557,63.123970 335.473206,60.292908 
z"/>
<path fill="#C8CED6" opacity="1.000000" stroke="none" 
	d="
M301.022949,402.501617 
	C281.172455,414.340973 261.255951,425.699829 241.361679,437.097504 
	C221.758499,448.328461 202.177856,459.598785 182.234573,470.921844 
	C180.508957,466.265747 181.430069,461.431366 181.224442,456.650757 
	C180.776154,446.228546 182.007721,435.770203 180.281860,425.030853 
	C218.950012,402.266083 257.910156,379.834869 296.879913,357.420319 
	C297.877350,356.846588 298.980286,356.456268 300.385468,355.963867 
	C300.813507,371.310913 300.890076,386.674500 301.022949,402.501617 
z"/>
<path fill="#C40141" opacity="1.000000" stroke="none" 
	d="
M385.737000,151.292511 
	C405.186584,140.062195 424.251801,129.097961 443.658020,118.050827 
	C445.078308,122.886375 444.416473,127.868515 444.459534,132.815994 
	C444.553528,143.613602 444.573822,154.413406 444.239746,165.661102 
	C444.015533,182.182129 425.262604,206.990768 405.363770,204.067352 
	C401.447510,202.422089 397.614288,201.502182 394.252136,198.808624 
	C391.394318,199.276962 389.609589,197.809341 388.756287,195.917450 
	C387.413177,192.939728 385.182953,190.486526 384.047638,186.958939 
	C383.727386,175.415237 382.732147,164.302139 384.708252,152.792084 
	C385.017365,152.084122 385.184967,151.821335 385.737000,151.292511 
z"/>
<path fill="#CD133C" opacity="1.000000" stroke="none" 
	d="
M444.383301,165.846558 
	C444.024170,150.377335 444.012512,134.644455 443.999908,118.439743 
	C444.141235,117.720711 444.314667,117.497765 444.682251,117.163345 
	C444.807037,133.212692 444.768921,149.397797 444.383301,165.846558 
z"/>
<path fill="#5CBEFE" opacity="1.000000" stroke="none" 
	d="
M176.306198,388.803406 
	C155.058884,401.471100 133.916519,413.761658 112.771660,426.047913 
	C109.749237,427.804138 106.718330,429.545868 103.684746,431.282776 
	C98.025856,434.522736 98.017281,434.519226 98.016060,427.753052 
	C98.012535,408.104340 98.012489,388.455597 98.015465,368.806885 
	C98.017929,352.488495 98.026619,336.170105 98.090775,319.380615 
	C100.356934,304.928223 106.245750,292.100250 110.754257,278.842529 
	C111.644691,276.224121 112.415291,273.448090 114.994362,271.294861 
	C117.719719,269.994690 119.749329,270.913666 121.865776,272.082520 
	C130.552048,276.879639 139.020782,282.028870 147.680389,287.615112 
	C148.260834,287.912842 148.473526,288.069702 148.926239,288.543182 
	C150.337631,290.989777 150.294586,293.328979 150.310638,295.649933 
	C150.363419,303.278717 150.468613,310.911255 150.298874,318.535767 
	C150.111298,326.962585 153.297577,333.563171 160.786346,337.400085 
	C168.279694,341.239319 175.840683,340.470123 183.046265,336.055695 
	C186.189026,334.130371 188.659546,331.410065 191.551163,329.191864 
	C192.626343,328.367126 193.622208,327.538055 195.449249,327.637268 
	C198.126266,329.255829 197.792953,331.458740 197.074829,333.530762 
	C191.096390,350.780518 185.148590,368.042358 178.536285,385.064117 
	C178.051163,386.312958 177.071136,387.273621 176.306198,388.803406 
z"/>
<path fill="#5DBEFF" opacity="1.000000" stroke="none" 
	d="
M386.079254,186.786530 
	C387.896637,191.077286 390.057343,195.027878 393.767944,198.372177 
	C393.843933,212.165848 393.759247,225.693787 393.556061,239.685516 
	C392.266357,247.826248 389.850647,255.136856 387.059265,262.355743 
	C385.969696,265.173615 384.553497,267.694733 382.216003,270.128052 
	C360.473206,283.004181 338.910461,295.571625 317.296753,308.050903 
	C290.778595,323.361938 264.217865,338.599243 237.327087,353.913086 
	C234.724960,352.404541 235.106583,350.350800 235.838287,348.189026 
	C241.422165,331.691681 247.608475,315.409058 253.350006,298.968231 
	C254.067078,296.914886 255.841309,295.424255 256.245514,292.852234 
	C256.232208,292.225098 256.210236,291.974670 256.131775,291.348267 
	C256.054016,290.463562 256.083740,289.957794 256.233643,289.081238 
	C260.280518,281.804077 263.388702,274.572662 264.782623,266.283173 
	C265.938934,264.041412 267.367981,262.546967 269.525146,261.290771 
	C271.554504,261.170380 272.672516,262.160400 273.813812,263.162506 
	C285.515778,273.437042 295.612335,273.167206 307.370972,262.886292 
	C318.039673,253.558380 323.042542,241.656830 324.638153,227.954224 
	C324.828522,226.319214 324.760132,224.588623 326.296356,223.013275 
	C329.084625,222.034103 330.313599,223.670288 331.300232,225.450546 
	C337.379456,236.419998 352.496246,240.439850 365.259186,229.803635 
	C376.851440,220.143036 383.360260,207.970001 383.751984,192.717377 
	C383.806000,190.615280 383.488464,188.295135 386.079254,186.786530 
z"/>
<path fill="#E3E2E2" opacity="1.000000" stroke="none" 
	d="
M385.910065,150.747284 
	C386.121399,151.026459 386.008972,151.499115 385.929871,151.728790 
	C383.336029,156.711868 378.401306,158.424301 374.194397,160.893616 
	C360.481720,168.942398 346.716949,176.905167 332.950073,184.862732 
	C330.883392,186.057343 328.880096,187.111237 326.048553,186.299194 
	C322.337921,184.455551 321.118286,181.015915 319.456696,178.040375 
	C305.883240,153.733383 292.584564,129.273880 278.986267,104.979752 
	C277.351959,102.059982 274.760223,99.295219 275.830170,95.109924 
	C279.849548,90.408066 285.353180,88.558617 290.127625,85.678024 
	C304.179199,77.200211 318.469147,69.117256 332.679199,60.902950 
	C333.381409,60.497032 334.210571,60.310757 335.326538,59.998669 
	C348.222046,82.763397 360.759888,105.558159 373.327942,128.336227 
	C377.410828,135.735962 381.572876,143.092041 385.910065,150.747284 
z"/>
<path fill="#E3E2E2" opacity="1.000000" stroke="none" 
	d="
M156.813446,164.296143 
	C159.656082,160.534119 163.748718,159.228943 167.294342,157.156174 
	C183.482559,147.692581 199.457520,137.855713 216.386017,129.018250 
	C218.508667,129.836823 219.993332,130.904663 221.047684,132.800201 
	C236.129608,159.914734 251.027451,187.131317 266.161682,214.216812 
	C267.048248,215.803482 267.919067,217.453735 267.434998,219.780121 
	C266.311554,223.152740 263.988159,224.922974 261.346588,226.444534 
	C245.986160,235.292221 230.681366,244.235535 215.400497,253.220032 
	C212.992752,254.635681 210.609329,256.327240 207.161163,255.357407 
	C201.574600,252.811615 200.457245,247.274490 198.022125,242.935318 
	C184.614807,219.044479 171.408447,195.039993 158.025772,171.133926 
	C156.921371,169.161072 155.413956,167.147324 156.813446,164.296143 
z"/>
<path fill="#F43935" opacity="1.000000" stroke="none" 
	d="
M266.418518,220.096405 
	C253.959717,197.479660 241.697281,175.187515 229.447525,152.888428 
	C225.204010,145.163635 220.991974,137.421524 216.742950,129.313232 
	C236.255203,117.607071 255.790054,106.274994 275.680725,94.870651 
	C292.630981,124.681313 309.225494,154.564240 326.010376,184.747162 
	C326.519958,185.462708 326.698517,185.931595 326.672455,186.829514 
	C322.747284,191.783661 317.205963,193.942551 312.252380,196.856430 
	C299.659515,204.263992 287.046753,211.643829 274.337830,218.853271 
	C272.366028,219.971832 270.476898,221.569656 267.563324,221.032959 
	C267.011932,220.738480 266.815887,220.578384 266.418518,220.096405 
z"/>
<path fill="#F43835" opacity="1.000000" stroke="none" 
	d="
M156.654541,164.029816 
	C173.551239,193.831314 190.099869,223.689636 206.876160,253.814453 
	C207.435776,254.493530 207.625412,254.963425 207.607620,255.870178 
	C202.436050,261.990265 195.243408,264.618774 188.899719,268.442535 
	C177.387283,275.381866 165.715973,282.070770 154.065842,288.786591 
	C152.111099,289.913422 150.269150,290.938629 147.715500,289.394012 
	C147.339615,289.368835 147.081192,289.295898 147.037506,289.168945 
	C141.206223,284.186951 138.352463,277.332001 134.900589,270.944305 
	C124.307892,251.342529 113.769112,231.711380 102.986557,212.213364 
	C100.780243,208.223679 99.470634,203.982285 98.312805,199.260559 
	C98.284592,196.981155 100.074486,196.772720 101.266724,196.077026 
	C119.595055,185.382263 137.954376,174.740616 156.654541,164.029816 
z"/>
<path fill="#34AEFF" opacity="1.000000" stroke="none" 
	d="
M257.612793,290.732727 
	C257.313660,297.614319 254.180618,303.582336 252.013748,309.830353 
	C247.270569,323.507080 242.248184,337.086914 237.371307,350.717560 
	C237.097122,351.483917 237.106995,352.351898 236.981659,353.565155 
	C225.709503,360.600006 214.463318,367.281677 203.163742,373.871857 
	C194.431732,378.964478 185.632812,383.942413 176.532837,389.076660 
	C174.532410,385.996521 176.812042,383.440369 177.741974,380.787384 
	C183.384033,364.691010 189.216461,348.661438 194.959396,332.600281 
	C195.402802,331.360199 195.647385,330.048981 195.874084,328.008057 
	C195.684967,326.993683 195.606171,326.742126 195.510773,326.096985 
	C196.302643,322.067291 199.154785,319.530212 200.570572,316.191895 
	C202.965210,310.545502 204.511383,304.734314 205.182709,298.635956 
	C205.373505,296.902740 205.626160,295.028534 206.995758,293.225952 
	C208.879028,292.001770 210.130707,292.763977 211.273788,293.850983 
	C211.877106,294.424713 212.251129,295.196564 212.787506,295.834534 
	C222.821182,307.768005 235.540894,308.578033 247.150726,298.000580 
	C248.997528,296.317993 250.679398,294.459930 252.520401,292.769440 
	C253.864380,291.535309 255.148605,290.124268 257.612793,290.732727 
z"/>
<path fill="#C40142" opacity="1.000000" stroke="none" 
	d="
M98.104210,199.392349 
	C105.832153,211.030731 112.046333,223.942581 118.934715,236.479156 
	C128.389023,253.685623 137.563828,271.045654 146.926117,288.690948 
	C136.910660,283.320831 126.827499,277.599670 116.398155,271.772034 
	C108.540443,271.306091 102.917679,267.603821 98.354675,261.422760 
	C98.144714,240.683456 98.088829,220.274628 98.104210,199.392349 
z"/>
<path fill="#35AEFE" opacity="1.000000" stroke="none" 
	d="
M98.144073,261.551636 
	C104.022385,264.442993 109.844170,267.793671 115.858971,271.404968 
	C111.131699,285.287598 106.231995,298.917145 101.268753,312.523468 
	C100.532486,314.541901 99.496498,316.450989 98.374084,318.660065 
	C98.128510,299.943298 98.108025,280.977142 98.144073,261.551636 
z"/>
<path fill="#C9CFD7" opacity="1.000000" stroke="none" 
	d="
M259.050873,354.368896 
	C260.246216,350.973145 261.871368,348.255707 263.935730,345.848145 
	C266.052917,343.378845 268.885010,342.259796 272.005676,343.343689 
	C275.092285,344.415741 276.047729,347.243896 275.920532,350.217590 
	C275.639252,356.795166 273.362793,362.597534 268.099030,366.794800 
	C266.178802,368.325989 263.826355,369.557404 261.188263,367.996979 
	C258.754791,366.557556 258.102570,364.237946 258.015747,361.622559 
	C257.937958,359.278168 258.057434,356.965912 259.050873,354.368896 
z"/>
<path fill="#36AFFF" opacity="1.000000" stroke="none" 
	d="
M382.399902,270.336060 
	C385.093994,260.266052 388.403229,250.155472 393.180664,240.316498 
	C393.510254,247.059235 393.524689,253.970551 393.688690,260.878296 
	C393.742462,263.143280 392.900696,264.567291 390.910858,265.597412 
	C388.137390,267.033203 385.459869,268.654449 382.399902,270.336060 
z"/>
<path fill="#C8CED6" opacity="1.000000" stroke="none" 
	d="
M325.648987,187.185242 
	C325.997559,186.393570 326.062347,186.010025 326.163940,185.336807 
	C332.661896,183.534698 337.648407,179.170334 343.264282,176.062729 
	C357.338867,168.274338 371.214233,160.125885 385.510132,152.040161 
	C386.018402,163.284805 386.186096,174.611145 386.396057,186.311630 
	C385.385864,191.585571 386.284637,196.593719 385.253143,201.567047 
	C382.625824,214.234955 376.103851,224.343307 366.013824,232.140594 
	C351.387695,243.443329 335.930695,239.809845 327.302490,223.109695 
	C324.948944,221.966064 324.145660,220.044724 324.009460,218.076614 
	C323.379608,208.976929 323.370850,199.863861 323.989105,190.758530 
	C324.069305,189.577011 324.759186,188.585526 325.648987,187.185242 
z"/>
<path fill="#C40141" opacity="1.000000" stroke="none" 
	d="
M208.316650,292.597198 
	C207.468750,305.012665 204.784805,316.413727 197.071320,326.551483 
	C196.774719,327.150330 196.564606,327.409790 196.165741,327.838959 
	C195.999451,328.026855 196.015930,328.014954 196.020966,328.004456 
	C192.039124,331.966949 188.033524,335.910950 183.143372,338.815979 
	C167.061523,348.369446 148.282913,337.151855 147.861832,321.082123 
	C147.592590,310.806671 147.551071,300.525269 147.373535,289.807678 
	C159.085098,283.870331 169.805984,276.560974 181.096283,270.257019 
	C189.496368,265.566864 197.827530,260.753235 206.534271,255.906662 
	C208.687073,256.593903 209.047501,258.210449 209.150589,259.901337 
	C209.764053,269.963409 208.949997,280.055908 209.770203,290.116699 
	C209.838547,290.955017 209.263184,291.665710 208.316650,292.597198 
z"/>
<path fill="#C8CED6" opacity="1.000000" stroke="none" 
	d="
M208.207718,293.080811 
	C206.166946,280.893372 207.447418,268.819550 206.945343,256.303711 
	C206.933960,255.433731 206.988785,255.048752 207.073730,254.372345 
	C214.180511,252.647552 219.512299,247.788528 225.596848,244.459106 
	C237.421951,237.988510 248.958954,230.989456 260.576477,224.143478 
	C262.421906,223.056015 264.065033,221.625198 266.009399,220.063828 
	C266.217163,219.774521 266.657684,219.929657 266.862549,220.041702 
	C269.588196,222.028748 269.250519,224.826340 269.327515,227.433029 
	C269.596710,236.544388 269.058044,245.666122 269.732208,255.256714 
	C269.603577,259.294556 267.441864,262.401276 267.259888,266.448730 
	C265.477936,274.907593 263.068451,282.603546 258.119110,289.669800 
	C258.132355,290.173828 258.258453,290.352295 258.159119,290.768768 
	C257.933746,291.006775 258.000488,290.948517 257.973145,290.914062 
	C255.000824,293.752686 252.181442,296.769287 249.089523,299.474426 
	C234.125320,312.566620 219.234344,310.257141 208.207718,293.080811 
z"/>
<path fill="#C40141" opacity="1.000000" stroke="none" 
	d="
M267.346069,256.665710 
	C267.155121,244.594818 267.083313,232.825897 267.039490,220.605377 
	C283.822906,210.476746 300.570618,200.786285 317.341919,191.136856 
	C319.917145,189.655197 322.601105,188.362549 325.583771,186.879807 
	C326.671661,198.531998 325.233154,210.344254 326.950623,222.481659 
	C326.757690,240.932785 320.744812,256.277863 305.774139,267.226990 
	C292.674713,276.807526 280.244476,275.066589 269.942139,262.176208 
	C267.385864,260.988495 267.774506,258.816528 267.346069,256.665710 
z"/>
<path fill="#3DA8F5" opacity="1.000000" stroke="none" 
	d="
M267.156342,256.788391 
	C268.021637,258.003937 268.816345,259.644135 269.677307,261.586731 
	C268.984619,263.398682 268.225677,264.908234 267.268250,266.653809 
	C267.075104,263.664246 267.080414,260.438629 267.156342,256.788391 
z"/>
<path fill="#34AEFF" opacity="1.000000" stroke="none" 
	d="
M258.031311,290.897095 
	C257.905334,290.835327 257.876892,290.663879 257.927368,290.243866 
	C258.228119,290.244171 258.268982,290.508179 258.031311,290.897095 
z"/>
<path fill="#5CBEFE" opacity="1.000000" stroke="none" 
	d="
M196.197769,327.868347 
	C196.155945,327.715698 196.312424,327.404510 196.715637,326.983002 
	C196.773590,327.151733 196.584839,327.430786 196.197769,327.868347 
z"/>
</svg>