<svg width="718" height="557" viewBox="0 0 718 557" fill="none" xmlns="http://www.w3.org/2000/svg">
<path d="M587.395 0H129.397C125.462 0.00625429 121.69 1.57215 118.908 4.35455C116.125 7.13695 114.56 10.9089 114.553 14.8438V323.902C114.557 327.838 116.122 331.611 118.905 334.394C121.688 337.177 125.462 338.742 129.397 338.746H587.395C591.33 338.742 595.104 337.177 597.887 334.394C600.67 331.611 602.235 327.838 602.238 323.902V14.8438C602.232 10.9089 600.666 7.13693 597.884 4.35454C595.101 1.57215 591.329 0.00625426 587.395 0Z" fill="#E6E6E6"/>
<path d="M584.572 328.514H284.476C242.426 328.391 202.134 311.632 172.4 281.898C142.666 252.164 125.908 211.872 125.785 169.822V18.6763C125.786 16.4369 126.674 14.2891 128.256 12.7041C129.838 11.1191 131.984 10.2263 134.224 10.2217H584.572C586.811 10.2263 588.957 11.1191 590.539 12.7041C592.121 14.2891 593.01 16.4369 593.01 18.6763V320.075C593.008 322.312 592.118 324.457 590.536 326.039C588.954 327.621 586.809 328.511 584.572 328.514Z" fill="white"/>
<path d="M560.933 52.2475H139.545C139.107 52.2379 138.69 52.0571 138.383 51.7439C138.077 51.4307 137.905 51.0099 137.905 50.5717C137.905 50.1336 138.077 49.7128 138.383 49.3996C138.69 49.0864 139.107 48.9056 139.545 48.896H560.933C561.371 48.9056 561.788 49.0864 562.095 49.3996C562.401 49.7128 562.573 50.1336 562.573 50.5717C562.573 51.0099 562.401 51.4307 562.095 51.7439C561.788 52.0571 561.371 52.2379 560.933 52.2475Z" fill="#CACACA"/>
<path d="M168.229 40.3398C173.653 40.3398 178.05 35.8449 178.05 30.3003C178.05 24.7556 173.653 20.2607 168.229 20.2607C162.805 20.2607 158.408 24.7556 158.408 30.3003C158.408 35.8449 162.805 40.3398 168.229 40.3398Z" fill="#202020"/>
<path d="M202.155 40.3398C207.578 40.3398 211.975 35.8449 211.975 30.3003C211.975 24.7556 207.578 20.2607 202.155 20.2607C196.731 20.2607 192.334 24.7556 192.334 30.3003C192.334 35.8449 196.731 40.3398 202.155 40.3398Z" fill="#202020"/>
<path d="M236.081 40.3398C241.505 40.3398 245.902 35.8449 245.902 30.3003C245.902 24.7556 241.505 20.2607 236.081 20.2607C230.657 20.2607 226.26 24.7556 226.26 30.3003C226.26 35.8449 230.657 40.3398 236.081 40.3398Z" fill="#202020"/>
<path d="M426.516 202.89H255.868C252.781 202.929 249.793 201.798 247.506 199.724C245.22 197.649 243.804 194.785 243.544 191.709C243.437 190.136 243.641 188.557 244.145 187.063C244.648 185.569 245.441 184.188 246.478 183C247.515 181.813 248.775 180.841 250.188 180.14C251.6 179.439 253.137 179.024 254.71 178.917C254.979 178.899 255.247 178.89 255.516 178.89H426.516C429.699 178.89 432.751 180.154 435.002 182.404C437.252 184.655 438.516 187.707 438.516 190.89C438.516 194.072 437.252 197.124 435.002 199.375C432.751 201.625 429.699 202.89 426.516 202.89Z" fill="#0066FF"/>
<path d="M426.832 135.683C432.82 135.683 437.674 130.829 437.674 124.842C437.674 118.854 432.82 114 426.832 114C420.845 114 415.991 118.854 415.991 124.842C415.991 130.829 420.845 135.683 426.832 135.683Z" fill="#E6E6E6"/>
<path d="M425.353 130.484C425.166 130.484 424.981 130.44 424.814 130.357C424.647 130.273 424.501 130.151 424.389 130.002L421.431 126.058C421.335 125.931 421.265 125.787 421.225 125.633C421.185 125.479 421.176 125.319 421.198 125.162C421.22 125.005 421.273 124.853 421.354 124.716C421.434 124.579 421.541 124.46 421.668 124.365C421.796 124.269 421.94 124.2 422.094 124.161C422.248 124.122 422.408 124.113 422.566 124.136C422.723 124.159 422.874 124.213 423.01 124.294C423.147 124.376 423.266 124.483 423.36 124.611L425.295 127.191L430.265 119.736C430.442 119.469 430.717 119.283 431.03 119.22C431.344 119.156 431.67 119.219 431.937 119.395C432.203 119.572 432.389 119.847 432.453 120.161C432.517 120.474 432.454 120.8 432.277 121.067L432.272 121.074L426.357 129.947C426.25 130.108 426.106 130.24 425.937 130.333C425.768 130.427 425.58 130.478 425.387 130.484L425.353 130.484Z" fill="white"/>
<path d="M426.832 267.683C432.82 267.683 437.674 262.829 437.674 256.841C437.674 250.854 432.82 246 426.832 246C420.845 246 415.991 250.854 415.991 256.841C415.991 262.829 420.845 267.683 426.832 267.683Z" fill="#E6E6E6"/>
<path d="M425.353 262.484C425.166 262.484 424.981 262.44 424.814 262.357C424.647 262.273 424.501 262.151 424.389 262.002L421.431 258.058C421.335 257.931 421.265 257.787 421.225 257.633C421.185 257.479 421.176 257.319 421.198 257.162C421.22 257.005 421.273 256.853 421.354 256.716C421.434 256.579 421.541 256.46 421.668 256.365C421.796 256.269 421.94 256.2 422.094 256.161C422.248 256.122 422.408 256.113 422.566 256.136C422.723 256.159 422.874 256.213 423.01 256.294C423.147 256.376 423.266 256.483 423.36 256.611L425.295 259.191L430.265 251.736C430.442 251.469 430.717 251.283 431.03 251.22C431.344 251.156 431.67 251.219 431.937 251.395C432.203 251.572 432.389 251.847 432.453 252.161C432.517 252.474 432.454 252.8 432.277 253.067L432.272 253.074L426.357 261.947C426.25 262.108 426.106 262.24 425.937 262.333C425.768 262.427 425.58 262.478 425.387 262.484L425.353 262.484Z" fill="white"/>
<path d="M339.516 136.89H255.868C252.781 136.929 249.793 135.798 247.506 133.724C245.22 131.649 243.804 128.785 243.544 125.709C243.437 124.136 243.641 122.557 244.145 121.063C244.648 119.569 245.441 118.188 246.478 117C247.515 115.813 248.775 114.841 250.188 114.14C251.6 113.439 253.137 113.024 254.71 112.917C254.979 112.899 255.247 112.89 255.516 112.89H339.516C342.699 112.89 345.751 114.154 348.002 116.404C350.252 118.655 351.516 121.707 351.516 124.89C351.516 128.072 350.252 131.124 348.002 133.375C345.751 135.625 342.699 136.89 339.516 136.89Z" fill="#0066FF"/>
<path d="M426.516 137.39H255.516C252.201 137.39 249.021 136.073 246.677 133.728C244.333 131.384 243.016 128.205 243.016 124.89C243.016 121.574 244.333 118.395 246.677 116.051C249.021 113.707 252.201 112.39 255.516 112.39H426.516C429.831 112.39 433.011 113.707 435.355 116.051C437.699 118.395 439.016 121.574 439.016 124.89C439.016 128.205 437.699 131.384 435.355 133.728C433.011 136.073 429.831 137.39 426.516 137.39ZM255.516 114.39C252.731 114.39 250.061 115.496 248.091 117.465C246.122 119.434 245.016 122.105 245.016 124.89C245.016 127.674 246.122 130.345 248.091 132.314C250.061 134.283 252.731 135.39 255.516 135.39H426.516C429.301 135.39 431.972 134.283 433.941 132.314C435.91 130.345 437.016 127.674 437.016 124.89C437.016 122.105 435.91 119.434 433.941 117.465C431.972 115.496 429.301 114.39 426.516 114.39H255.516Z" fill="#202020"/>
<path d="M426.516 203.39H255.516C252.201 203.39 249.021 202.073 246.677 199.728C244.333 197.384 243.016 194.205 243.016 190.89C243.016 187.574 244.333 184.395 246.677 182.051C249.021 179.707 252.201 178.39 255.516 178.39H426.516C429.831 178.39 433.011 179.707 435.355 182.051C437.699 184.395 439.016 187.574 439.016 190.89C439.016 194.205 437.699 197.384 435.355 199.728C433.011 202.073 429.831 203.39 426.516 203.39ZM255.516 180.39C252.731 180.39 250.061 181.496 248.091 183.465C246.122 185.434 245.016 188.105 245.016 190.89C245.016 193.674 246.122 196.345 248.091 198.314C250.061 200.283 252.731 201.39 255.516 201.39H426.516C429.301 201.39 431.972 200.283 433.941 198.314C435.91 196.345 437.016 193.674 437.016 190.89C437.016 188.105 435.91 185.434 433.941 183.465C431.972 181.496 429.301 180.39 426.516 180.39H255.516Z" fill="#202020"/>
<path d="M303.516 268.89H255.868C252.781 268.929 249.793 267.798 247.506 265.724C245.22 263.649 243.804 260.785 243.544 257.709C243.437 256.136 243.641 254.557 244.145 253.063C244.648 251.569 245.441 250.188 246.478 249C247.515 247.813 248.775 246.841 250.188 246.14C251.6 245.439 253.137 245.024 254.71 244.917C254.979 244.899 255.247 244.89 255.516 244.89H303.516C306.699 244.89 309.751 246.154 312.002 248.404C314.252 250.655 315.516 253.707 315.516 256.89C315.516 260.072 314.252 263.124 312.002 265.375C309.751 267.625 306.699 268.89 303.516 268.89Z" fill="#0066FF"/>
<path d="M426.516 269.39H255.516C252.201 269.39 249.021 268.073 246.677 265.728C244.333 263.384 243.016 260.205 243.016 256.89C243.016 253.574 244.333 250.395 246.677 248.051C249.021 245.707 252.201 244.39 255.516 244.39H426.516C429.831 244.39 433.011 245.707 435.355 248.051C437.699 250.395 439.016 253.574 439.016 256.89C439.016 260.205 437.699 263.384 435.355 265.728C433.011 268.073 429.831 269.39 426.516 269.39ZM255.516 246.39C252.731 246.39 250.061 247.496 248.091 249.465C246.122 251.434 245.016 254.105 245.016 256.89C245.016 259.674 246.122 262.345 248.091 264.314C250.061 266.283 252.731 267.39 255.516 267.39H426.516C429.301 267.39 431.972 266.283 433.941 264.314C435.91 262.345 437.016 259.674 437.016 256.89C437.016 254.105 435.91 251.434 433.941 249.465C431.972 247.496 429.301 246.39 426.516 246.39H255.516Z" fill="#202020"/>
<path d="M287.517 100H247.517C246.456 100 245.439 99.5786 244.689 98.8284C243.939 98.0783 243.517 97.0609 243.517 96C243.517 94.9391 243.939 93.9217 244.689 93.1716C245.439 92.4214 246.456 92 247.517 92H287.517C288.578 92 289.595 92.4214 290.346 93.1716C291.096 93.9217 291.517 94.9391 291.517 96C291.517 97.0609 291.096 98.0783 290.346 98.8284C289.595 99.5786 288.578 100 287.517 100Z" fill="#CCCCCC"/>
<path d="M287.517 166H247.517C246.456 166 245.439 165.579 244.689 164.828C243.939 164.078 243.517 163.061 243.517 162C243.517 160.939 243.939 159.922 244.689 159.172C245.439 158.421 246.456 158 247.517 158H287.517C288.578 158 289.595 158.421 290.346 159.172C291.096 159.922 291.517 160.939 291.517 162C291.517 163.061 291.096 164.078 290.346 164.828C289.595 165.579 288.578 166 287.517 166Z" fill="#CCCCCC"/>
<path d="M287.517 232H247.517C246.456 232 245.439 231.579 244.689 230.828C243.939 230.078 243.517 229.061 243.517 228C243.517 226.939 243.939 225.922 244.689 225.172C245.439 224.421 246.456 224 247.517 224H287.517C288.578 224 289.595 224.421 290.346 225.172C291.096 225.922 291.517 226.939 291.517 228C291.517 229.061 291.096 230.078 290.346 230.828C289.595 231.579 288.578 232 287.517 232Z" fill="#CCCCCC"/>
<path d="M227.528 100.861C229.929 100.861 231.875 98.8712 231.875 96.4172C231.875 93.9632 229.929 91.9739 227.528 91.9739C225.128 91.9739 223.182 93.9632 223.182 96.4172C223.182 98.8712 225.128 100.861 227.528 100.861Z" fill="#202020"/>
<path d="M227.528 166.861C229.929 166.861 231.875 164.871 231.875 162.417C231.875 159.963 229.929 157.974 227.528 157.974C225.128 157.974 223.182 159.963 223.182 162.417C223.182 164.871 225.128 166.861 227.528 166.861Z" fill="#202020"/>
<path d="M227.528 232.861C229.929 232.861 231.875 230.871 231.875 228.417C231.875 225.963 229.929 223.974 227.528 223.974C225.128 223.974 223.182 225.963 223.182 228.417C223.182 230.871 225.128 232.861 227.528 232.861Z" fill="#202020"/>
<path d="M513.946 544.191L504.045 544.19L499.335 506L513.948 506.001L513.946 544.191Z" fill="#FFB6B6"/>
<path d="M514.295 554.52L483.848 554.518V554.133C483.848 550.99 485.097 547.976 487.319 545.754C489.541 543.531 492.556 542.283 495.698 542.283L501.261 538.063L511.637 542.283L514.295 542.283L514.295 554.52Z" fill="#F3F2F2"/>
<path d="M552.946 544.191L543.045 544.19L538.335 506L552.948 506.001L552.946 544.191Z" fill="#FFB6B6"/>
<path d="M553.295 554.52L522.848 554.518V554.133C522.848 550.99 524.097 547.976 526.319 545.754C528.541 543.531 531.556 542.283 534.698 542.283L540.261 538.063L550.637 542.283L553.295 542.283L553.295 554.52Z" fill="#F3F2F2"/>
<path d="M479.875 305L472.875 329L481.121 430.645C481.121 430.645 476.875 437 479.875 437C482.875 437 486.721 438.409 484.298 442.205C481.874 446 490.158 459.626 490.158 459.626L501.875 532L516.804 531.78C516.804 531.78 524.394 527.551 520.134 523.276C515.875 519 512.875 519 516.875 515C520.875 511 520.875 512.205 520.875 509.102C520.875 506 524.882 468.087 515.378 453.543L518.242 394.248L524.987 452.409L538.875 530L553.256 529.882C553.256 529.882 559.899 523.479 559.887 518.739C559.874 514 555.783 513.606 558.828 510.803C561.874 508 561.875 464.937 552.875 441L552.943 333.929C552.943 333.929 561.786 309.898 552.83 300.449C543.874 291 479.875 305 479.875 305Z" fill="#202020"/>
<path d="M570.015 263.126L576.044 200.677C576.291 198.03 575.488 195.393 573.808 193.333C572.128 191.273 569.706 189.956 567.063 189.667C564.394 189.375 561.717 190.155 559.622 191.836C557.528 193.517 556.187 195.961 555.894 198.631C555.875 198.809 555.86 198.988 555.85 199.166L551.576 264.228L547.313 303.653C545.575 304.175 544.04 305.22 542.917 306.645C541.793 308.07 541.136 309.806 541.034 311.618C540.931 313.429 541.389 315.229 542.345 316.771C543.301 318.313 544.709 319.524 546.377 320.239C548.045 320.953 549.893 321.137 551.669 320.765C553.445 320.393 555.063 319.483 556.304 318.159C557.545 316.835 558.348 315.161 558.605 313.365C558.861 311.568 558.559 309.737 557.738 308.118L570.015 263.126Z" fill="#FFB6B6"/>
<path d="M547.407 169.022L569.129 171.745C569.129 171.745 585.405 202.424 582.055 205.027C578.705 207.631 563.567 223.874 552.407 216.428C541.246 208.982 547.407 169.022 547.407 169.022Z" fill="#0066FF"/>
<path d="M509.998 139.588C522.731 139.588 533.054 129.266 533.054 116.532C533.054 103.799 522.731 93.4766 509.998 93.4766C497.265 93.4766 486.942 103.799 486.942 116.532C486.942 129.266 497.265 139.588 509.998 139.588Z" fill="#FFB6B6"/>
<path d="M518.907 137.698C512.291 137.481 511.69 135.734 505.074 135.517C502.967 135.447 500.481 135.159 499.463 133.313C499.166 132.622 499.034 131.871 499.077 131.12C499.12 130.369 499.336 129.638 499.709 128.985C500.464 127.688 501.145 126.35 501.748 124.976C502.111 123.898 502.206 122.748 502.025 121.626C501.844 120.503 501.393 119.441 500.71 118.532C500.026 117.623 499.132 116.894 498.104 116.409C497.076 115.923 495.945 115.694 494.809 115.743C492.796 115.83 490.905 116.777 488.897 116.95C486.143 117.188 480.055 108.096 481.322 105.64C482.556 103.249 485.04 101.446 485.43 98.784C485.686 97.043 484.967 95.3132 484.869 93.5564C484.723 90.9515 491.326 96.825 490.117 94.5133C487.15 88.8423 515.104 81.8118 519.707 88.9152C521.427 91.57 524.492 91.3889 527.224 92.9833C529.015 94.0283 533.536 97.6334 534.564 99.8804C535.509 102.173 535.955 104.641 535.874 107.119C535.915 118.646 534.159 129.248 524.862 136.061" fill="#202020"/>
<path d="M503.874 146L522.874 142L537.468 149.02C537.468 149.02 571.987 162.905 571.869 176.596C571.752 190.287 565.685 220.287 558.719 223.287C551.752 226.287 564.752 236.287 560.752 242.287C556.752 248.287 550.693 289.278 550.693 289.278C550.693 289.278 564.858 317.496 552.874 323C540.89 328.504 490.245 333.649 486.998 326.468C483.752 319.287 483.722 323.206 476.237 321.247C468.752 319.287 476.245 291.815 482.998 289.051C489.752 286.287 493.752 226.287 493.752 226.287L482.998 179.634L499.406 156.539L503.874 146Z" fill="#0066FF"/>
<path d="M490.567 274.239L507.732 213.894C508.452 211.335 508.137 208.596 506.855 206.267C505.573 203.939 503.426 202.208 500.879 201.448C498.306 200.68 495.532 200.966 493.17 202.242C490.807 203.519 489.048 205.683 488.28 208.256C488.229 208.428 488.182 208.601 488.14 208.775L472.231 272.006L460.944 310.02C459.14 310.221 457.443 310.973 456.081 312.172C454.72 313.372 453.76 314.962 453.334 316.726C452.907 318.49 453.034 320.342 453.697 322.031C454.36 323.72 455.527 325.164 457.039 326.167C458.552 327.17 460.336 327.683 462.15 327.637C463.964 327.591 465.72 326.987 467.179 325.908C468.638 324.829 469.729 323.327 470.304 321.606C470.88 319.885 470.912 318.028 470.396 316.289L490.567 274.239Z" fill="#FFB6B6"/>
<path d="M485.258 177.603L506.136 184.19C506.136 184.19 519.715 204.13 514.632 206.975C509.548 209.82 507.641 209.218 510.252 214.236C512.863 219.254 516.627 217.296 512.863 219.254C509.099 221.213 491.286 234.467 481.647 225.135C472.009 215.802 485.258 177.603 485.258 177.603Z" fill="#0066FF"/>
<path d="M426.832 211.253C438.105 211.253 447.244 202.115 447.244 190.841C447.244 179.568 438.105 170.429 426.832 170.429C415.559 170.429 406.42 179.568 406.42 190.841C406.42 202.115 415.559 211.253 426.832 211.253Z" fill="#0066FF"/>
<path d="M424.047 201.465C423.695 201.465 423.347 201.383 423.032 201.225C422.717 201.068 422.443 200.839 422.231 200.557L416.663 193.132C416.301 192.65 416.146 192.044 416.231 191.448C416.317 190.852 416.635 190.314 417.117 189.953C417.599 189.592 418.204 189.437 418.8 189.522C419.396 189.607 419.934 189.925 420.295 190.407L423.939 195.264L433.296 181.229C433.628 180.727 434.146 180.377 434.736 180.257C435.326 180.136 435.94 180.256 436.442 180.588C436.944 180.92 437.294 181.438 437.414 182.028C437.535 182.618 437.416 183.232 437.083 183.734L437.074 183.748L425.937 200.454C425.735 200.756 425.464 201.005 425.147 201.181C424.829 201.357 424.474 201.454 424.111 201.464L424.047 201.465Z" fill="white"/>
</svg>
