<svg width="729" height="599" viewBox="0 0 729 599" fill="none" xmlns="http://www.w3.org/2000/svg">
<g clip-path="url(#clip0_329_180)">
<path d="M473.5 447.587C373.696 447.587 292.5 366.39 292.5 266.587C292.5 166.783 373.696 85.5867 473.5 85.5867C484.051 85.5854 494.583 86.4979 504.977 88.3142C505.107 88.3366 505.23 88.3843 505.342 88.4546C505.453 88.525 505.549 88.6165 505.625 88.7241C505.7 88.8317 505.754 88.9531 505.783 89.0815C505.811 89.2098 505.815 89.3426 505.792 89.4721C505.769 89.6017 505.721 89.7255 505.65 89.8364C505.58 89.9474 505.488 90.0433 505.38 90.1187C505.272 90.1941 505.151 90.2476 505.022 90.2759C504.894 90.3043 504.761 90.307 504.632 90.284C494.352 88.488 483.936 87.5855 473.5 87.5867C374.799 87.5867 294.5 167.885 294.5 266.587C294.5 365.288 374.799 445.587 473.5 445.587C572.201 445.587 652.5 365.288 652.5 266.587C652.544 221.975 635.886 178.962 605.805 146.018C605.628 145.822 605.536 145.563 605.549 145.299C605.562 145.035 605.679 144.787 605.874 144.609C606.069 144.431 606.327 144.338 606.591 144.349C606.855 144.36 607.104 144.476 607.283 144.67C637.7 177.983 654.545 221.476 654.5 266.587C654.5 366.39 573.304 447.587 473.5 447.587Z" fill="#E4E4E4"/>
<path d="M553.307 147.663C573.085 147.663 589.118 131.63 589.118 111.852C589.118 92.0744 573.085 76.0413 553.307 76.0413C533.529 76.0413 517.496 92.0744 517.496 111.852C517.496 131.63 533.529 147.663 553.307 147.663Z" fill="#0066FF"/>
<path d="M548.422 130.49C547.803 130.49 547.193 130.346 546.64 130.07C546.087 129.793 545.606 129.391 545.235 128.896L535.466 115.87C535.152 115.451 534.923 114.975 534.794 114.468C534.664 113.962 534.635 113.434 534.709 112.916C534.783 112.399 534.958 111.9 535.225 111.45C535.491 111 535.844 110.607 536.262 110.293C536.681 109.979 537.157 109.751 537.664 109.621C538.171 109.491 538.698 109.463 539.216 109.537C539.734 109.611 540.232 109.786 540.682 110.052C541.132 110.319 541.525 110.671 541.839 111.09L548.231 119.612L564.647 94.9874C565.235 94.112 566.146 93.5052 567.18 93.3C568.214 93.0949 569.287 93.3081 570.165 93.8929C571.042 94.4778 571.651 95.3866 571.86 96.4201C572.068 97.4537 571.858 98.5277 571.276 99.4068L551.737 128.716C551.383 129.246 550.908 129.684 550.35 129.992C549.793 130.301 549.169 130.471 548.533 130.489C548.496 130.489 548.459 130.49 548.422 130.49Z" fill="white"/>
<path d="M468.844 238.498L413.62 84.867L415.02 84.3635L404.864 56.1067L403.464 56.6106L386.508 9.44117C385.875 7.67944 384.9 6.05968 383.641 4.67439C382.382 3.28909 380.862 2.16539 379.169 1.36743C377.475 0.569467 375.641 0.112876 373.771 0.0237377C371.901 -0.0654003 370.032 0.214656 368.27 0.847911L268.438 36.7332C266.676 37.3664 265.056 38.3404 263.671 39.5996C262.286 40.8588 261.162 42.3785 260.364 44.072C259.566 45.7655 259.109 47.5996 259.02 49.4695C258.931 51.3395 259.211 53.2087 259.844 54.9705L271.666 87.8598L269.454 88.7119L277 108.309L278.772 107.627L280.339 111.986L278.454 112.712L286.001 132.309L287.444 131.753L342.18 284.027C342.81 285.791 343.783 287.413 345.041 288.8C346.3 290.188 347.82 291.313 349.515 292.111C351.209 292.91 353.044 293.366 354.915 293.453C356.786 293.54 358.656 293.258 360.418 292.621L460.25 256.736C463.805 255.453 466.707 252.813 468.318 249.394C469.929 245.975 470.118 242.056 468.844 238.498Z" fill="#202020"/>
<path d="M355.167 287.557C353.761 287.554 352.391 287.118 351.241 286.309C350.092 285.499 349.219 284.355 348.743 283.033L265.538 51.5588C264.926 49.8539 265.015 47.9755 265.787 46.3367C266.56 44.6979 267.951 43.4329 269.656 42.82L290.897 35.1847L290.865 35.9279C290.811 37.218 291.074 38.5017 291.633 39.6659C292.191 40.8301 293.028 41.8391 294.068 42.604C295.108 43.3688 296.321 43.8661 297.598 44.0521C298.876 44.238 300.18 44.1068 301.395 43.6701L348.536 26.7253C349.674 26.204 350.673 25.4221 351.452 24.4429C352.232 23.4638 352.77 22.3148 353.024 21.0891C353.274 19.8838 353.236 18.6363 352.913 17.4484C352.589 16.2606 351.99 15.166 351.163 14.2541L350.665 13.7009L372.606 5.81367C374.311 5.20338 376.189 5.29418 377.827 6.06617C379.465 6.83816 380.731 8.22832 381.345 9.93181L460.73 230.778C462.35 235.302 462.109 240.284 460.061 244.631C458.013 248.978 454.324 252.335 449.803 253.966L357.482 287.151C356.74 287.419 355.956 287.556 355.167 287.557Z" fill="white"/>
<path d="M347.033 123.377C361.945 123.377 374.033 111.289 374.033 96.3772C374.033 81.4655 361.945 69.3772 347.033 69.3772C332.122 69.3772 320.033 81.4655 320.033 96.3772C320.033 111.289 332.122 123.377 347.033 123.377Z" fill="#0066FF"/>
<path d="M413.939 135.641L320.437 169.251C320.145 169.357 319.835 169.404 319.525 169.39C319.215 169.376 318.91 169.3 318.629 169.168C318.348 169.036 318.096 168.85 317.887 168.62C317.677 168.391 317.516 168.122 317.411 167.83C317.306 167.537 317.259 167.227 317.274 166.917C317.289 166.607 317.365 166.302 317.498 166.022C317.631 165.741 317.817 165.489 318.048 165.28C318.278 165.072 318.547 164.911 318.839 164.806L412.342 131.197C412.931 130.987 413.579 131.019 414.144 131.286C414.71 131.553 415.146 132.034 415.357 132.622C415.569 133.211 415.538 133.859 415.273 134.425C415.007 134.991 414.527 135.428 413.939 135.641Z" fill="#E6E6E6"/>
<path d="M386.172 156.952L355.416 168.007C355.124 168.113 354.814 168.16 354.504 168.145C354.194 168.131 353.889 168.055 353.608 167.923C353.327 167.791 353.075 167.605 352.866 167.375C352.657 167.146 352.495 166.877 352.39 166.585C352.285 166.293 352.239 165.982 352.254 165.672C352.269 165.362 352.345 165.058 352.477 164.777C352.61 164.496 352.797 164.244 353.027 164.036C353.257 163.827 353.526 163.666 353.818 163.562L384.574 152.506C385.163 152.295 385.813 152.325 386.379 152.592C386.946 152.859 387.383 153.341 387.595 153.93C387.807 154.52 387.776 155.169 387.509 155.736C387.242 156.302 386.761 156.74 386.172 156.952Z" fill="#E6E6E6"/>
<path d="M393.488 177.303L362.732 188.358C362.44 188.463 362.13 188.509 361.821 188.494C361.511 188.48 361.207 188.404 360.926 188.272C360.646 188.14 360.394 187.953 360.185 187.724C359.977 187.494 359.815 187.226 359.711 186.934C359.606 186.642 359.559 186.333 359.574 186.023C359.589 185.713 359.664 185.409 359.797 185.128C359.929 184.848 360.115 184.596 360.344 184.387C360.574 184.179 360.842 184.017 361.134 183.913L391.89 172.857C392.479 172.645 393.129 172.676 393.695 172.943C394.262 173.21 394.699 173.691 394.911 174.281C395.123 174.87 395.092 175.52 394.825 176.087C394.558 176.653 394.077 177.091 393.488 177.303Z" fill="#E6E6E6"/>
<path d="M397.234 187.726L366.479 198.781C366.187 198.887 365.877 198.934 365.566 198.92C365.256 198.906 364.951 198.831 364.67 198.699C364.389 198.567 364.137 198.38 363.928 198.151C363.719 197.921 363.557 197.652 363.452 197.36C363.347 197.068 363.3 196.757 363.315 196.447C363.33 196.137 363.406 195.832 363.539 195.552C363.672 195.271 363.859 195.019 364.089 194.81C364.319 194.602 364.588 194.441 364.881 194.336L395.637 183.281C395.929 183.175 396.239 183.128 396.549 183.143C396.859 183.157 397.164 183.232 397.445 183.364C397.726 183.496 397.978 183.683 398.187 183.912C398.396 184.142 398.558 184.411 398.663 184.703C398.768 184.995 398.814 185.305 398.8 185.616C398.785 185.926 398.709 186.23 398.576 186.511C398.443 186.792 398.256 187.044 398.026 187.252C397.796 187.461 397.527 187.622 397.234 187.726Z" fill="#E6E6E6"/>
<path d="M407.027 160.784L341.774 184.24C341.482 184.346 341.172 184.393 340.862 184.378C340.551 184.364 340.247 184.289 339.966 184.157C339.685 184.025 339.432 183.838 339.223 183.609C339.014 183.379 338.853 183.11 338.748 182.818C338.643 182.526 338.596 182.216 338.611 181.905C338.626 181.595 338.702 181.291 338.835 181.01C338.968 180.729 339.154 180.477 339.385 180.269C339.615 180.06 339.884 179.899 340.176 179.795L405.429 156.339C405.721 156.234 406.031 156.186 406.342 156.201C406.652 156.215 406.956 156.29 407.237 156.422C407.518 156.554 407.771 156.741 407.98 156.97C408.189 157.2 408.351 157.469 408.456 157.761C408.561 158.053 408.607 158.364 408.592 158.674C408.577 158.984 408.501 159.288 408.368 159.569C408.236 159.85 408.049 160.102 407.819 160.31C407.589 160.519 407.32 160.68 407.027 160.784Z" fill="#E6E6E6"/>
<path d="M393.884 213.029L382.717 217.043C381.714 217.403 380.611 217.35 379.648 216.896C378.685 216.441 377.942 215.624 377.581 214.622C377.221 213.62 377.274 212.516 377.727 211.553C378.181 210.589 378.998 209.846 380 209.485L391.167 205.471C392.169 205.111 393.273 205.164 394.236 205.619C395.199 206.073 395.942 206.891 396.302 207.892C396.662 208.894 396.61 209.998 396.156 210.961C395.703 211.925 394.885 212.669 393.884 213.029Z" fill="#0066FF"/>
<path d="M305.882 35.9334C306.74 35.9334 307.435 35.2381 307.435 34.3804C307.435 33.5227 306.74 32.8274 305.882 32.8274C305.024 32.8274 304.329 33.5227 304.329 34.3804C304.329 35.2381 305.024 35.9334 305.882 35.9334Z" fill="white"/>
<path d="M635.772 467.38C637.192 461.965 640.6 457.284 645.318 454.27C645.785 453.971 645.298 453.261 644.831 453.559C639.927 456.705 636.39 461.584 634.926 467.222C634.786 467.759 635.634 467.915 635.772 467.38Z" fill="white"/>
<path d="M725.696 333.101L696.756 381.801L697.856 382.381L688.056 400.961L686.016 399.881L679.576 410.711L681.176 411.631L670.676 429.811L668.856 428.761L574.426 587.681C571.95 591.84 567.924 594.847 563.234 596.041C558.543 597.235 553.57 596.52 549.406 594.051L373.856 489.741C369.697 487.265 366.69 483.24 365.496 478.549C364.301 473.858 365.017 468.885 367.486 464.721L518.756 210.141C521.233 205.983 525.258 202.976 529.949 201.782C534.639 200.588 539.612 201.303 543.776 203.771L719.326 308.081C723.484 310.559 726.489 314.584 727.683 319.275C728.877 323.965 728.163 328.937 725.696 333.101Z" fill="#202020"/>
<path d="M555.663 584.224L379.495 479.548C378.213 478.784 377.286 477.543 376.918 476.098C376.55 474.652 376.771 473.119 377.531 471.835L529.805 215.562C530.569 214.28 531.81 213.353 533.255 212.985C534.701 212.617 536.234 212.838 537.518 213.598L713.686 318.275C714.968 319.039 715.894 320.279 716.262 321.725C716.63 323.171 716.41 324.704 715.649 325.987L563.376 582.261C562.612 583.543 561.371 584.469 559.925 584.837C558.479 585.206 556.947 584.985 555.663 584.224Z" fill="white"/>
<path d="M628.029 261.886C628.886 261.886 629.582 261.191 629.582 260.333C629.582 259.476 628.886 258.78 628.029 258.78C627.171 258.78 626.476 259.476 626.476 260.333C626.476 261.191 627.171 261.886 628.029 261.886Z" fill="white"/>
<path d="M618.417 445.465L471.36 358.086C470.899 357.814 470.496 357.454 470.174 357.027C469.852 356.599 469.618 356.112 469.485 355.593C469.352 355.075 469.323 354.535 469.399 354.005C469.475 353.475 469.655 352.966 469.928 352.506C470.201 352.045 470.563 351.644 470.992 351.324C471.421 351.004 471.909 350.771 472.428 350.64C472.947 350.509 473.487 350.482 474.016 350.56C474.546 350.638 475.055 350.82 475.514 351.095L622.571 438.474C623.032 438.746 623.435 439.106 623.757 439.533C624.078 439.961 624.312 440.448 624.445 440.967C624.579 441.485 624.608 442.025 624.532 442.555C624.456 443.085 624.276 443.594 624.003 444.054C623.729 444.515 623.368 444.916 622.939 445.236C622.51 445.556 622.022 445.789 621.503 445.92C620.984 446.051 620.444 446.078 619.914 446C619.385 445.922 618.876 445.74 618.417 445.465Z" fill="#E6E6E6"/>
<path d="M559.699 431.925L511.328 403.184C510.869 402.911 510.468 402.551 510.148 402.123C509.828 401.695 509.595 401.209 509.464 400.691C509.332 400.174 509.303 399.636 509.38 399.107C509.456 398.578 509.636 398.07 509.908 397.611C510.181 397.152 510.542 396.751 510.97 396.431C511.397 396.111 511.884 395.879 512.401 395.747C512.919 395.616 513.457 395.587 513.986 395.664C514.514 395.74 515.023 395.92 515.482 396.193L563.853 424.934C564.312 425.207 564.713 425.567 565.032 425.995C565.352 426.423 565.585 426.909 565.716 427.427C565.848 427.944 565.876 428.482 565.8 429.011C565.724 429.539 565.544 430.048 565.271 430.507C564.999 430.966 564.638 431.367 564.21 431.686C563.783 432.006 563.296 432.238 562.779 432.37C562.261 432.502 561.723 432.53 561.195 432.454C560.666 432.378 560.158 432.198 559.699 431.925Z" fill="#E6E6E6"/>
<path d="M540.681 463.932L492.31 435.191C491.383 434.64 490.713 433.744 490.447 432.699C490.181 431.654 490.341 430.546 490.892 429.619C491.443 428.692 492.339 428.022 493.384 427.755C494.429 427.489 495.537 427.649 496.464 428.2L544.835 456.941C545.294 457.214 545.695 457.574 546.014 458.002C546.334 458.43 546.567 458.916 546.698 459.434C546.83 459.951 546.859 460.489 546.782 461.018C546.706 461.546 546.526 462.055 546.253 462.514C545.981 462.973 545.62 463.374 545.192 463.693C544.765 464.013 544.278 464.245 543.761 464.377C543.243 464.509 542.705 464.537 542.177 464.461C541.648 464.385 541.14 464.205 540.681 463.932Z" fill="#E6E6E6"/>
<path d="M530.94 480.326L482.569 451.584C482.108 451.312 481.706 450.952 481.385 450.524C481.064 450.097 480.831 449.61 480.698 449.092C480.566 448.574 480.537 448.035 480.613 447.505C480.689 446.976 480.869 446.467 481.142 446.007C481.415 445.547 481.776 445.146 482.205 444.826C482.633 444.506 483.12 444.274 483.639 444.143C484.157 444.011 484.697 443.983 485.226 444.061C485.755 444.138 486.263 444.319 486.723 444.594L535.094 473.335C535.555 473.606 535.958 473.966 536.28 474.394C536.602 474.822 536.836 475.309 536.969 475.828C537.102 476.346 537.131 476.886 537.056 477.416C536.98 477.946 536.8 478.455 536.526 478.916C536.253 479.376 535.891 479.778 535.462 480.098C535.033 480.418 534.545 480.65 534.026 480.781C533.507 480.912 532.967 480.939 532.437 480.861C531.908 480.783 531.399 480.601 530.94 480.326Z" fill="#E6E6E6"/>
<path d="M577.451 463.823L474.824 402.844C473.901 402.291 473.236 401.395 472.972 400.352C472.709 399.309 472.87 398.204 473.419 397.28C473.969 396.355 474.862 395.686 475.904 395.418C476.945 395.151 478.051 395.307 478.978 395.853L581.604 456.832C582.066 457.104 582.469 457.464 582.791 457.892C583.113 458.32 583.347 458.807 583.48 459.325C583.613 459.844 583.642 460.383 583.566 460.913C583.49 461.443 583.311 461.953 583.037 462.413C582.764 462.873 582.402 463.275 581.973 463.595C581.544 463.915 581.056 464.148 580.537 464.279C580.018 464.41 579.478 464.437 578.948 464.359C578.419 464.28 577.91 464.099 577.451 463.823Z" fill="#E6E6E6"/>
<path d="M557.89 541.755L540.327 531.319C538.753 530.381 537.615 528.857 537.164 527.081C536.713 525.305 536.985 523.423 537.921 521.847C538.857 520.272 540.38 519.133 542.156 518.68C543.931 518.227 545.814 518.497 547.39 519.431L564.954 529.867C566.53 530.804 567.67 532.328 568.122 534.105C568.575 535.882 568.303 537.766 567.366 539.343C566.429 540.919 564.905 542.059 563.128 542.511C561.35 542.964 559.467 542.692 557.89 541.755Z" fill="#0066FF"/>
<path d="M590.658 372.314C610.54 372.314 626.658 356.197 626.658 336.314C626.658 316.432 610.54 300.314 590.658 300.314C570.776 300.314 554.658 316.432 554.658 336.314C554.658 356.197 570.776 372.314 590.658 372.314Z" fill="#0066FF"/>
<path d="M0.423828 482.606H487.605V200.557C487.602 198.444 486.762 196.418 485.267 194.924C483.773 193.43 481.747 192.589 479.634 192.587H8.39482C6.28155 192.589 4.25551 193.43 2.76118 194.924C1.26685 196.418 0.426268 198.444 0.423828 200.557V482.606Z" fill="#CACACA"/>
<path d="M472.553 203.611H15.4766V463.101H472.553V203.611Z" fill="white"/>
<path d="M6.55376e-10 474.973V509.778C-1.57581e-05 511.221 0.284166 512.65 0.836319 513.983C1.38847 515.316 2.19779 516.527 3.21805 517.548C4.23831 518.568 5.44955 519.377 6.78259 519.929C8.11563 520.482 9.54438 520.766 10.9873 520.766H190.802V589.455H188.413C188.226 589.455 188.04 589.491 187.867 589.563C187.694 589.635 187.536 589.74 187.404 589.872C187.271 590.005 187.166 590.162 187.094 590.336C187.023 590.509 186.986 590.694 186.986 590.882V595.659C186.986 595.847 187.023 596.032 187.094 596.206C187.166 596.379 187.271 596.536 187.404 596.669C187.536 596.801 187.694 596.906 187.867 596.978C188.04 597.05 188.226 597.087 188.413 597.087H300.04C300.227 597.087 300.413 597.05 300.586 596.978C300.759 596.906 300.916 596.801 301.049 596.669C301.182 596.536 301.287 596.379 301.358 596.206C301.43 596.032 301.467 595.847 301.467 595.659V590.882C301.467 590.694 301.43 590.509 301.358 590.336C301.287 590.162 301.182 590.005 301.049 589.872C300.916 589.74 300.759 589.635 300.586 589.563C300.413 589.491 300.227 589.455 300.04 589.455H297.651V520.766H477.466C478.908 520.766 480.337 520.482 481.67 519.93C483.003 519.377 484.215 518.568 485.235 517.548C486.255 516.527 487.064 515.316 487.617 513.983C488.169 512.65 488.453 511.221 488.453 509.778V474.973L6.55376e-10 474.973Z" fill="#202020"/>
<path d="M406.413 290.394H189.959C188.595 290.394 187.286 289.852 186.321 288.887C185.357 287.922 184.814 286.614 184.814 285.249C184.814 283.885 185.357 282.576 186.321 281.611C187.286 280.646 188.595 280.104 189.959 280.104H406.413C407.778 280.104 409.086 280.646 410.051 281.611C411.016 282.576 411.558 283.885 411.558 285.249C411.558 286.614 411.016 287.922 410.051 288.887C409.086 289.852 407.778 290.394 406.413 290.394Z" fill="#E6E6E6"/>
<path d="M333.785 313.62H262.588C261.223 313.62 259.914 313.078 258.949 312.113C257.984 311.148 257.442 309.839 257.442 308.475C257.442 307.11 257.984 305.801 258.949 304.836C259.914 303.871 261.223 303.329 262.588 303.329H333.785C335.15 303.329 336.459 303.871 337.424 304.836C338.389 305.801 338.931 307.11 338.931 308.475C338.931 309.839 338.389 311.148 337.424 312.113C336.459 313.078 335.15 313.62 333.785 313.62Z" fill="#E6E6E6"/>
<path d="M333.785 360.731H262.588C261.223 360.731 259.914 360.189 258.949 359.224C257.984 358.259 257.442 356.951 257.442 355.586C257.442 354.221 257.984 352.913 258.949 351.948C259.914 350.983 261.223 350.441 262.588 350.441H333.785C335.15 350.441 336.459 350.983 337.424 351.948C338.389 352.913 338.931 354.221 338.931 355.586C338.931 356.951 338.389 358.259 337.424 359.224C336.459 360.189 335.15 360.731 333.785 360.731Z" fill="#E6E6E6"/>
<path d="M333.785 384.861H262.587C261.912 384.861 261.243 384.728 260.618 384.469C259.994 384.211 259.427 383.832 258.949 383.354C258.472 382.876 258.093 382.309 257.834 381.685C257.575 381.061 257.442 380.392 257.442 379.716C257.442 379.04 257.575 378.371 257.834 377.747C258.093 377.123 258.472 376.556 258.949 376.078C259.427 375.6 259.994 375.221 260.618 374.963C261.243 374.704 261.912 374.571 262.587 374.571H333.785C334.461 374.571 335.13 374.704 335.754 374.963C336.378 375.221 336.945 375.6 337.423 376.078C337.901 376.556 338.28 377.123 338.538 377.747C338.797 378.371 338.93 379.04 338.93 379.716C338.93 380.392 338.797 381.061 338.538 381.685C338.28 382.309 337.901 382.876 337.423 383.354C336.945 383.832 336.378 384.211 335.754 384.469C335.13 384.728 334.461 384.861 333.785 384.861Z" fill="#E6E6E6"/>
<path d="M373.715 336.845H222.658C221.293 336.845 219.984 336.303 219.02 335.338C218.055 334.373 217.513 333.064 217.513 331.7C217.513 330.335 218.055 329.027 219.02 328.062C219.984 327.097 221.293 326.555 222.658 326.555H373.715C375.08 326.555 376.388 327.097 377.353 328.062C378.318 329.027 378.86 330.335 378.86 331.7C378.86 333.064 378.318 334.373 377.353 335.338C376.388 336.303 375.08 336.845 373.715 336.845Z" fill="#E6E6E6"/>
<path d="M402.81 434.266H376.958C374.638 434.266 372.412 433.344 370.772 431.703C369.131 430.063 368.209 427.837 368.209 425.517C368.209 423.196 369.131 420.971 370.772 419.33C372.412 417.69 374.638 416.768 376.958 416.768H402.81C405.13 416.768 407.355 417.69 408.996 419.33C410.637 420.971 411.559 423.196 411.559 425.517C411.559 427.837 410.637 430.063 408.996 431.703C407.355 433.344 405.13 434.266 402.81 434.266Z" fill="#0066FF"/>
<path d="M121.895 370.766C146.747 370.766 166.895 350.619 166.895 325.766C166.895 300.913 146.747 280.766 121.895 280.766C97.0417 280.766 76.8945 300.913 76.8945 325.766C76.8945 350.619 97.0417 370.766 121.895 370.766Z" fill="#0066FF"/>
<path d="M243.802 198.099C244.739 198.099 245.498 197.339 245.498 196.403C245.498 195.466 244.739 194.707 243.802 194.707C242.866 194.707 242.106 195.466 242.106 196.403C242.106 197.339 242.866 198.099 243.802 198.099Z" fill="white"/>
</g>
<defs>
<clipPath id="clip0_329_180">
<rect width="728.252" height="598.943" fill="white"/>
</clipPath>
</defs>
</svg>
